<svg xmlns="http://www.w3.org/2000/svg" version="1.1"
  xmlns:xlink="http://www.w3.org/1999/xlink"
  xmlns:svgjs="http://svgjs.com/svgjs" viewBox="0 0 24 24" style="enable-background:new 0 0 512 512" xml:space="preserve" class="">
  <g transform="matrix(1.19,0,0,1.19,-2.2801085603237112,-2.2810523080825735)">
    <path xmlns="http://www.w3.org/2000/svg" d="m19.7906 4.22031c-2.96-2.95-7.76-2.95-10.69997 0-2.07 2.05-2.69 5-1.89 7.59999l-4.7 4.7c-.33.34-.56 1.01-.49 1.49l.3 2.18c.11.72.78 1.4 1.5 1.5l2.18.3c.48.07 1.15-.15 1.49-.5l.82-.82c.2-.19.2-.51 0-.71l-1.94-1.94c-.29-.29-.29-.77 0-1.06s.77-.29 1.06 0l1.95 1.95c.19.19.51.19.69997 0l2.12-2.11c2.59.81 5.54.18 7.6-1.87 2.95-2.95 2.95-7.75999 0-10.70999zm-5.29 7.77999c-1.38 0-2.5-1.12-2.5-2.49999 0-1.38 1.12-2.5 2.5-2.5s2.5 1.12 2.5 2.5c0 1.37999-1.12 2.49999-2.5 2.49999z" class=""></path>
  </g>
</svg>
