<svg xmlns="http://www.w3.org/2000/svg" version="1.1"
  xmlns:xlink="http://www.w3.org/1999/xlink"
  xmlns:svgjs="http://svgjs.com/svgjs" viewBox="0 0 512 512" style="enable-background:new 0 0 512 512" xml:space="preserve" class="">
  <g>
    <g xmlns="http://www.w3.org/2000/svg" id="e">
      <path d="m239.68 126.57c-2.77-15.69-17.03-29.95-32.72-32.72-9.52-1.58-22.49-3.07-40.19-3.09-17.7.02-30.66 1.5-40.19 3.09-15.69 2.77-29.95 17.03-32.72 32.72-1.58 9.52-3.07 22.49-3.09 40.19.02 17.7 1.5 30.66 3.09 40.19 2.77 15.69 17.03 29.95 32.72 32.72 9.52 1.58 22.49 3.07 40.19 3.09 17.7-.02 30.66-1.5 40.19-3.09 15.69-2.77 29.95-17.03 32.72-32.72 1.58-9.52 3.07-22.49 3.09-40.19-.02-17.7-1.5-30.66-3.09-40.19z" class=""></path>
      <path d="m239.68 305.06c-2.77-15.69-17.03-29.95-32.72-32.72-9.52-1.58-22.49-3.07-40.19-3.09-17.7.02-30.66 1.5-40.19 3.09-15.69 2.77-29.95 17.03-32.72 32.72-1.58 9.52-3.07 22.49-3.09 40.19.02 17.7 1.5 30.66 3.09 40.19 2.77 15.69 17.03 29.95 32.72 32.72 9.52 1.58 22.49 3.07 40.19 3.09 17.7-.02 30.66-1.5 40.19-3.09 15.69-2.77 29.95-17.03 32.72-32.72 1.58-9.52 3.07-22.49 3.09-40.19-.02-17.7-1.5-30.66-3.09-40.19z" class=""></path>
      <path d="m418.13 126.57c-2.77-15.69-17.03-29.95-32.72-32.72-9.52-1.58-22.49-3.07-40.19-3.09-17.7.02-30.66 1.5-40.19 3.09-15.69 2.77-29.95 17.03-32.72 32.72-1.58 9.52-3.07 22.49-3.09 40.19.02 17.7 1.5 30.66 3.09 40.19 2.77 15.69 17.03 29.95 32.72 32.72 9.52 1.58 22.49 3.07 40.19 3.09 17.7-.02 30.66-1.5 40.19-3.09 15.69-2.77 29.95-17.03 32.72-32.72 1.58-9.52 3.07-22.49 3.09-40.19-.02-17.7-1.5-30.66-3.09-40.19z" class=""></path>
      <path d="m418.13 305.06c-2.77-15.69-17.03-29.95-32.72-32.72-9.52-1.58-22.49-3.07-40.19-3.09-17.7.02-30.66 1.5-40.19 3.09-15.69 2.77-29.95 17.03-32.72 32.72-1.58 9.52-3.07 22.49-3.09 40.19.02 17.7 1.5 30.66 3.09 40.19 2.77 15.69 17.03 29.95 32.72 32.72 9.52 1.58 22.49 3.07 40.19 3.09 17.7-.02 30.66-1.5 40.19-3.09 15.69-2.77 29.95-17.03 32.72-32.72 1.58-9.52 3.07-22.49 3.09-40.19-.02-17.7-1.5-30.66-3.09-40.19z" class=""></path>
      <path d="m488.25 302.43c-12.62 0-23.09 9.73-24.06 22.31-1.61 21.02-4.02 41.09-7.26 60.65-2.84 15.75-12.15 32.46-25.56 45.88-13.42 13.42-30.13 22.73-45.89 25.57-18.47 3.06-37.38 5.38-57.13 6.99-12.55 1.02-22.23 11.46-22.23 24.05 0 14.12 12.07 25.19 26.13 24.05 24.14-1.96 44.4-4.7 61.42-7.53 53.15-9.39 101.43-57.67 110.82-110.82 2.98-17.9 5.85-39.38 7.82-65.2 1.07-14-10.02-25.95-24.06-25.95z" class=""></path>
      <path d="m118.33 7.61c-53.15 9.39-101.43 57.67-110.82 110.82-2.68 16.1-5.27 35.1-7.2 57.54-1.21 14.09 9.9 26.21 24.04 26.21 12.55 0 22.97-9.63 24.05-22.14 1.59-18.41 3.8-36.12 6.67-53.44 2.84-15.75 12.15-32.46 25.56-45.88 13.42-13.42 30.13-22.73 45.89-25.57 18.47-3.06 37.38-5.38 57.13-6.99 12.55-1.02 22.23-11.46 22.23-24.05 0-14.12-12.07-25.19-26.13-24.05-24.14 1.96-44.4 4.7-61.42 7.53z" class=""></path>
      <path d="m504.49 118.43c-9.39-53.15-57.67-101.42-110.82-110.82-17.01-2.83-37.27-5.57-61.42-7.53-14.07-1.14-26.13 9.93-26.13 24.05 0 12.59 9.68 23.03 22.23 24.05 19.75 1.61 38.66 3.92 57.13 6.99 15.76 2.84 32.47 12.15 45.89 25.57 13.42 13.41 22.72 30.12 25.56 45.88 2.87 17.32 5.09 35.02 6.67 53.44 1.08 12.51 11.49 22.14 24.05 22.14 14.15 0 25.26-12.12 24.04-26.21-1.93-22.45-4.53-41.45-7.2-57.54z" class=""></path>
      <path d="m205.88 487.87c0-12.59-9.68-23.03-22.23-24.05-19.75-1.61-38.67-3.92-57.13-6.99-15.76-2.84-32.47-12.15-45.89-25.57-13.42-13.41-22.72-30.12-25.56-45.88-3.25-19.57-5.65-39.63-7.26-60.65-.96-12.58-11.44-22.31-24.06-22.31-14.04 0-25.13 11.95-24.06 25.95 1.98 25.82 4.85 47.3 7.82 65.2 9.39 53.15 57.67 101.42 110.82 110.82 17.01 2.83 37.27 5.57 61.42 7.53 14.07 1.14 26.13-9.93 26.13-24.05z" class=""></path>
    </g>
  </g>
</svg>
