<svg xmlns="http://www.w3.org/2000/svg" version="1.1" xmlns:xlink="http://www.w3.org/1999/xlink"
  xmlns:svgjs="http://svgjs.com/svgjs" viewBox="0 0 24 24" style="enable-background:new 0 0 512 512"
  xml:space="preserve" class="">
  <g transform="matrix(1.26,0,0,1.26,-3.220616674423214,-3.1068519830703725)">
    <path xmlns="http://www.w3.org/2000/svg" clip-rule="evenodd"
      d="m12.8805 19.0636-8.1702-8.1701c-1.29286-1.29289-.7304-3.33133.95661-3.46691.74684-.06001 1.43697-.32688 1.9957-.77171l3.10229-2.46984c1.6728-1.33179 4.0271-1.44307 6.0607-.44685l.0733-.07334c.8865-.88647 2.3237-.88647 3.2102 0s.8865 2.32372 0 3.21019l-.0733.07334c.9962 2.03359.8849 4.38792-.4469 6.06072l-2.4698 3.1022c-.4449.5588-.7117 1.2489-.7717 1.9957-.1356 1.687-2.1741 2.2495-3.4669.9566zm-1.4537 1.6528c-1.097.404-2.41521.1353-3.33861-.788-.92717-.9272-1.19426-2.2524-.783-3.3521.04537-.1214.13415-.2204.24353-.2899.26372-.1673.60824-.1292.82908.0916l3.2506 3.2506c.2186.2186.2614.5576.1038.8237-.0706.1192-.1753.2162-.3054.2641z"
      fill-rule="evenodd"></path>
  </g>
</svg>
