<svg xmlns="http://www.w3.org/2000/svg" version="1.1"
  xmlns:xlink="http://www.w3.org/1999/xlink"
  xmlns:svgjs="http://svgjs.com/svgjs" viewBox="0 0 512 512" style="enable-background:new 0 0 512 512" xml:space="preserve" class="">
  <g>
    <path xmlns="http://www.w3.org/2000/svg" d="M346.49,345.65a9.35,9.35,0,0,0-6.94,3.18,11.44,11.44,0,0,0-3,7.77,11.18,11.18,0,0,0,2.51,8,8.74,8.74,0,0,0,6.92,3,8.86,8.86,0,0,0,6.86-3.2,12.23,12.23,0,0,0,2.84-8.05,11.11,11.11,0,0,0-2.5-7.74A8.17,8.17,0,0,0,346.49,345.65Z" class=""></path>
    <path xmlns="http://www.w3.org/2000/svg" d="M418.23,403.45a8.82,8.82,0,0,0-6.89,3.1,11.25,11.25,0,0,0-2.77,7.88,12.07,12.07,0,0,0,2.7,8.23,8.81,8.81,0,0,0,6.91,3.09,8.54,8.54,0,0,0,6.78-3.2,12.28,12.28,0,0,0,2.74-8.14,11.54,11.54,0,0,0-2.67-7.87A8.84,8.84,0,0,0,418.23,403.45Z" class=""></path>
    <path xmlns="http://www.w3.org/2000/svg" d="M382.19,291.36a94.31,94.31,0,1,0,94.31,94.31A94.31,94.31,0,0,0,382.19,291.36Zm-55.3,85a25.48,25.48,0,0,1-7.33-19.44,28.45,28.45,0,0,1,8.7-19.68c5.51-5.53,11.81-8.49,18.92-8.71a22.81,22.81,0,0,1,18.2,7.75,27.38,27.38,0,0,1,7.43,19.83q-.18,12.06-8,20.15a26.35,26.35,0,0,1-37.88.1Zm85.51-46.8c6.57,0,10.53,8.2,6.71,14.12C400,373.5,380,403.58,361.79,432.75a7.62,7.62,0,0,1-11.34,1.92A9.46,9.46,0,0,1,348,422.32c18.27-29,38.39-59,57.55-88.92A8.05,8.05,0,0,1,412.4,329.57Zm24.39,105A25.17,25.17,0,0,1,418,442.82c-7.22,0-13.37-2.76-18.53-8.25a28.88,28.88,0,0,1-7.86-20.2,27.49,27.49,0,0,1,7.83-20,25.52,25.52,0,0,1,37.65,0,27.42,27.42,0,0,1,7.77,20A28.72,28.72,0,0,1,436.79,434.57Z" class=""></path>
    <path xmlns="http://www.w3.org/2000/svg" d="M302.82,478.55q-3.61-3.1-7-6.5a122.16,122.16,0,0,1,86.39-208.54,122.79,122.79,0,0,1,34.26,4.85h0c0-4.8,0-9.21,0-13.09,0-7.54-.08-17-.29-27.58,11.17,7,29.66,17.8,35.67,20.68a23.86,23.86,0,0,0,29.42-7.06c4-5.37,9.06-12.92,15.37-23.47a274.67,274.67,0,0,0,13.23-24.36c4.63-9.89,1.64-23.25-6.94-32-5.12-5.26-22.58-21.58-32.62-30.94L378.11,51.4a74.49,74.49,0,0,0-36.6-15.93c-9.92-1.27-21.64-2.43-35.45-3.3-1.24,27.25-23,48.36-50.06,48.38s-48.82-21.13-50.06-48.38c-13.8.87-25.5,2-35.42,3.3A74.34,74.34,0,0,0,134.05,51.3L41.73,130.56c-10,9.36-27.5,25.68-32.62,30.94-8.58,8.73-11.57,22.09-6.94,32a275.15,275.15,0,0,0,13.22,24.37C21.71,228.4,26.8,236,30.76,241.32a23.89,23.89,0,0,0,29.43,7.06c6-2.89,24.54-13.69,35.71-20.7-.21,10.55-.3,20-.3,27.59-.55,39.1,4,130.48,7.46,151.42,5.14,34.71,34,64,67.42,68.36,20.22,2.57,47.82,4.76,85.54,4.78,17.74,0,33.25-.5,46.8-1.28Z" class=""></path>
  </g>
</svg>
