<svg xmlns="http://www.w3.org/2000/svg" version="1.1"
  xmlns:xlink="http://www.w3.org/1999/xlink"
  xmlns:svgjs="http://svgjs.com/svgjs" viewBox="0 0 512 512" style="enable-background:new 0 0 512 512" xml:space="preserve" class="">
  <g>
    <path xmlns="http://www.w3.org/2000/svg" d="m481.36 138.17c-1.51-2.06-30.54-32-33.89-35.2-3.16-3.34-33.13-32.38-35.19-33.88a10.93 10.93 0 0 0 -12-.9 49.56 49.56 0 0 0 -14.82 14.81 11 11 0 0 0 .9 12.05c.68.93 7.06 7.64 14.12 15-3.18 3-6.74 6.45-10.4 10q8 6.69 15.49 14.15a234.09 234.09 0 0 1 23.63 27.62c4-4.13 7.86-8.18 11.27-11.75 7.33 7.06 14 13.43 15 14.12a11 11 0 0 0 12 .9 46.66 46.66 0 0 0 8.18-6.61 47.36 47.36 0 0 0 6.6-8.17 11 11 0 0 0 -.89-12.14z" class=""></path>
    <path xmlns="http://www.w3.org/2000/svg" d="m172.09 53.74c1.62.25 14.67.58 29 .85-.11 4.6-.22 9.61-.32 14.81a235.61 235.61 0 0 1 80.46 0c-.11-5.2-.21-10.21-.32-14.81 14.36-.27 27.41-.6 29-.85 5.85-.65 11.58-5.35 12.91-11.12a66.85 66.85 0 0 0 1.57-14.75 66.24 66.24 0 0 0 -1.57-14.75c-1.27-5.77-7-10.47-12.82-11.12-3.59-.55-62.47-1.48-69-1.3-6.5-.18-65.38.75-68.94 1.3-5.85.65-11.58 5.35-12.91 11.12a66.24 66.24 0 0 0 -1.57 14.75 65.64 65.64 0 0 0 1.57 14.75c1.36 5.77 7.09 10.47 12.94 11.12z" class=""></path>
    <path xmlns="http://www.w3.org/2000/svg" d="m241 85.94c-117.47 0-212.69 95.23-212.69 212.69s95.25 212.69 212.69 212.69 212.72-95.22 212.72-212.69-95.23-212.69-212.72-212.69zm81.43 192.64-93.1 143.67a11.59 11.59 0 0 1 -9.74 5.29h-7.29a11.61 11.61 0 0 1 -11.28-14.34l22.98-94.68h-55.94a10.34 10.34 0 0 1 -10.06-12.79l31-128.09a10.34 10.34 0 0 1 10-7.92h64.36a10.35 10.35 0 0 1 10.06 12.79l-18.94 78.15h58.14a11.61 11.61 0 0 1 9.84 17.92z" class=""></path>
  </g>
</svg>
