<svg xmlns="http://www.w3.org/2000/svg" version="1.1"
  xmlns:xlink="http://www.w3.org/1999/xlink"
  xmlns:svgjs="http://svgjs.com/svgjs" viewBox="0 0 512 512" style="enable-background:new 0 0 512 512" xml:space="preserve" class="">
  <g>
    <g xmlns="http://www.w3.org/2000/svg" id="e">
      <path d="m256 0c-141.38 0-256 114.62-256 256s114.62 256 256 256 256-114.62 256-256-114.62-256-256-256zm202.36 230h-77.56c-2.94-39.31-12.59-77.35-28.78-113.41-8.51-18.95-18.64-36.91-30.29-53.81 29.25 9.92 56.05 26.49 78.53 48.97 32.33 32.33 52.47 73.61 58.11 118.25zm-202.36 218.71c-19.97-22.2-36.27-47.19-48.58-74.61-13.17-29.31-21.2-60.2-24.02-92.1h145.22c-2.83 31.91-10.86 62.79-24.02 92.1-12.31 27.41-28.61 52.41-48.58 74.61zm-72.61-218.71c2.84-32.11 10.96-63.18 24.28-92.66 12.29-27.21 28.49-52.02 48.32-74.06 19.98 22.2 36.27 47.2 48.59 74.61 13.17 29.31 21.2 60.2 24.02 92.1h-145.21zm-71.64-118.25c22.47-22.47 49.27-39.04 78.51-48.96-11.51 16.7-21.53 34.44-29.98 53.15-16.38 36.25-26.12 74.52-29.08 114.07h-77.56c5.64-44.64 25.78-85.92 58.11-118.25zm-58.11 170.25h77.56c2.94 39.31 12.59 77.35 28.78 113.41 8.51 18.95 18.64 36.91 30.29 53.81-29.25-9.92-56.05-26.49-78.53-48.97-32.33-32.33-52.47-73.61-58.11-118.25zm346.61 118.25c-22.48 22.48-49.28 39.05-78.53 48.97 11.65-16.9 21.78-34.86 30.29-53.81 16.2-36.06 25.84-74.1 28.78-113.41h77.56c-5.64 44.64-25.78 85.92-58.11 118.25z"></path>
    </g>
  </g>
</svg>
