<svg xmlns="http://www.w3.org/2000/svg" version="1.1"
  xmlns:xlink="http://www.w3.org/1999/xlink"
  xmlns:svgjs="http://svgjs.com/svgjs" viewBox="0 0 512 512" style="enable-background:new 0 0 512 512" xml:space="preserve" class="">
  <g>
    <g xmlns="http://www.w3.org/2000/svg" id="diamond">
      <path d="m474.41 153.62c.21.22.4.44.61.67q-58.32-2-116.64-3a23.52 23.52 0 0 1 -23-23.13q-.74-59.88-2.14-119.76c-.24-.4 74.88 58.81 141.17 145.22z"></path>
      <path d="m28.54 256.19c.09 60.08 3.38 97.56 9 136.68 3.84 26.59 17.24 52.3 37.16 72.52s45.45 33.89 72 37.88l.81.12c32.38 4.61 43.39 8.32 111.39 8.61 68-.48 73.21-4 105.63-8.61l.81-.12c26.55-4 52.06-17.7 72-37.88s33.32-45.93 37.16-72.52c5.58-39.12 8.87-76.6 9-136.68 0-29.29-.86-53.19-2.31-74.55q-61.23-1.6-122.46-2.32a52 52 0 0 1 -51.28-51.5q-.5-63.21-1.48-126.41c-2.7-.18-5.53-.34-8.55-.49-11.7-.56-25.99-.92-44.53-.92-68 .49-73.21 4-105.63 8.62l-.81.12c-26.55 4-52.06 17.7-72 37.89s-33.33 45.92-37.17 72.51l.24.17v.21c-5.61 39.12-8.9 76.6-8.98 136.67zm94 99.07a23.06 23.06 0 0 1 23.64-23.4q62.63.78 125.26.67a23.8 23.8 0 0 1 23.88 24 24.22 24.22 0 0 1 -24 24.15q-62.28.18-124.55-1.1a25 25 0 0 1 -24.24-24.32zm-.8-101.56a24.1 24.1 0 0 1 24.11-23.85q110.16-.48 220.32 0a23.84 23.84 0 1 1 0 47.68q-110.18.39-220.36 0a24.05 24.05 0 0 1 -24.08-23.83z"></path>
    </g>
  </g>
</svg>
