<svg xmlns="http://www.w3.org/2000/svg" version="1.1"
  xmlns:xlink="http://www.w3.org/1999/xlink"
  xmlns:svgjs="http://svgjs.com/svgjs" viewBox="0 0 24 24" style="enable-background:new 0 0 512 512" xml:space="preserve" class="">
  <g>
    <g xmlns="http://www.w3.org/2000/svg" id="_01" data-name="01">
      <path d="m16.875 4.37663a2.75 2.75 0 1 1 2.75 2.75 2.7528 2.7528 0 0 1 -2.75-2.75zm4.75 5.1463v4.81372a4.99 4.99 0 0 1 -4.99 4.99h-1.51a1.00007 1.00007 0 0 0 -.79858.39808l-1.50142 1.99193a1.42475 1.42475 0 0 1 -2.4 0l-1.5-1.99a1.11166 1.11166 0 0 0 -.8-.4h-1.5a5 5 0 0 1 -5-5v-6.95a5 5 0 0 1 5-5h7.8537a.99638.99638 0 0 1 .97259 1.19886 4.35874 4.35874 0 0 0 .0279 1.75793 4.22229 4.22229 0 0 0 3.189 3.189 4.35878 4.35878 0 0 0 1.75794.02789.99638.99638 0 0 1 1.19887.97259zm-13 1.8537a1 1 0 1 0 -1 1 1.003 1.003 0 0 0 1-1zm4 0a1 1 0 1 0 -1 1 1.003 1.003 0 0 0 1-1zm4 0a1 1 0 1 0 -1 1 1.003 1.003 0 0 0 1-1z"></path>
    </g>
  </g>
</svg>
