<svg xmlns="http://www.w3.org/2000/svg" version="1.1"
    xmlns:xlink="http://www.w3.org/1999/xlink" viewBox="0 0 512 512" style="enable-background:new 0 0 512 512" xml:space="preserve">
    <g>
        <path d="M107 242c-8.262 0-15 6.724-15 15v30c0 8.276 6.738 15 15 15s15-6.724 15-15v-30c0-8.276-6.738-15-15-15zM227 92c-8.262 0-15 6.724-15 15v30c0 8.276 6.738 15 15 15s15-6.724 15-15v-30c0-8.276-6.738-15-15-15z"></path>
        <path d="M497 0H15C6.709 0 0 6.709 0 15v362c0 8.291 6.709 15 15 15h230.766c-1.322-7.207-3.766-13.021-3.766-34.204V287c0-19.951 13.389-37.734 32.578-43.257l105.059-30.015C383.709 212.571 387.84 212 392 212s8.291.571 12.275 1.699c43.274 12.541 95.452 26.862 107.725 31.284V15c0-8.291-6.709-15-15-15zM62 77c0-8.291 6.709-15 15-15s15 6.709 15 15v90c0 8.291-6.709 15-15 15s-15-6.709-15-15zm90 210c0 24.814-20.186 45-45 45s-45-20.186-45-45v-30c0-24.814 20.186-45 45-45s45 20.186 45 45zm0-120c0 8.291-6.709 15-15 15s-15-6.709-15-15V77c0-8.291 6.709-15 15-15s15 6.709 15 15zm60 150c0 8.291-6.709 15-15 15s-15-6.709-15-15v-90c0-8.291 6.709-15 15-15s15 6.709 15 15zm60-180c0 24.814-20.186 45-45 45s-45-20.186-45-45v-30c0-24.814 20.186-45 45-45s45 20.186 45 45zm60 30c0 8.291-6.709 15-15 15s-15-6.709-15-15V77c0-8.291 6.709-15 15-15s15 6.709 15 15zm120-30c0 24.814-20.186 45-45 45s-45-20.186-45-45v-30c0-24.814 20.186-45 45-45s45 20.186 45 45z"></path>
        <path d="M407 92c-8.262 0-15 6.724-15 15v30c0 8.276 6.738 15 15 15s15-6.724 15-15v-30c0-8.276-6.738-15-15-15zM501.131 272.571l-105-30a15.216 15.216 0 0 0-8.262 0l-105 30C276.453 274.417 272 280.306 272 287v70.796c0 70.066 46.489 133.84 115.898 153.633 1.348.381 2.725.571 4.102.571s2.754-.19 4.102-.571C464.334 491.99 512 428.812 512 357.796V287c0-6.694-4.453-12.583-10.869-14.429zm-53.526 85.034-60 60c-2.93 2.93-6.768 4.395-10.605 4.395s-7.676-1.465-10.605-4.395l-30-30c-5.859-5.859-5.859-15.352 0-21.211s15.352-5.859 21.211 0L377 385.789l49.395-49.395c5.859-5.859 15.352-5.859 21.211 0s5.859 15.352-.001 21.211z"></path>
    </g>
</svg>