<svg xmlns="http://www.w3.org/2000/svg" version="1.1"
  xmlns:xlink="http://www.w3.org/1999/xlink" viewBox="0 0 32 32" style="enable-background:new 0 0 512 512" xml:space="preserve">
  <g>
    <path d="M14 6c0-1.103.897-2 2-2s2 .897 2 2v3h2V6c0-2.206-1.794-4-4-4s-4 1.794-4 4v3h2zM20 10h-8c-1.654 0-3 1.346-3 3v2c0 3.86 3.14 7 7 7s7-3.14 7-7v-2c0-1.654-1.346-3-3-3zm-3 6a1 1 0 0 1-2 0v-1a1 1 0 0 1 2 0zM29.894 25.553a.999.999 0 0 0-1.341-.447l-.553.276V25a1 1 0 0 0-2 0v.382l-.553-.276a1 1 0 1 0-.894 1.789l1.105.552-.552 1.106a1 1 0 1 0 1.789.894l.105-.211.105.211a.999.999 0 0 0 1.342.447 1 1 0 0 0 .447-1.341l-.552-1.106 1.105-.552a1 1 0 0 0 .447-1.342zM21.553 25.106l-.553.276V25a1 1 0 0 0-2 0v.382l-.553-.276a1 1 0 1 0-.894 1.789l1.105.552-.552 1.106a1 1 0 1 0 1.789.894l.105-.211.105.211a.999.999 0 0 0 1.342.447 1 1 0 0 0 .447-1.341l-.552-1.106 1.105-.552a1 1 0 1 0-.894-1.79zM13.553 25.106l-.553.276V25a1 1 0 0 0-2 0v.382l-.553-.276a1 1 0 1 0-.894 1.789l1.105.552-.552 1.106a1 1 0 1 0 1.789.894l.105-.211.105.211a.999.999 0 0 0 1.342.447 1 1 0 0 0 .447-1.341l-.552-1.106 1.105-.552a1 1 0 1 0-.894-1.79zM6.553 25.106 6 25.382V25a1 1 0 0 0-2 0v.382l-.553-.276a1 1 0 1 0-.894 1.789l1.105.552-.552 1.106a1 1 0 1 0 1.789.894L5 29.236l.105.211a.999.999 0 0 0 1.342.447 1 1 0 0 0 .447-1.341l-.552-1.106 1.105-.552a1 1 0 1 0-.894-1.79z"></path>
  </g>
</svg>