<svg xmlns="http://www.w3.org/2000/svg" version="1.1"
  xmlns:xlink="http://www.w3.org/1999/xlink"
  xmlns:svgjs="http://svgjs.com/svgjs" viewBox="0 0 512 512" style="enable-background:new 0 0 512 512" xml:space="preserve">
  <g>
    <g xmlns="http://www.w3.org/2000/svg" id="diamond">
      <path d="m263 511.9c-39.8 1-118-5.2-143.53-11.27-17.47-3.63-33.82-13.81-46.16-27.92s-20.12-31.55-21.93-49.17c0-.18 0-.36-.05-.54a283.73 283.73 0 0 1 -1.23-39.63s-1-11.66 1.23-32.83l.06-.53a76.15 76.15 0 0 1 22-45.92 77.55 77.55 0 0 1 46.26-22.28c25.63-2.71 103.63-4.2 143.27-4.19s103.28 1.47 128.91 4.19a77.51 77.51 0 0 1 46.26 22.29 76.24 76.24 0 0 1 22 45.93c0 .18 0 .35.05.53 2.21 21.18 1.91 32.79 1.92 32.8a377.61 377.61 0 0 1 -1.91 39.69l-.06.54c-1.81 17.63-9.59 35.05-21.93 49.18s-28.66 24.23-46.08 27.91c-25.57 5.79-89.32 11.49-129.08 11.22z"></path>
      <circle cx="253.42" cy="123.92" r="123.92"></circle>
    </g>
  </g>
</svg>
