<svg xmlns="http://www.w3.org/2000/svg" version="1.1"
  xmlns:xlink="http://www.w3.org/1999/xlink"
  xmlns:svgjs="http://svgjs.com/svgjs" viewBox="0 0 512 512" style="enable-background:new 0 0 512 512" xml:space="preserve" class="">
  <g>
    <path xmlns="http://www.w3.org/2000/svg" d="m132.64 481.45a71.88 71.88 0 0 0 -101.64-101.65c-20 20-27.87 51-30.37 79a251.78 251.78 0 0 0 .27 47.71c.43 4 4.25 4.87 4.91 5h.19c1.61.06 24.58.51 31.66-21.86a44.85 44.85 0 0 1 5.54-11.79c4.63-6.83 15.3-2.72 14.12 5.45a38.13 38.13 0 0 0 5 24.56 4.77 4.77 0 0 0 4.83 2.28c24.01-3.62 48.64-11.85 65.49-28.7z"></path>
    <path xmlns="http://www.w3.org/2000/svg" d="m365.53 399.88v-61.95q11.14-9.57 21.79-20.18l19.68-19.65c73.64-73.68 109.59-168.1 104.54-252.92-1.49-24.95-19.32-42.79-44.28-44.28-84.77-5.05-179.26 30.9-252.92 104.57l-19.65 19.65q-10.62 10.62-20.18 21.8h-61.95c-13.15.5-24.78 8.09-31.36 19.22l-36.42 72.86a38.3 38.3 0 0 0 -2 8.09 17.93 17.93 0 0 0 17.71 17.71h46c-6 20.1-2 39.86 10.78 52.62l77.73 77.74c12.76 12.77 32.52 16.75 52.62 10.78v46a17.93 17.93 0 0 0 17.71 17.71 38.3 38.3 0 0 0 8.09-2l72.84-36.42c11.17-6.56 18.74-18.23 19.27-31.35zm-42.73-210.24a73.46 73.46 0 1 1 103.89 0 73.46 73.46 0 0 1 -103.89 0z"></path>
  </g>
</svg>
