<svg xmlns="http://www.w3.org/2000/svg" version="1.1"
  xmlns:xlink="http://www.w3.org/1999/xlink"
  xmlns:svgjs="http://svgjs.com/svgjs" viewBox="0 0 511.999 511.999" style="enable-background:new 0 0 512 512" xml:space="preserve">
  <g>
    <g xmlns="http://www.w3.org/2000/svg">
      <g>
        <path d="M278.665,0C124.656,0,0,124.635,0,278.665c0,8.292,6.722,15.014,15.014,15.014h263.651    c8.292,0,15.014-6.722,15.014-15.014V15.014C293.679,6.722,286.957,0,278.665,0z"></path>
      </g>
    </g>
    <g xmlns="http://www.w3.org/2000/svg">
      <g>
        <path d="M171.846,337.086c-2.634-4.81-7.683-7.8-13.167-7.8H69.885c-4.779,0-9.274,2.275-12.102,6.129    c-2.829,3.854-3.653,8.822-2.222,13.382c28.279,90.069,109.845,157.033,208.09,163.202v-112.54    C225.117,394.677,190.806,371.7,171.846,337.086z"></path>
      </g>
    </g>
    <g xmlns="http://www.w3.org/2000/svg">
      <g>
        <path d="M348.797,55.562c-4.559-1.43-9.53-0.605-13.382,2.222c-3.854,2.829-6.129,7.323-6.129,12.103v88.793    c0,5.483,2.991,10.531,7.8,13.166c34.612,18.962,57.59,53.272,62.372,91.805h112.541    C505.815,165.193,438.653,83.775,348.797,55.562z"></path>
      </g>
    </g>
    <g xmlns="http://www.w3.org/2000/svg">
      <g>
        <path d="M399.477,293.678c-6.811,55.148-50.65,98.987-105.798,105.798v112.512c117.153-7.374,210.925-100.997,218.309-218.31    H399.477z"></path>
      </g>
    </g>
    <g xmlns="http://www.w3.org/2000/svg">
    </g>
    <g xmlns="http://www.w3.org/2000/svg">
    </g>
    <g xmlns="http://www.w3.org/2000/svg">
    </g>
    <g xmlns="http://www.w3.org/2000/svg">
    </g>
    <g xmlns="http://www.w3.org/2000/svg">
    </g>
    <g xmlns="http://www.w3.org/2000/svg">
    </g>
    <g xmlns="http://www.w3.org/2000/svg">
    </g>
    <g xmlns="http://www.w3.org/2000/svg">
    </g>
    <g xmlns="http://www.w3.org/2000/svg">
    </g>
    <g xmlns="http://www.w3.org/2000/svg">
    </g>
    <g xmlns="http://www.w3.org/2000/svg">
    </g>
    <g xmlns="http://www.w3.org/2000/svg">
    </g>
    <g xmlns="http://www.w3.org/2000/svg">
    </g>
    <g xmlns="http://www.w3.org/2000/svg">
    </g>
    <g xmlns="http://www.w3.org/2000/svg">
    </g>
  </g>
</svg>
