<svg xmlns="http://www.w3.org/2000/svg" version="1.1"
  xmlns:xlink="http://www.w3.org/1999/xlink"
  xmlns:svgjs="http://svgjs.com/svgjs" viewBox="0 0 512 512" style="enable-background:new 0 0 512 512" xml:space="preserve">
  <g>
    <g xmlns="http://www.w3.org/2000/svg">
      <path d="m481.9 210c-16.2-110.3-111.2-195.3-225.9-195.3s-209.7 85-225.9 195.4c-17 13.9-28.1 34.9-28.1 58.6 0 31.6 19.2 58.7 46.6 70.2 29.9 64.6 89.3 112.6 160.7 127.6 7.8 18.1 25.7 30.8 46.7 30.8 28.1 0 50.8-22.7 50.8-50.8s-22.7-50.8-50.8-50.8c-16.7 0-31.3 8.1-40.6 20.5-78.5-18.4-137.2-88.9-137.2-172.9v-.1c0-75.5 46.9-144.8 118.7-168.2 122.9-40 236.9 51 236.9 168.2v90.6c0 6.4 5.9 11.1 12.2 10.1 36.3-5.8 64-37.3 64-75.2 0-23.7-11.1-44.7-28.1-58.7z"></path>
      <circle cx="179.8" cy="167.1" r="25.4"></circle>
      <circle cx="332.2" cy="167.1" r="25.4"></circle>
      <path d="m309.9 271.8c-29.7 29.7-78.1 29.7-107.8 0-9.9-9.9-26-9.9-35.9 0s-9.9 26 0 35.9c24.8 24.8 57.3 37.1 89.8 37.1s65-12.4 89.8-37.1c9.9-9.9 9.9-26 0-35.9s-26-9.9-35.9 0z"></path>
    </g>
  </g>
</svg>
