<svg xmlns="http://www.w3.org/2000/svg" version="1.1"
  xmlns:xlink="http://www.w3.org/1999/xlink"
  xmlns:svgjs="http://svgjs.com/svgjs" viewBox="0 0 24 24" style="enable-background:new 0 0 512 512" xml:space="preserve">
  <g>
    <g xmlns="http://www.w3.org/2000/svg" id="Icon">
      <path d="m22.635 20.5c0-.966-.784-1.75-1.75-1.75h-8c-.967 0-1.75.784-1.75 1.75v1.5c0 .414.335.75.75.75h10c.414 0 .75-.336.75-.75z"></path>
      <path d="m6.191 7.29c.296.357.723.582 1.185.625.462.042.922-.1 1.279-.396 1.018-.846 2.803-2.327 3.821-3.173.744-.617.846-1.72.229-2.464-.297-.357-.723-.582-1.185-.625-.462-.042-.922.1-1.28.397-1.018.845-2.802 2.326-3.82 3.172-.744.617-.846 1.72-.229 2.464z"></path>
      <path d="m13.217 15.753c.297.357.723.582 1.185.625s.923-.1 1.28-.396c1.018-.845 2.802-2.327 3.821-3.172.743-.617.845-1.721.228-2.464-.296-.357-.723-.582-1.185-.625s-.922.1-1.279.396c-1.018.845-2.803 2.327-3.821 3.172-.744.617-.846 1.721-.229 2.464z"></path>
      <path d="m7.777 10.522-6.083 5.05c-.531.441-.604 1.229-.163 1.76l.958 1.154c.441.531 1.229.605 1.76.164l6.092-5.058c-1.026-.881-1.883-1.902-2.564-3.07z"></path>
      <path d="m13.917 4.01c-.164.417-.433.799-.802 1.106-1.018.845-2.803 2.327-3.821 3.172-.36.299-.786.498-1.237.585.868 1.954 2.195 3.526 3.953 4.742.164-.413.431-.792.797-1.095 1.018-.846 2.803-2.327 3.821-3.172.357-.297.779-.495 1.226-.583-.871-1.951-2.177-3.542-3.937-4.755z"></path>
    </g>
  </g>
</svg>
