<svg xmlns="http://www.w3.org/2000/svg" version="1.1"
  xmlns:xlink="http://www.w3.org/1999/xlink"
  xmlns:svgjs="http://svgjs.com/svgjs" viewBox="0 0 520 520" style="enable-background:new 0 0 512 512" xml:space="preserve" class="">
  <g>
    <g xmlns="http://www.w3.org/2000/svg" id="_x37_22_x2C__Reward_x2C__Success_x2C__Winner_x2C__Star">
      <g>
        <g>
          <path d="m240.439 280.049-10.273 31.616 26.895-19.54c1.752-1.273 4.125-1.273 5.877 0l26.895 19.54-10.271-31.616c-.67-2.06.063-4.316 1.816-5.59l26.895-19.541h-33.244c-2.166 0-4.086-1.395-4.755-3.455l-10.274-31.616-10.273 31.617c-.669 2.06-2.589 3.455-4.755 3.455h-33.244l26.895 19.541c1.752 1.272 2.486 3.529 1.816 5.589z"></path>
          <path d="m135 272.5c0 68.925 56.075 125 125 125s125-56.075 125-125-56.075-125-125-125-125 56.075-125 125zm125-105c57.897 0 105 47.103 105 105s-47.103 105-105 105-105-47.103-105-105c0-2.762 2.239-5 5-5s5 2.238 5 5c0 52.383 42.617 95 95 95s95-42.617 95-95-42.617-95-95-95c-2.762 0-5-2.239-5-5s2.238-5 5-5zm-68.416 80.874c.669-2.06 2.589-3.455 4.755-3.455h44.999l13.906-42.797c.669-2.06 2.589-3.455 4.755-3.455s4.086 1.395 4.755 3.455l13.906 42.797h44.999c2.166 0 4.086 1.395 4.755 3.455.67 2.06-.063 4.317-1.815 5.59l-36.405 26.451 13.904 42.796c.67 2.06-.063 4.316-1.816 5.59-1.752 1.273-4.125 1.273-5.877 0l-36.405-26.45-36.405 26.449c-1.752 1.273-4.125 1.273-5.878 0-1.752-1.273-2.486-3.53-1.816-5.59l13.906-42.796-36.405-26.451c-1.754-1.273-2.487-3.529-1.818-5.589z"></path>
          <path d="m337.398 119.934c10.299 9.397 22.681 14.879 35.088 15.701 8.931 6.85 17.248 14.512 24.771 22.833.987 1.092 2.346 1.647 3.711 1.647 4.299 0 6.614-5.137 3.707-8.353-8.061-8.917-16.984-17.114-26.574-24.423-3.519-14.343-11.145-27.491-21.882-37.272-12.289-11.212-27.542-16.882-42.269-15.666 2.281 17.505 10.675 33.896 23.448 45.533z"></path>
          <path d="m452.5 100c13.785 0 25-11.215 25-25s-11.215-25-25-25-25 11.215-25 25 11.215 25 25 25z"></path>
          <path d="m65 447.5c-8.271 0-15 6.729-15 15s6.729 15 15 15 15-6.729 15-15-6.729-15-15-15z"></path>
          <circle cx="477.5" cy="155" r="7.5"></circle>
          <circle cx="382.5" cy="55" r="7.5"></circle>
          <circle cx="137.5" cy="45" r="7.5"></circle>
          <circle cx="52.5" cy="125" r="7.5"></circle>
          <circle cx="127.5" cy="470" r="7.5"></circle>
          <circle cx="472.5" cy="410" r="7.5"></circle>
          <circle cx="407.5" cy="470" r="7.5"></circle>
          <path d="m403.597 169.879c-1.293 18.853 4.918 37.597 19.055 49.392.128-.168.245-.344.371-.514-.582-1.489-1.177-2.972-1.799-4.44-4.232-9.997 3.288-21.092 14.123-20.839 6.399-23.33 1.254-49.056-16.576-63.938-3.256 4.307-6.013 8.949-8.271 13.8.53.573 1.07 1.138 1.594 1.717 7.896 8.734 3.05 22.768-8.497 24.822z"></path>
          <path d="m460.228 238.401c.858 3.914.143 7.927-2.017 11.302-2.888 4.512-7.733 6.915-12.64 6.915-1.312 0-2.593-.175-3.821-.503-5.953 11.037-8.256 22.938-6.631 34.177 2.749-10.693 15.844-14.94 24.326-7.59 20.508-14.3 33.348-38.686 28.16-62.255-10.355 2.803-19.996 7.801-28.184 14.478.276 1.157.552 2.314.807 3.476z"></path>
          <path d="m60.554 282.69c8.452-7.334 21.576-3.121 24.33 7.589 1.628-11.248-.675-23.147-6.631-34.171-10.619 2.846-20.91-6.627-18.479-17.711.255-1.164.53-2.323.806-3.482-8.183-6.673-17.824-11.668-28.185-14.468-5.218 23.736 7.803 48.041 28.159 62.243z"></path>
          <path d="m98.776 214.317c-.622 1.468-1.217 2.951-1.799 4.44.126.169.244.345.371.513 14.188-11.836 20.344-30.609 19.057-49.397-11.541-2.054-16.391-16.089-8.493-24.823.524-.579 1.064-1.144 1.595-1.718-2.258-4.851-5.015-9.489-8.271-13.792-17.728 14.817-22.999 40.496-16.577 63.937 10.933-.207 18.339 10.879 14.117 20.84z"></path>
          <path d="m395.933 416.07c-2.842-2.386-4.65-5.67-5.18-9.313-18.995-1.92-38.479 3.848-50.838 18.17 3.445 2.69 7.128 5.065 10.976 7.119 1.225-.746 2.453-1.487 3.662-2.265 9.297-5.984 21.59-.181 22.982 10.695 19.463 2.327 39.55-3.388 52.156-18.022-3.983-3.11-8.28-5.804-12.785-8.059-5.383 6.221-14.717 6.93-20.973 1.675z"></path>
          <path d="m490.674 329.823c-9.883-2.646-20.296-3.293-30.789-1.733-.152.668-.296 1.34-.454 2.006-1.613 6.788-7.612 11.53-14.589 11.53-3.958 0-7.862-1.563-10.756-4.552-12.296 7.264-21.141 17.898-25.059 30.163 1.199.32 2.408.602 3.622.863 6.944-12.376 22.712-10.104 27.291.856 23.432-3.512 43.986-17.924 50.734-39.133z"></path>
          <path d="m165.441 429.778c1.212.78 2.444 1.522 3.672 2.271 3.85-2.053 7.531-4.435 10.976-7.124-12.394-14.387-31.96-20.087-50.837-18.17-1.097 7.563-7.564 12.832-14.823 12.832-4.363 0-8.472-1.89-11.325-5.178-4.508 2.252-8.811 4.936-12.794 8.046 12.565 14.586 32.599 20.362 52.155 18.01.965-7.467 7.29-13.068 14.871-13.068 2.878-.001 5.681.824 8.105 2.381z"></path>
          <path d="m106.982 367.459c.12.215.247.427.367.642 1.214-.261 2.423-.542 3.623-.863-3.919-12.269-12.768-22.905-25.071-30.17-8.166 8.426-22.572 4.629-25.333-6.972-.159-.667-.302-1.339-.455-2.008-10.747-1.594-21.148-.842-30.782 1.735 6.896 21.588 27.798 35.689 50.729 39.134 2.389-5.712 7.901-9.206 13.81-9.206 5.443 0 10.468 2.954 13.112 7.708z"></path>
          <path d="m446.648 246.501c2.697-.592 4.403-3.258 3.812-5.956-2.563-11.678-6.203-23.127-10.819-34.027-1.077-2.544-4.012-3.732-6.555-2.654-2.542 1.077-3.73 4.011-2.654 6.554 4.377 10.335 7.829 21.193 10.261 32.271.59 2.691 3.25 4.404 5.955 3.812z"></path>
          <path d="m444.651 293.723c-.642 10.709-2.215 21.39-4.678 31.745-.745 3.135 1.63 6.158 4.868 6.158 2.263 0 4.314-1.547 4.86-3.844 2.597-10.919 4.256-22.177 4.932-33.462.165-2.757-1.936-5.125-4.692-5.29-2.746-.153-5.125 1.937-5.29 4.693z"></path>
          <path d="m70.059 289.023c-2.756.165-4.857 2.533-4.693 5.29.675 11.294 2.334 22.554 4.931 33.467.547 2.298 2.598 3.844 4.86 3.844 3.235 0 5.615-3.021 4.869-6.158-2.463-10.351-4.037-21.033-4.677-31.75-.166-2.756-2.538-4.856-5.29-4.693z"></path>
          <path d="m428.557 370.383c-2.415-1.345-5.459-.475-6.801 1.938-5.712 10.264-12.443 20.037-20.008 29.048-1.775 2.115-1.501 5.269.614 7.044 2.114 1.774 5.269 1.502 7.044-.614 7.973-9.496 15.067-19.797 21.088-30.614 1.343-2.414.476-5.459-1.937-6.802z"></path>
          <path d="m117.642 408.416c2.115-1.775 2.39-4.929.615-7.044-7.565-9.011-14.298-18.785-20.013-29.052-1.342-2.412-4.387-3.28-6.8-1.938-2.413 1.344-3.28 4.388-1.937 6.801 6.022 10.82 13.119 21.122 21.091 30.618 1.781 2.122 4.936 2.386 7.044.615z"></path>
          <path d="m74.431 246.612c2.297 0 4.366-1.593 4.879-3.93 2.429-11.071 5.881-21.927 10.259-32.266 1.077-2.542-.111-5.477-2.654-6.554-2.544-1.077-5.477.111-6.554 2.654-4.618 10.904-8.258 22.351-10.819 34.022-.686 3.127 1.698 6.074 4.889 6.074z"></path>
          <path d="m122.748 158.463c7.522-8.32 15.838-15.979 24.766-22.828 27.571-1.823 54.047-26.934 58.553-61.235-27.514-2.268-56.004 19.717-64.166 52.936-9.588 7.309-18.511 15.506-26.571 24.42-1.852 2.048-1.693 5.21.355 7.063 2.059 1.86 5.218 1.683 7.063-.356z"></path>
          <path d="m359.964 438.191c-60.744 39.084-139.163 39.096-199.927 0-2.323-1.492-5.417-.821-6.911 1.5-1.494 2.322-.823 5.416 1.5 6.91 64.04 41.202 146.687 41.219 210.749 0 2.322-1.494 2.994-4.588 1.5-6.91-1.495-2.321-4.588-2.995-6.911-1.5z"></path>
        </g>
      </g>
    </g>
  </g>
</svg>
