<svg xmlns="http://www.w3.org/2000/svg" version="1.1"
  xmlns:xlink="http://www.w3.org/1999/xlink"
  xmlns:svgjs="http://svgjs.com/svgjs" viewBox="0 0 128 128" style="enable-background:new 0 0 512 512" xml:space="preserve">
  <g>
    <g xmlns="http://www.w3.org/2000/svg" id="Glyph">
      <g id="Glyph-2" data-name="Glyph">
        <path d="m116.72 88.653c6.339-.947 9.535-7.572 9.667-7.857 2.273-4.918 1.216-10.8-1.7-15.233a4.529 4.529 0 0 0 -7.7.208c-3.655 6.387-15.742 12.434-21.623 14.739a24.111 24.111 0 0 0 -3.986 1.99 1.511 1.511 0 0 0 .175 2.638c10.835 4.924 18.914 11.406 24.013 19.268a1.5 1.5 0 0 0 1.828.572c3.729-1.461 6.078-3.3 7.237-6.4a.5.5 0 0 0 -.754-.579 12.986 12.986 0 0 1 -4.506 2.064 1.5 1.5 0 1 1 -.662-2.925 11.989 11.989 0 0 0 8.83-10.989.5.5 0 0 0 -.885-.347 15.356 15.356 0 0 1 -9.686 5.841 1.5 1.5 0 0 1 -1.7-1.542 1.617 1.617 0 0 1 1.452-1.448z"></path>
        <path d="m11.013 65.771a4.529 4.529 0 0 0 -7.7-.208c-2.913 4.437-3.973 10.315-1.7 15.237.132.285 3.328 6.91 9.667 7.857a1.617 1.617 0 0 1 1.449 1.452 1.5 1.5 0 0 1 -1.7 1.542 15.356 15.356 0 0 1 -9.686-5.841.5.5 0 0 0 -.885.347 11.989 11.989 0 0 0 8.83 10.989 1.5 1.5 0 1 1 -.662 2.925 12.986 12.986 0 0 1 -4.503-2.071.5.5 0 0 0 -.754.579c1.159 3.093 3.508 4.936 7.237 6.4a1.5 1.5 0 0 0 1.828-.572c5.1-7.862 13.178-14.344 24.013-19.268a1.511 1.511 0 0 0 .175-2.638 24.111 24.111 0 0 0 -3.986-1.991c-5.881-2.305-17.968-8.352-21.623-14.739z"></path>
        <path d="m61.065 55.939a1.5 1.5 0 1 0 -2.121 2.122 6.708 6.708 0 0 0 10.121 0 1.5 1.5 0 1 0 -2.121-2.122c-1.923 1.922-3.956 1.922-5.879 0z"></path>
        <path d="m59.065 47.939a1.5 1.5 0 0 0 -2.121 0c-1.923 1.922-3.956 1.922-5.879 0a1.5 1.5 0 1 0 -2.121 2.122 6.708 6.708 0 0 0 10.121 0 1.5 1.5 0 0 0 0-2.122z"></path>
        <path d="m74 52.366a7.167 7.167 0 0 0 5.061-2.3 1.5 1.5 0 1 0 -2.121-2.122c-1.923 1.922-3.956 1.922-5.879 0a1.5 1.5 0 0 0 -2.121 2.122 7.167 7.167 0 0 0 5.06 2.3z"></path>
        <path d="m64 0a33.033 33.033 0 0 0 -33 33v15.89c-.18 1.21-1.96 13.09-3.61 21.9a4.478 4.478 0 0 0 3.37 5.19 148.947 148.947 0 0 0 20.44 3.4 6.886 6.886 0 0 1 -4.78 5.08c-21.1 7.03-33.79 19.03-36.7 34.69a7.553 7.553 0 0 0 7.39 8.85h93.78a7.552 7.552 0 0 0 7.39-8.85c-2.91-15.66-15.6-27.66-36.7-34.69a6.914 6.914 0 0 1 -4.79-5.08 149.337 149.337 0 0 0 20.45-3.4 4.478 4.478 0 0 0 3.37-5.19c-1.65-8.81-3.43-20.69-3.61-21.9v-15.89a33.033 33.033 0 0 0 -33-33zm-30 48.95a7.069 7.069 0 0 1 5-6.65v11.33c0 .7.04 1.4.1 2.09a7.071 7.071 0 0 1 -5.1-6.77zm-4.5 76.05h-3v-7a1.5 1.5 0 0 1 3 0zm69-7a1.5 1.5 0 0 1 3 0v7h-3zm-18.525-30.944c1.017.394 2.071.727 3.074 1.108-2.983 3.465-8.029 5.947-13.8 6.9a13.5 13.5 0 1 1 -10.495 0c-5.668-.958-10.539-3.446-13.5-7 .993-.379 2.049-.7 3.042-1.1 3.418 3.449 9.222 5.536 15.704 5.536 6.5 0 12.506-2.09 15.975-5.444zm-27.255-3.786a13.83 13.83 0 0 0 1.96-6.34 24.773 24.773 0 0 0 18.64 0 13.641 13.641 0 0 0 2.03 6.44 21.647 21.647 0 0 1 -11.35 3.13 20.724 20.724 0 0 1 -11.28-3.23zm33.28-29.64a22 22 0 1 1 -44 0v-11.67c8.96-.36 16.85-3.92 20.83-9.48a1.511 1.511 0 0 1 2.34 0c3.98 5.56 11.88 9.12 20.83 9.48zm2.91 2.09c.06-.69.09-1.39.09-2.09v-11.32a6.978 6.978 0 0 1 -.09 13.41z"></path>
      </g>
    </g>
  </g>
</svg>
