<svg xmlns="http://www.w3.org/2000/svg" version="1.1"
  xmlns:xlink="http://www.w3.org/1999/xlink"
  xmlns:svgjs="http://svgjs.com/svgjs" viewBox="0 0 128 128" style="enable-background:new 0 0 512 512" xml:space="preserve">
  <g>
    <g xmlns="http://www.w3.org/2000/svg" id="Glyph">
      <g id="Glyph-2" data-name="Glyph">
        <path d="m113.23 52.75a3.523 3.523 0 0 0 6.54 0 17.6 17.6 0 0 1 6.61-8.91 3.537 3.537 0 0 0 0-5.68 17.6 17.6 0 0 1 -6.61-8.91 3.523 3.523 0 0 0 -6.54 0 17.6 17.6 0 0 1 -6.61 8.91 3.537 3.537 0 0 0 0 5.68 17.6 17.6 0 0 1 6.61 8.91z"></path>
        <path d="m7.26 69.42a3.513 3.513 0 0 0 6.48 0 15.7 15.7 0 0 1 5.67-7.59 3.515 3.515 0 0 0 0-5.66 15.7 15.7 0 0 1 -5.67-7.59 3.513 3.513 0 0 0 -6.48 0 15.7 15.7 0 0 1 -5.67 7.59 3.534 3.534 0 0 0 0 5.66 15.7 15.7 0 0 1 5.67 7.59z"></path>
        <path d="m55 40a4.507 4.507 0 0 0 -4.5 4.5v5.85a40.063 40.063 0 0 0 -26.41 40.35c1.33 20.83 19.08 37.15 39.95 37.3 21.54.16 40.13-18.46 39.96-40a40.093 40.093 0 0 0 -26.5-37.65v-5.85a4.507 4.507 0 0 0 -4.5-4.5h-7.5v-10.17a40.19 40.19 0 0 0 14.64 3.25c8.84 0 15.67-4.25 15.51-9.88-.23-7.74-8.29-9.99-16.35-9.05-6.16.72-11.71 6.45-14.56 9.9-1.75-6.71-6.87-21.62-17.84-23.29-10.05-1.53-20.31 3.6-20.25 13.73a14.181 14.181 0 0 0 4.94 11.24c7.49 6.36 22.34 4.95 30.91 3.53v10.74zm13.91-16.13a19.575 19.575 0 0 1 5.68-1.12 1.5 1.5 0 0 1 0 3 21.144 21.144 0 0 0 -6.86 1.74c-.53-.21-1.01-.41-1.42-.58.63-.81 1.52-1.89 2.6-3.04zm-8.17 2.62c-3.77-3.49-7.75-6.66-10.89-7.29a1.5 1.5 0 0 1 .59-2.94c3.39.68 7.14 3.38 10.87 6.69.4 1.33.69 2.48.89 3.32-.45.07-.94.14-1.46.22zm4.76 16.51v45.693c5.7 4.824 18.9 10.885 35.3 3.109a37.155 37.155 0 0 1 -11.563 23.253 37 37 0 0 1 -62.154-24.549 37.572 37.572 0 0 1 -.047-3.881c15.047-12.807 29.864-5.344 35.464-.725v-42.9z"></path>
      </g>
    </g>
  </g>
</svg>
