<svg xmlns="http://www.w3.org/2000/svg" version="1.1"
  xmlns:xlink="http://www.w3.org/1999/xlink"
  xmlns:svgjs="http://svgjs.com/svgjs" viewBox="0 0 512 512" style="enable-background:new 0 0 512 512" xml:space="preserve">
  <g>
    <g xmlns="http://www.w3.org/2000/svg" id="Glyph-2" data-name="Glyph">
      <rect x="135.27" y="189.09" width="66.91" height="66.91" rx="8"></rect>
      <rect x="222.55" y="189.09" width="66.91" height="66.91" rx="8"></rect>
      <rect x="309.82" y="189.09" width="66.91" height="66.91" rx="8"></rect>
      <rect x="397.09" y="189.09" width="66.91" height="66.91" rx="8"></rect>
      <rect x="48" y="277.09" width="66.91" height="66.91" rx="8"></rect>
      <rect x="135.27" y="277.09" width="66.91" height="66.91" rx="8"></rect>
      <rect x="222.55" y="277.09" width="66.91" height="66.91" rx="8"></rect>
      <rect x="309.82" y="277.09" width="66.91" height="66.91" rx="8"></rect>
      <rect x="397.09" y="277.09" width="66.91" height="66.91" rx="8"></rect>
      <rect x="48" y="365.09" width="66.91" height="66.91" rx="8"></rect>
      <rect x="135.27" y="365.09" width="66.91" height="66.91" rx="8"></rect>
      <rect x="222.55" y="365.09" width="66.91" height="66.91" rx="8"></rect>
      <path d="M440,56H388V44.8c.33-15.46-13.27-29.12-28.72-28.8a28.83,28.83,0,0,0-28.8,28.8V56h-149V44.8c.33-15.46-13.27-29.12-28.72-28.8A28.83,28.83,0,0,0,124,44.8V56H72a56.06,56.06,0,0,0-56,56V455.41A40.64,40.64,0,0,0,56.59,496H455.41A40.64,40.64,0,0,0,496,455.41V112A56.06,56.06,0,0,0,440,56Zm-80.72,61.6A28.7,28.7,0,0,0,386.67,97h1.17A11.17,11.17,0,0,1,399,108.16v6.48a11.17,11.17,0,0,1-11.12,11.2h-57.2a11.17,11.17,0,0,1-11.12-11.2v-6.48A11.17,11.17,0,0,1,330.64,97h1.16A28.8,28.8,0,0,0,359.28,117.6ZM180.19,97h1.17a11.17,11.17,0,0,1,11.12,11.2v6.48a11.17,11.17,0,0,1-11.12,11.2h-57.2A11.17,11.17,0,0,1,113,114.64v-6.48A11.17,11.17,0,0,1,124.16,97h1.16a28.55,28.55,0,0,0,54.87,0ZM480,378.85l-63.37-.56a7.79,7.79,0,0,0-5.68,2.3,8,8,0,0,0-2.39,5.63l-.5,61.74L32,447.42V170.86H480Zm-55.85,58.22.35-42.71,43.78.39ZM346.48,44.8a12.76,12.76,0,1,1,25.52,0V88.91a12.76,12.76,0,0,1-25.52,0ZM140,44.8a12.76,12.76,0,1,1,25.52,0V88.91A12.76,12.76,0,0,1,140,89Z"></path>
    </g>
  </g>
</svg>
