<svg xmlns="http://www.w3.org/2000/svg" version="1.1"
  xmlns:xlink="http://www.w3.org/1999/xlink"
  xmlns:svgjs="http://svgjs.com/svgjs" viewBox="0 0 128 128" style="enable-background:new 0 0 512 512" xml:space="preserve">
  <g>
    <g xmlns="http://www.w3.org/2000/svg" id="Glyph">
      <g id="Glyph-2" data-name="Glyph">
        <path d="m17.623 96.518a1.509 1.509 0 0 0 -2.291-.2l-7.365 7.367a4.5 4.5 0 0 0 2.561 7.655l9.826 1.307a1.486 1.486 0 0 1 1.276 1.276l1.308 9.827a4.5 4.5 0 0 0 7.656 2.562l7.143-7.143a1.51 1.51 0 0 0 -.166-2.265 88.627 88.627 0 0 1 -19.948-20.386z"></path>
        <path d="m121.127 108.331a4.5 4.5 0 0 0 -1.094-4.65l-7.365-7.367a1.511 1.511 0 0 0 -2.291.2 88.628 88.628 0 0 1 -19.948 20.386 1.51 1.51 0 0 0 -.165 2.265l7.142 7.143a4.5 4.5 0 0 0 7.656-2.562l1.308-9.828a1.484 1.484 0 0 1 1.276-1.274l9.826-1.308a4.458 4.458 0 0 0 3.655-3.005z"></path>
        <path d="m66.917 126.889c23.556-10.157 40.065-25.827 49.071-46.578 6.636-15.291 9.277-33.151 8.072-54.6a7.517 7.517 0 0 0 -8.763-6.941c-21.526 3.912-40.497-10.499-47.645-16.877a5.49 5.49 0 0 0 -7.3 0c-7.152 6.378-26.114 20.79-47.652 16.876a7.516 7.516 0 0 0 -8.759 6.941c-1.2 21.45 1.435 39.311 8.071 54.6 9.006 20.751 25.516 36.421 49.071 46.579a7.4 7.4 0 0 0 5.834 0zm-50.217-94.566c1.126.07 2.257.1 3.377.1 19.125 0 35.4-10.138 43.928-16.7 8.527 6.56 24.806 16.7 43.931 16.7 1.125 0 2.255-.036 3.373-.106.822 40.583-14.241 66.566-47.309 81.646-33.067-15.08-48.13-41.063-47.3-81.64z"></path>
        <path d="m71.84 94.64.06-1.75a30.329 30.329 0 0 0 6.94-2.87l1.28 1.19a3.979 3.979 0 0 0 5.56-.1l5.43-5.43a3.979 3.979 0 0 0 .1-5.56l-1.2-1.28a29.844 29.844 0 0 0 2.88-6.94l1.75-.06a3.984 3.984 0 0 0 3.86-4v-7.68a3.984 3.984 0 0 0 -3.86-4l-1.75-.06a30.329 30.329 0 0 0 -2.87-6.94l1.19-1.28a3.979 3.979 0 0 0 -.1-5.56l-5.43-5.43a3.979 3.979 0 0 0 -5.56-.1l-1.28 1.2a29.666 29.666 0 0 0 -6.94-2.88l-.06-1.75a3.984 3.984 0 0 0 -4-3.86h-7.68a3.984 3.984 0 0 0 -4 3.86l-.06 1.75a30.329 30.329 0 0 0 -6.94 2.87l-1.28-1.19a3.989 3.989 0 0 0 -5.56.1l-5.43 5.43a3.979 3.979 0 0 0 -.1 5.56l1.2 1.28a29.666 29.666 0 0 0 -2.88 6.94l-1.75.06a3.984 3.984 0 0 0 -3.86 4v7.68a3.984 3.984 0 0 0 3.86 4l1.75.06a30.145 30.145 0 0 0 2.87 6.94l-1.19 1.28a3.979 3.979 0 0 0 .1 5.56l5.43 5.43a3.979 3.979 0 0 0 5.56.1l1.28-1.2a29.844 29.844 0 0 0 6.94 2.88l.06 1.75a3.984 3.984 0 0 0 4 3.86h7.68a3.984 3.984 0 0 0 4-3.86zm-26.91-30.64a19.07 19.07 0 1 1 19.07 19.07 19.085 19.085 0 0 1 -19.07-19.07z"></path>
        <path d="m77.82 53.98a5.453 5.453 0 0 0 -7.65-.21l-9.48 8.99-2.76-2.76a5.4 5.4 0 0 0 -7.64 7.64l6.48 6.48a5.382 5.382 0 0 0 7.54.11l13.3-12.61a5.422 5.422 0 0 0 .21-7.64z"></path>
      </g>
    </g>
  </g>
</svg>
