<svg xmlns="http://www.w3.org/2000/svg" version="1.1"
  xmlns:xlink="http://www.w3.org/1999/xlink"
  xmlns:svgjs="http://svgjs.com/svgjs" viewBox="0 0 128 128" style="enable-background:new 0 0 512 512" xml:space="preserve">
  <g>
    <g xmlns="http://www.w3.org/2000/svg" id="Glyph-2" data-name="Glyph">
      <path d="m60.55 45.71a7.417 7.417 0 0 0 7.11 0c15.3-8.29 22.88-18.56 22.54-30.5a15.158 15.158 0 0 0 -15.32-14.96 15.4 15.4 0 0 0 -10.78 4.33 15.4 15.4 0 0 0 -10.78-4.33 15.148 15.148 0 0 0 -15.31 14.92c-.35 11.98 7.23 22.25 22.54 30.54z"></path>
      <circle cx="32" cy="52.5" r="13.5"></circle>
      <circle cx="96" cy="52.5" r="13.5"></circle>
      <path d="m14.671 68.9a26.747 26.747 0 0 0 -6.406 4.779 6.413 6.413 0 0 0 -.182 8.821 9.495 9.495 0 0 0 15.173-11.2 6.449 6.449 0 0 0 -8.585-2.4z"></path>
      <path d="m111.543 85.391a9.552 9.552 0 0 0 8.374-2.887 6.413 6.413 0 0 0 -.182-8.829 26.727 26.727 0 0 0 -6.406-4.779 6.449 6.449 0 0 0 -8.586 2.41 9.5 9.5 0 0 0 6.8 14.085z"></path>
      <path d="m79.677 69.44a.5.5 0 0 0 -.221-.94h-48.456c-1.129.072-2.231.122-3.416.281a1.51 1.51 0 0 0 -1.182 2.1c5.279 12.06-9.122 23.062-19.358 14.728a1.51 1.51 0 0 0 -2.309.514 51.558 51.558 0 0 0 -4.635 21.377c-.245 11.4 10.375 20.721 21.67 20.5h32.319a1.479 1.479 0 0 0 1.223-.622 11.24 11.24 0 0 0 1.737-9.674 7.431 7.431 0 0 0 -7.139-5.2h-27.23a6.48 6.48 0 0 1 -6.473-6.027 38.4 38.4 0 0 1 .267-8.1 1.5 1.5 0 1 1 2.968.438 35.284 35.284 0 0 0 -.241 7.468 3.475 3.475 0 0 0 3.479 3.217h27.23a10.446 10.446 0 0 1 10.015 7.352 13.817 13.817 0 0 1 -.988 10.26.5.5 0 0 0 .527.73 7.489 7.489 0 0 0 2.289-.867 1.509 1.509 0 0 0 .747-1.3v-37.25a1.549 1.549 0 0 0 -.146-.659 33.247 33.247 0 0 0 -7.322-10.023 1.5 1.5 0 0 1 2.056-2.185 36.549 36.549 0 0 1 6.491 8.1.487.487 0 0 0 .848 0 37.181 37.181 0 0 1 15.25-14.218z"></path>
      <path d="m120.964 85.614c-10.277 8.338-24.649-2.688-19.358-14.755a1.509 1.509 0 0 0 -1.178-2.107 34.147 34.147 0 0 0 -34.788 19.034 1.545 1.545 0 0 0 -.14.646v37.238a1.51 1.51 0 0 0 .747 1.3 7.5 7.5 0 0 0 2.26.861.508.508 0 0 0 .555-.718 13.826 13.826 0 0 1 -.988-10.265 10.448 10.448 0 0 1 10.016-7.348h27.23a3.474 3.474 0 0 0 3.479-3.221 35.306 35.306 0 0 0 -.241-7.471 1.5 1.5 0 1 1 2.968-.438 38.359 38.359 0 0 1 .267 8.106 6.481 6.481 0 0 1 -6.473 6.024h-27.23a7.431 7.431 0 0 0 -7.139 5.2 11.223 11.223 0 0 0 1.736 9.674 1.476 1.476 0 0 0 1.221.621h32.321c11.294.224 21.914-9.094 21.671-20.493a51.66 51.66 0 0 0 -4.625-21.379 1.509 1.509 0 0 0 -2.311-.509z"></path>
    </g>
  </g>
</svg>
