<svg xmlns="http://www.w3.org/2000/svg" version="1.1"
  xmlns:xlink="http://www.w3.org/1999/xlink"
  xmlns:svgjs="http://svgjs.com/svgjs" viewBox="0 0 128 128" style="enable-background:new 0 0 512 512" xml:space="preserve">
  <g>
    <g xmlns="http://www.w3.org/2000/svg" id="Glyph-2" data-name="Glyph">
      <circle cx="64" cy="76" r="13.5"></circle>
      <circle cx="103" cy="82.5" r="12"></circle>
      <circle cx="25" cy="82.5" r="12"></circle>
      <path d="m.715 121.187a23.213 23.213 0 0 0 .185 2.879 4.51 4.51 0 0 0 4.469 3.934h26.756a1.51 1.51 0 0 0 1.411-2.008 7.5 7.5 0 0 1 -.374-1.479 29.857 29.857 0 0 1 -.3-4.185 30.9 30.9 0 0 1 5.595-17.775 1.51 1.51 0 0 0 -.439-2.133 24.431 24.431 0 0 0 -37.3 20.767z"></path>
      <path d="m127.249 124.066a22.985 22.985 0 0 0 .183-2.879 24.428 24.428 0 0 0 -37.41-20.7 1.51 1.51 0 0 0 -.434 2.126 30.914 30.914 0 0 1 5.551 17.713 29.745 29.745 0 0 1 -.3 4.183 7.407 7.407 0 0 1 -.375 1.48 1.511 1.511 0 0 0 1.411 2.011h26.9a4.509 4.509 0 0 0 4.474-3.934z"></path>
      <path d="m35.862 120.328a26.856 26.856 0 0 0 .27 3.761 4.552 4.552 0 0 0 4.468 3.911h46.8a4.552 4.552 0 0 0 4.466-3.911 26.9 26.9 0 0 0 .271-3.761 28.139 28.139 0 1 0 -56.277 0z"></path>
      <path d="m64 58a29 29 0 1 0 -29-29 29.034 29.034 0 0 0 29 29zm-13.875-32.456a4.591 4.591 0 0 1 6.491 0l4.46 4.456 12.4-11.746a4.59 4.59 0 0 1 6.315 6.664l-15.644 14.824a4.59 4.59 0 0 1 -6.4-.087l-7.619-7.62a4.591 4.591 0 0 1 -.003-6.491z"></path>
    </g>
  </g>
</svg>
