<svg xmlns="http://www.w3.org/2000/svg" version="1.1"
  xmlns:xlink="http://www.w3.org/1999/xlink"
  xmlns:svgjs="http://svgjs.com/svgjs" viewBox="0 0 128 128" style="enable-background:new 0 0 512 512" xml:space="preserve">
  <g>
    <g xmlns="http://www.w3.org/2000/svg" id="Glyph">
      <g id="Glyph-2" data-name="Glyph">
        <path d="m114.5 14.5h-5.275a1.51 1.51 0 0 0 -1.358 2.138 65.644 65.644 0 0 1 5.523 19.88 1.5 1.5 0 0 0 .721 1.111 21.331 21.331 0 0 1 4.766 3.871h9.123v-13.5a13.515 13.515 0 0 0 -13.5-13.5z"></path>
        <path d="m51.886 37.63a1.494 1.494 0 0 0 .72-1.112 64.5 64.5 0 0 1 5.462-19.88 1.51 1.51 0 0 0 -1.357-2.138h-43.211a13.515 13.515 0 0 0 -13.5 13.5v13.5h47.123a21.355 21.355 0 0 1 4.763-3.87zm-36.386-4.63a3 3 0 1 1 3-3 3 3 0 0 1 -3 3zm16 0a3 3 0 1 1 3-3 3 3 0 0 1 -3 3zm13-3a3 3 0 1 1 3 3 3 3 0 0 1 -3-3z"></path>
        <path d="m108.124 74.617c2.467 2.12 4.254 3.559 5.311 4.277 3.322 2.478 8.145-.488 8.04-4.426v-18.529a18.256 18.256 0 0 0 -4.975-12.554 1.51 1.51 0 0 0 -2.593 1.048 73.911 73.911 0 0 1 -3.451 23.473 14.661 14.661 0 0 1 -2.519 4.632 1.5 1.5 0 0 0 .187 2.079z"></path>
        <path d="m52.1 44.433a1.51 1.51 0 0 0 -2.6-1.049 18.257 18.257 0 0 0 -4.978 12.555v18.529c-.1 3.939 4.717 6.9 8.04 4.426 1.06-.721 2.847-2.16 5.311-4.277a1.5 1.5 0 0 0 .189-2.079 14.656 14.656 0 0 1 -2.519-4.631 73.854 73.854 0 0 1 -3.443-23.474z"></path>
        <path d="m83 .18c-14.85 0-27.1 18.87-27.89 42.97a70.52 70.52 0 0 0 3.29 23.82 11.579 11.579 0 0 0 5.61 6.64c1.46 3.6 4.67 7.76 9.29 8.39a72.426 72.426 0 0 0 19.4 0c4.62-.63 7.83-4.79 9.3-8.39a11.6 11.6 0 0 0 5.6-6.64 70.59 70.59 0 0 0 3.29-23.82c-.79-24.1-13.04-42.97-27.89-42.97zm0 3c5.36 0 10.35 2.89 14.43 7.83-3.47 2.09-8.41 3.19-14.43 3.19s-10.96-1.1-14.43-3.19c4.08-4.94 9.07-7.83 14.43-7.83zm7.225 31.22a7.225 7.225 0 1 1 -7.225-7.225 7.225 7.225 0 0 1 7.225 7.225zm14.525 31.63a8.6 8.6 0 0 1 -5.89 5.63 62.761 62.761 0 0 1 -31.72 0 8.6 8.6 0 0 1 -5.89-5.63c-.13-.37-.23-.76-.35-1.14 13.211 4.407 30.989 4.407 44.2 0-.12.38-.22.77-.35 1.14z"></path>
        <path d="m124.47 55.94v18.53c.117 6.377-7.5 10.7-12.725 6.9-1.036-.676-3.524-2.7-5.827-4.7a1.509 1.509 0 0 0 -2.282.388c-1.211 2.108-4.659 7.1-10.521 7.919-1.049.144-2.117.262-3.2.358a.5.5 0 0 0 -.26.891 10.743 10.743 0 0 1 4.112 8.447c0 4.611-5.923 10.42-9.455 13.472a2.749 2.749 0 0 1 -3.807-.17 7.614 7.614 0 0 1 -1.9-6.867c.309-.833-.642-.958-1.056-.706a2.735 2.735 0 0 1 -4.138-.779 10.9 10.9 0 0 1 2.934-13.4.494.494 0 0 0 -.264-.884c-1.074-.095-2.137-.212-3.18-.355-5.873-.82-9.324-5.81-10.535-7.916a1.508 1.508 0 0 0 -2.28-.39c-2.643 2.277-4.663 3.9-5.847 4.7-5.168 3.831-12.908-.639-12.71-6.908v-18.53a21.319 21.319 0 0 1 3.286-11.44h-44.815v70a13.5 13.5 0 0 0 13.5 13.5h101a13.5 13.5 0 0 0 13.5-13.5v-70h-6.815a21.316 21.316 0 0 1 3.285 11.44zm-114.97 4.56a3 3 0 0 1 3-3h23a3 3 0 0 1 3 3v23a3 3 0 0 1 -3 3h-23a3 3 0 0 1 -3-3zm54 53.5h-54a1.5 1.5 0 0 1 0-3h54a1.5 1.5 0 0 1 0 3zm0-8h-54a1.5 1.5 0 0 1 0-3h54a1.5 1.5 0 0 1 0 3zm0-8h-54a1.5 1.5 0 0 1 0-3h54a1.5 1.5 0 0 1 0 3zm55 16h-16a1.5 1.5 0 0 1 0-3h16a1.5 1.5 0 0 1 0 3zm0-8h-16a1.5 1.5 0 0 1 0-3h16a1.5 1.5 0 0 1 0 3zm0-8h-16a1.5 1.5 0 0 1 0-3h16a1.5 1.5 0 0 1 0 3z"></path>
      </g>
    </g>
  </g>
</svg>
