<svg xmlns="http://www.w3.org/2000/svg" version="1.1"
  xmlns:xlink="http://www.w3.org/1999/xlink"
  xmlns:svgjs="http://svgjs.com/svgjs" viewBox="0 0 128 128" style="enable-background:new 0 0 512 512" xml:space="preserve">
  <g>
    <g xmlns="http://www.w3.org/2000/svg" id="Glyph">
      <g id="Glyph-2" data-name="Glyph">
        <path d="m97.5 40h21a1.5 1.5 0 0 0 0-3h-21a1.5 1.5 0 0 0 0 3z"></path>
        <path d="m118.5 45h-13a1.5 1.5 0 0 0 0 3h13a1.5 1.5 0 0 0 0-3z"></path>
        <path d="m9.5 118h21a1.5 1.5 0 0 0 0-3h-21a1.5 1.5 0 0 0 0 3z"></path>
        <path d="m9.5 110h13a1.5 1.5 0 0 0 0-3h-13a1.5 1.5 0 0 0 0 3z"></path>
        <path d="m114.5 0h-101a13.52 13.52 0 0 0 -13.5 13.5v101a13.52 13.52 0 0 0 13.5 13.5h101a13.52 13.52 0 0 0 13.5-13.5v-101a13.52 13.52 0 0 0 -13.5-13.5zm-19 12.5h16a3 3 0 0 1 0 6h-16a3 3 0 0 1 0-6zm-48 0a3 3 0 1 1 -3 3 3 3 0 0 1 3-3zm-16 0a3 3 0 1 1 -3 3 3 3 0 0 1 3-3zm-16 0a3 3 0 1 1 -3 3 3 3 0 0 1 3-3zm109.5 102a10.512 10.512 0 0 1 -10.5 10.5h-101a10.512 10.512 0 0 1 -10.5-10.5v-84.5h122z"></path>
        <path d="m38.5 106.05h51a4.5 4.5 0 0 0 4.5-4.5v-4a4.483 4.483 0 0 0 -4-4.44v-20.61a4.492 4.492 0 0 0 4-4.45v-5.18a4.5 4.5 0 0 0 -2.4-3.99l-24.11-12.68a7.492 7.492 0 0 0 -6.98 0l-24.11 12.68a4.5 4.5 0 0 0 -2.4 3.99v5.18a4.492 4.492 0 0 0 4 4.45v20.61a4.483 4.483 0 0 0 -4 4.44v4a4.5 4.5 0 0 0 4.5 4.5zm31.5-33.5h8v20.5h-8zm-6-16.995a3 3 0 1 1 -3 3 3 3 0 0 1 3-3zm-14 16.995h8v20.5h-8z"></path>
      </g>
    </g>
  </g>
</svg>
