<svg xmlns="http://www.w3.org/2000/svg" version="1.1"
  xmlns:xlink="http://www.w3.org/1999/xlink"
  xmlns:svgjs="http://svgjs.com/svgjs" viewBox="0 0 128 128" style="enable-background:new 0 0 512 512" xml:space="preserve">
  <g>
    <g xmlns="http://www.w3.org/2000/svg" id="Glyph">
      <g id="Glyph-2" data-name="Glyph">
        <path d="M26.66,37.29a34.01,34.01,0,0,1,3.45-.19A32.946,32.946,0,0,1,60.08,56.43a1.506,1.506,0,0,0,.91.82,19.294,19.294,0,0,0,5.97.96A7.823,7.823,0,0,1,73,70.96a38.7,38.7,0,0,1-11.37,9.75,1.446,1.446,0,0,0-.69.79,33.008,33.008,0,0,1-30.88,21.4,33.509,33.509,0,0,1-3.4-.2A1.515,1.515,0,0,0,25,104.19V114.5A13.52,13.52,0,0,0,38.5,128h51a13.43,13.43,0,0,0,9.11-3.56,1.5,1.5,0,0,0-.4-2.47A23.189,23.189,0,0,1,85.03,105.9a1.533,1.533,0,0,0-.5-.82,27.532,27.532,0,0,1-6.11-7.55c-2.916-4.676,1.555-10.937,6.91-9.85a10.372,10.372,0,0,0,2.44.15,1.5,1.5,0,0,0,1.12-.61,22.536,22.536,0,0,1,12.97-8.6A1.488,1.488,0,0,0,103,77.17V66.23a1.507,1.507,0,0,0-1.29-1.49,25.211,25.211,0,0,1-10.67-4.12,1.42,1.42,0,0,0-.95-.26,30.486,30.486,0,0,1-10.86-1.34c-5.519-1.427-6.747-9.354-1.92-12.39a12.763,12.763,0,0,0,2.5-2.22,1.464,1.464,0,0,0,.35-1.2A25.505,25.505,0,0,1,82.1,29.25a25.211,25.211,0,0,1,19.59-14.83,1.5,1.5,0,0,0,1.28-1.56A13.469,13.469,0,0,0,89.5,0h-51A13.52,13.52,0,0,0,25,13.5V35.8A1.513,1.513,0,0,0,26.66,37.29ZM76,113.5a1.5,1.5,0,0,1-1.5,1.5h-21a1.5,1.5,0,0,1,0-3h21A1.5,1.5,0,0,1,76,113.5ZM81.3,3,78.89,7.48A6.354,6.354,0,0,1,73.4,11H54.6a6.354,6.354,0,0,1-5.49-3.52L46.71,3Z"></path>
        <path d="M99.818,82.4a19.636,19.636,0,0,0-9.422,7.96.445.445,0,0,1-.3.2,14.406,14.406,0,0,1-5.293.081,3.645,3.645,0,0,0-3.779,5.395,23.589,23.589,0,0,0,6.5,7.583.429.429,0,0,1,.178.279c1.407,9.644,10.485,17.275,19.961,17.171a19.984,19.984,0,0,0,16.2-31.363A20.2,20.2,0,0,0,99.818,82.4ZM115.5,107h-16a1.5,1.5,0,0,1,0-3h16a1.5,1.5,0,0,1,0,3Zm0-8h-16a1.5,1.5,0,0,1,0-3h16a1.5,1.5,0,0,1,0,3Z"></path>
        <path d="M84.848,30.462a22.361,22.361,0,0,0-1.45,13.8.731.731,0,0,1-.122.573A16.442,16.442,0,0,1,79,49.118a3.948,3.948,0,0,0,1.081,7.025,26.036,26.036,0,0,0,11.085,1.086.651.651,0,0,1,.484.122,22.841,22.841,0,0,0,13.729,4.67c16.437.075,27.483-17.91,19.887-32.668C116.733,12.781,92.411,13.342,84.848,30.462ZM94,36.5a3,3,0,0,1,3-3h11a3,3,0,0,1,3,3v1.136l4.737-2.8A1.5,1.5,0,0,1,118,36.129v7.742a1.5,1.5,0,0,1-2.263,1.292L111,42.364V43.5a3,3,0,0,1-3,3H97a3,3,0,0,1-3-3Z"></path>
        <path d="M30.12,99.94c12.27.268,24.651-8.509,28.38-20.548a1.422,1.422,0,0,1,.726-.819,34.811,34.811,0,0,0,11.455-9.521,4.814,4.814,0,0,0-3.719-7.841A22.855,22.855,0,0,1,58.7,59.619a1.544,1.544,0,0,1-.881-.851A29.844,29.844,0,0,0,45.894,44.613C24.755,31.363-2.355,48.951.438,73.62,2.089,88.2,15.577,100.244,30.12,99.94ZM40.571,69.3,53.856,82.587a26.836,26.836,0,0,1-3.866,5.546c-.467.515-.958,1-1.456,1.467L33.242,73.524,38.563,69.2A1.5,1.5,0,0,1,40.571,69.3ZM34.718,50.329a4.5,4.5,0,1,1-4.5,4.5A4.5,4.5,0,0,1,34.718,50.329ZM15.6,61.565a1.508,1.508,0,0,1,2.148.026L46.241,91.542A26.888,26.888,0,0,1,3.481,73.688Z"></path>
      </g>
    </g>
  </g>
</svg>
