<svg xmlns="http://www.w3.org/2000/svg" version="1.1"
  xmlns:xlink="http://www.w3.org/1999/xlink"
  xmlns:svgjs="http://svgjs.com/svgjs" viewBox="0 0 48 48" style="enable-background:new 0 0 512 512" xml:space="preserve">
  <g>
    <g xmlns="http://www.w3.org/2000/svg" id="Glyph">
      <g id="Glyph-2" data-name="Glyph">
        <path d="M2.5,48h43A2.5,2.5,0,0,0,48,45.5v-1A2.5,2.5,0,0,0,45.5,42H39.17l4.52-1.21a4.532,4.532,0,0,0,3.18-5.51L40.66,12.1a4.506,4.506,0,0,0-5.52-3.18l-4.83,1.29A4.5,4.5,0,0,0,27,14.47V4.5A4.507,4.507,0,0,0,22.5,0h-5a4.5,4.5,0,0,0-4,2.48A4.5,4.5,0,0,0,9.5,0h-5A4.507,4.507,0,0,0,0,4.5v34a4.487,4.487,0,0,0,1.83,3.6A2.5,2.5,0,0,0,0,44.5v1A2.5,2.5,0,0,0,2.5,48ZM42.451,32.322l.259.965A1,1,0,0,1,42,34.512l-4.83,1.294a1,1,0,0,1-1.224-.707l-.259-.966a1,1,0,0,1,.707-1.224l4.829-1.295A1,1,0,0,1,42.451,32.322ZM40.08,13.8l1.03,3.87-11.59,3.1-1.03-3.86ZM27,14.91a4.553,4.553,0,0,0,.13.81L33.34,38.9A4.512,4.512,0,0,0,36.25,42H25.29A4.461,4.461,0,0,0,27,38.5ZM14,4.5A3.5,3.5,0,0,1,17.5,1h5A3.5,3.5,0,0,1,26,4.5V7H14Zm8.5,12v10a2,2,0,0,1-2,2h-1a2,2,0,0,1-2-2v-10a2,2,0,0,1,2-2h1A2,2,0,0,1,22.5,16.5ZM14,36H26v2.5A3.5,3.5,0,0,1,22.5,42h-5A3.5,3.5,0,0,1,14,38.5Zm.71,6H12.29a4.339,4.339,0,0,0,1.21-1.48A4.339,4.339,0,0,0,14.71,42ZM1,8H13v4H1ZM1,35V31H13v4Z"></path>
      </g>
    </g>
  </g>
</svg>
