<svg xmlns="http://www.w3.org/2000/svg" version="1.1"
    xmlns:xlink="http://www.w3.org/1999/xlink" viewBox="0 0 100 100" style="enable-background:new 0 0 512 512" xml:space="preserve">
    <g>
        <path d="m96.089 23.049-5.355-3.536-.453-6.398c-.165-2.323-2.71-3.667-4.722-2.492l-5.795 3.387a3.144 3.144 0 0 0-1.55 2.928l.176 2.586a5.754 5.754 0 0 1-2.71 5.28L45.078 43.779l-1.497-2.561c-.728-1.246-2.549-1.186-3.194.103l-4.85 8.691a1.818 1.818 0 0 0 1.536 2.629l9.953.04c1.44.07 2.386-1.486 1.658-2.731l-1.496-2.563L78.74 30.03a5.754 5.754 0 0 1 5.931.232l2.167 1.423c.998.655 2.28.688 3.311.086l5.795-3.387c2.01-1.175 2.09-4.052.146-5.335z"></path>
        <path d="m59.558 81.452 7.273 9.519c.692.906.046 2.212-1.094 2.212h-5.203c-.428 0-.831-.199-1.092-.538l-6.252-8.148a37.717 37.717 0 0 1-12.973 2.287 37.76 37.76 0 0 1-12.972-2.287l-6.252 8.148c-.26.34-.664.538-1.092.538h-5.203c-1.14 0-1.786-1.306-1.094-2.212l7.273-9.52C9.873 74.869 2.5 62.83 2.5 49.068c0-19.68 15.064-35.83 34.292-37.564v-1.068c0-1.857 1.392-3.52 3.246-3.614a3.434 3.434 0 0 1 3.615 3.42v1.262c9.711.872 18.356 5.435 24.54 12.265l-8.943 5.548c-5.464-5.272-13.107-8.29-21.448-7.578-12.871 1.1-23.394 11.315-24.837 24.151-1.863 16.568 11.06 30.61 27.252 30.61 15.157 0 27.432-12.286 27.432-27.432 0-2.051-.225-4.05-.656-5.969l9.29-5.107a37.594 37.594 0 0 1 1.652 11.076c0 13.762-7.373 25.801-18.377 32.385z"></path>
        <path d="M52.872 48.386c.012.225.018.451.018.68 0 6.997-5.673 12.672-12.672 12.672s-12.671-5.674-12.671-12.672 5.673-12.672 12.671-12.672c2.484 0 4.8.717 6.755 1.953L53.18 34.5a19.427 19.427 0 0 0-12.96-4.936c-10.77 0-19.5 8.73-19.5 19.5s8.73 19.5 19.5 19.5 19.5-8.732 19.5-19.5c0-1.44-.161-2.843-.458-4.195z"></path>
    </g>
</svg>