<svg id="fi_10851206" viewBox="0 0 512 512"
    xmlns="http://www.w3.org/2000/svg"
    xmlns:xlink="http://www.w3.org/1999/xlink" data-name="Layer 2">
    <linearGradient id="linear-gradient" gradientUnits="userSpaceOnUse" x1="74.98" x2="437.02" y1="74.98" y2="437.02">
        <stop offset=".1" stop-color="#fff1ab"></stop>
        <stop offset=".4" stop-color="#ffda24"></stop>
        <stop offset=".51" stop-color="#ffc81d"></stop>
        <stop offset=".74" stop-color="#ff9a0c"></stop>
        <stop offset=".9" stop-color="#f70"></stop>
    </linearGradient>
    <radialGradient id="radial-gradient" cx="256" cy="308" gradientUnits="userSpaceOnUse" r="105.54">
        <stop offset="0" stop-color="#614444"></stop>
        <stop offset=".38" stop-color="#583c3c"></stop>
        <stop offset="1" stop-color="#402828"></stop>
    </radialGradient>
    <linearGradient id="linear-gradient-2" gradientUnits="userSpaceOnUse" x1="256.06" x2="256.06" y1="385.61" y2="318.71">
        <stop offset="0" stop-color="#ff6a00"></stop>
        <stop offset=".99" stop-color="#ffa227"></stop>
    </linearGradient>
    <linearGradient id="linear-gradient-3" gradientUnits="userSpaceOnUse" x1="256" x2="256" y1="274.74" y2="230.39">
        <stop offset=".65" stop-color="#fff"></stop>
        <stop offset=".75" stop-color="#f6f6f6"></stop>
        <stop offset=".9" stop-color="#ddd"></stop>
        <stop offset="1" stop-color="#ccc"></stop>
    </linearGradient>
    <radialGradient id="radial-gradient-2" cx="345.71" cy="135.11" fx="345.71" fy="135.11" gradientUnits="userSpaceOnUse" r="50.81">
        <stop offset="0" stop-color="#705454"></stop>
        <stop offset=".27" stop-color="#674c4c"></stop>
        <stop offset=".71" stop-color="#4e3838"></stop>
        <stop offset="1" stop-color="#3b2828"></stop>
    </radialGradient>
    <radialGradient id="radial-gradient-3" cx="166.29" fx="166.29" r="50.81" xlink:href="#radial-gradient-2"></radialGradient>
    <g id="Icon">
        <g id="_14" data-name="14">
            <circle cx="256" cy="256" fill="url(#linear-gradient)" r="256"></circle>
            <g id="Mouth">
                <path d="m156.22 230.39h199.57c15.3 0 27.72 12.42 27.72 27.72v.49c0 70.1-56.91 127.01-127.01 127.01h-.49c-70.37 0-127.5-57.13-127.5-127.5 0-15.3 12.42-27.72 27.72-27.72z" fill="url(#radial-gradient)"></path>
                <path d="m334.8 358.61c-21.58 16.91-48.76 27-78.31 27h-.49c-29.69 0-57-10.14-78.67-27.16 17.79-24.1 46.41-39.74 78.67-39.74s61.01 15.7 78.8 39.9z" fill="url(#linear-gradient-2)"></path>
                <path d="m369.64 234.11v7.37c0 18.36-14.89 33.26-33.26 33.26h-160.76c-18.37 0-33.26-14.9-33.26-33.26v-7.37c4.08-2.36 8.81-3.71 13.86-3.71h199.57c5.04 0 9.78 1.35 13.86 3.71z" fill="url(#linear-gradient-3)"></path>
            </g>
            <g id="Eyes">
                <path d="m299.92 169.15c-3.15 0-6.33-.85-9.21-2.63-8.22-5.09-10.74-15.89-5.66-24.11 2.62-4.23 26.57-41.34 60.66-41.34s58.04 37.11 60.66 41.34c5.09 8.22 2.55 19-5.67 24.09-8.21 5.08-18.97 2.56-24.06-5.63-5.08-8.1-19.32-24.81-30.92-24.81s-25.84 16.71-30.92 24.81c-3.31 5.34-9.02 8.28-14.87 8.28z" fill="url(#radial-gradient-2)"></path>
                <path d="m120.5 169.15c-3.15 0-6.33-.85-9.21-2.63-8.22-5.09-10.74-15.89-5.66-24.11 2.62-4.23 26.57-41.34 60.66-41.34s58.04 37.11 60.66 41.34c5.09 8.22 2.55 19-5.67 24.09s-19 2.55-24.09-5.67c-5.05-8.05-19.29-24.76-30.89-24.76s-25.84 16.71-30.92 24.81c-3.31 5.34-9.02 8.28-14.87 8.28z" fill="url(#radial-gradient-3)"></path>
            </g>
        </g>
    </g>
</svg>