<svg xmlns="http://www.w3.org/2000/svg" version="1.1"
  xmlns:xlink="http://www.w3.org/1999/xlink"
  xmlns:svgjs="http://svgjs.com/svgjs" viewBox="0 0 512 512" style="enable-background:new 0 0 512 512" xml:space="preserve">
  <g>
    <g xmlns="http://www.w3.org/2000/svg">
      <path d="m497 512h-482c-8.284 0-15-6.716-15-15v-30c0-8.284 6.716-15 15-15h482c8.284 0 15 6.716 15 15v30c0 8.284-6.716 15-15 15z"></path>
      <path d="m381 200h70c8.284 0 15-6.716 15-15v-15h-100v15c0 8.284 6.716 15 15 15z"></path>
      <path d="m221 200h70c8.284 0 15-6.716 15-15v-15h-100v15c0 8.284 6.716 15 15 15z"></path>
      <path d="m61 200h70c8.284 0 15-6.716 15-15v-15h-100v15c0 8.284 6.716 15 15 15z"></path>
      <g>
        <path d="m381 392h70c8.284 0 15 6.716 15 15v15h-100v-15c0-8.285 6.716-15 15-15z"></path>
        <path d="m221 392h70c8.284 0 15 6.716 15 15v15h-100v-15c0-8.285 6.716-15 15-15z"></path>
        <g>
          <path d="m226 230h60v132h-60z"></path>
          <path d="m386 230h60v132h-60z"></path>
          <path d="m66 230h60v132h-60z"></path>
        </g>
        <path d="m61 392h70c8.284 0 15 6.716 15 15v15h-100v-15c0-8.285 6.716-15 15-15z"></path>
      </g>
      <path d="m501.726 80.763-241-80c-3.068-1.018-6.383-1.018-9.451 0l-241 80c-6.135 2.037-10.275 7.773-10.275 14.237v30c0 8.284 6.716 15 15 15h482c8.284 0 15-6.716 15-15v-30c0-6.464-4.14-12.2-10.274-14.237zm-305.726 14.237c-8.284 0-15-6.716-15-15s6.716-15 15-15 15 6.716 15 15-6.716 15-15 15zm60 0c-8.284 0-15-6.716-15-15s6.716-15 15-15 15 6.716 15 15-6.716 15-15 15zm60 0c-8.284 0-15-6.716-15-15s6.716-15 15-15 15 6.716 15 15-6.716 15-15 15z"></path>
    </g>
  </g>
</svg>
