<?xml version="1.0" standalone="no"?>
<!DOCTYPE svg PUBLIC "-//W3C//DTD SVG 20010904//EN"
 "http://www.w3.org/TR/2001/REC-SVG-20010904/DTD/svg10.dtd">
<svg version="1.0" xmlns="http://www.w3.org/2000/svg"
 width="268.000000pt" height="424.000000pt" viewBox="0 0 268.000000 424.000000"
 preserveAspectRatio="xMidYMid meet">

<g transform="translate(0.000000,424.000000) scale(0.100000,-0.100000)"
fill="#000000" stroke="none">
<path d="M300 4226 c-150 -43 -262 -164 -290 -311 -8 -43 -10 -399 -8 -1280
l3 -1220 32 -67 c41 -88 113 -160 201 -201 61 -29 75 -32 167 -32 94 0 105 2
170 34 89 44 157 113 198 199 l32 67 3 1225 c2 914 0 1239 -9 1280 -26 124
-109 228 -224 282 -78 36 -199 47 -275 24z"/>
<path d="M1230 4225 c-30 -9 -73 -27 -96 -40 -63 -37 -149 -136 -176 -202
l-23 -58 -3 -1524 c-2 -1371 -1 -1530 14 -1580 39 -137 140 -240 277 -283 211
-65 443 58 507 271 20 65 20 87 18 1591 l-3 1525 -24 60 c-34 85 -143 193
-226 225 -77 29 -190 35 -265 15z"/>
<path d="M2170 4226 c-150 -43 -262 -164 -290 -311 -8 -44 -10 -542 -8 -1835
l3 -1775 32 -67 c41 -88 113 -160 201 -201 61 -29 75 -32 167 -32 94 0 105 2
170 34 89 44 157 113 198 199 l32 67 3 1780 c2 1337 0 1794 -9 1835 -26 124
-109 228 -224 282 -78 36 -199 47 -275 24z"/>
</g>
</svg>
