<svg id="fi_6741122" enable-background="new 0 0 512 512" viewBox="0 0 512 512"
    xmlns="http://www.w3.org/2000/svg">
    <g>
        <g>
            <path clip-rule="evenodd" d="m208.652 52.968c46.069 0 83.839 37.673 83.839 83.622v63.468h45.586v-63.468c0-71.065-58.204-129.09-129.425-129.09s-129.424 58.025-129.424 129.09v63.468h45.586v-63.468c-.001-45.95 37.769-83.622 83.838-83.622z" fill="#dedbee" fill-rule="evenodd"></path>
        </g>
        <g>
            <path clip-rule="evenodd" d="m338.077 136.59c0-71.065-58.204-129.09-129.425-129.09-14.579 0-28.619 2.438-41.721 6.917 5.229-.652 10.544-.992 15.944-.992 71.22 0 129.425 58.054 129.425 129.09v57.543h25.777z" fill="#d2cfe9" fill-rule="evenodd"></path>
        </g>
        <g>
            <path clip-rule="evenodd" d="m73.743 190.08c-26.885 0-48.882 21.94-48.882 48.756v72.539c0 100.829 82.702 183.317 183.792 183.317 34.388 0 66.645-9.553 94.212-26.107l89.58-173.197v-56.551c0-26.816-21.997-48.756-48.882-48.756-89.95-.001-179.871-.001-269.82-.001z" fill="#fdb441" fill-rule="evenodd"></path>
        </g>
        <g>
            <path clip-rule="evenodd" d="m208.652 261.4c-21.969 0-39.788 17.745-39.788 39.657 0 14.145 7.418 26.532 18.558 33.591l-8.867 57.629h60.194l-8.867-57.629c11.141-7.058 18.558-19.446 18.558-33.591 0-21.912-17.819-39.657-39.788-39.657z" fill="#025f80" fill-rule="evenodd"></path>
        </g>
        <g>
            <path clip-rule="evenodd" d="m382.043 294.877c-58.034 0-105.069 46.914-105.069 104.797 0 26.391 9.776 50.485 25.891 68.91 19.269 21.997 47.603 35.915 79.178 35.915 58.034 0 105.097-46.942 105.097-104.826 0-54.369-41.522-99.071-94.695-104.287-3.411-.339-6.878-.509-10.402-.509z" fill="#01d0fb" fill-rule="evenodd"></path>
        </g>
        <g>
            <path clip-rule="evenodd" d="m202.116 261.91c14.949 5.811 25.578 20.495 25.578 37.673 0 14.372-7.418 26.957-18.558 34.129l8.867 58.564h20.747l-8.867-57.629c11.141-7.058 18.558-19.446 18.558-33.591 0-21.912-17.819-39.657-39.788-39.657-2.217.001-4.406.171-6.537.511z" fill="#024c67" fill-rule="evenodd"></path>
        </g>
        <g>
            <path clip-rule="evenodd" d="m487.14 399.674c0-54.369-41.522-99.071-94.695-104.287-3.41-.34-6.878-.51-10.402-.51-7.418 0-14.693.765-21.684 2.239 53.032 5.329 94.44 49.975 94.44 104.287 0 50.457-35.781 92.58-83.384 102.558 3.496.34 7.048.539 10.629.539 58.032 0 105.096-46.942 105.096-104.826z" fill="#01c0fa" fill-rule="evenodd"></path>
        </g>
        <g>
            <path clip-rule="evenodd" d="m392.444 238.836c0-26.816-21.997-48.756-48.882-48.756h-5.485-25.777-19.809c26.885 0 48.882 21.94 48.882 48.756v64.177c6.053-2.523 12.42-4.535 18.985-5.896 6.991-1.474 14.267-2.239 21.684-2.239 3.524 0 6.991.17 10.402.51z" fill="#fe9901" fill-rule="evenodd"></path>
        </g>
        <g>
            <path d="m255.94 301.057c0-26.002-21.213-47.157-47.288-47.157s-47.288 21.154-47.288 47.157c0 14.574 6.625 28.079 17.942 37.02l-8.164 53.059c-.332 2.163.296 4.363 1.721 6.024s3.504 2.617 5.692 2.617h60.193c2.188 0 4.268-.956 5.692-2.617 1.425-1.661 2.053-3.861 1.721-6.024l-8.164-53.059c11.318-8.941 17.943-22.447 17.943-37.02zm-30.072 27.255c-2.519 1.595-3.853 4.53-3.399 7.476l7.538 48.988h-42.709l7.538-48.988c.453-2.946-.881-5.881-3.399-7.476-9.438-5.979-15.072-16.168-15.072-27.255 0-17.731 14.484-32.157 32.288-32.157s32.288 14.425 32.288 32.157c-.001 11.087-5.635 21.276-15.073 27.255z"></path>
            <path d="m410.989 394.605c7.573-7.978 11.429-18.426 10.856-29.424-1.086-20.7-18.204-37.244-38.968-37.663-20.199-.395-37.516 14.295-40.297 34.245-.252 1.866-.38 3.721-.38 5.512 0 4.142 3.357 7.5 7.5 7.5s7.5-3.358 7.5-7.5c0-1.122.082-2.3.24-3.472 1.704-12.224 12.235-21.293 24.612-21.293.173 0 .347.002.52.005 12.946.261 23.617 10.563 24.293 23.449.356 6.846-2.043 13.35-6.756 18.314-4.748 5.001-11.164 7.755-18.067 7.755-4.143 0-7.5 3.358-7.5 7.5v33.732c0 4.142 3.357 7.5 7.5 7.5s7.5-3.358 7.5-7.5v-26.95c8.133-1.567 15.689-5.646 21.447-11.71z"></path>
            <path d="m383.305 456.793c-4.096-.686-7.95 2.079-8.631 6.165l-.028.17c-.682 4.085 2.079 7.95 6.164 8.631.418.07.833.103 1.242.103 3.601 0 6.777-2.6 7.39-6.268l.028-.17c.68-4.085-2.08-7.949-6.165-8.631z"></path>
            <path d="m399.944 288.802v-49.967c0-30.345-24.209-55.14-54.367-56.205v-46.04c0-75.316-61.424-136.59-136.925-136.59s-136.924 61.274-136.924 136.59v46.041c-30.158 1.064-54.368 25.859-54.368 56.205v72.539c0 50.772 19.956 98.638 56.19 134.78 36.23 36.136 84.21 56.038 135.102 56.038 32.515 0 64.479-8.333 92.839-24.141 20.458 20.929 49.008 33.948 80.552 33.948 26.591 0 52.391-9.417 72.647-26.516 3.165-2.671 3.565-7.403.894-10.569-2.671-3.165-7.403-3.565-10.569-.893-17.554 14.818-39.918 22.978-62.972 22.978-53.8 0-97.569-43.66-97.569-97.326 0-53.649 43.77-97.297 97.569-97.297 53.815 0 97.597 43.647 97.597 97.297 0 18.197-5.071 35.949-14.666 51.336-2.191 3.515-1.119 8.141 2.396 10.333 3.513 2.189 8.14 1.119 10.332-2.396 11.081-17.771 16.938-38.267 16.938-59.272 0-55.846-41.088-102.294-94.696-110.873zm-191.292-273.802c67.229 0 121.925 54.545 121.925 121.59v45.99h-30.586v-45.99c0-50.245-40.975-91.123-91.339-91.123s-91.339 40.877-91.339 91.123v45.99h-30.585v-45.99c0-67.045 54.695-121.59 121.924-121.59zm60.822 384.674c0 24.958 8.204 48.039 22.057 66.705-25.463 13.625-53.93 20.813-82.879 20.813-97.208 0-176.292-78.872-176.292-175.817v-72.539c0-22.749 18.563-41.256 41.382-41.256h118c4.143 0 7.5-3.358 7.5-7.5s-3.357-7.5-7.5-7.5h-59.429v-45.99c0-41.974 34.245-76.123 76.339-76.123s76.339 34.148 76.339 76.123v45.99h-58.52c-4.143 0-7.5 3.358-7.5 7.5s3.357 7.5 7.5 7.5h117.09c22.818 0 41.383 18.507 41.383 41.256v48.578c-.964-.025-1.931-.037-2.901-.037-62.071 0-112.569 50.376-112.569 112.297z"></path>
        </g>
    </g>
</svg>