<?xml version="1.0" standalone="no"?>
<!DOCTYPE svg PUBLIC "-//W3C//DTD SVG 20010904//EN" "http://www.w3.org/TR/2001/REC-SVG-20010904/DTD/svg10.dtd">
<svg xmlns="http://www.w3.org/2000/svg" version="1.0" width="472" height="314" viewBox="0 0 472.000000 314.000000" preserveAspectRatio="xMidYMid meet">

<g transform="translate(0.000000,314.000000) scale(0.100000,-0.100000)" fill="#000000" stroke="none">
<path d="M0 3124 c0 -14 3 -14 15 -4 8 7 15 14 15 16 0 2 -7 4 -15 4 -8 0 -15 -7 -15 -16z"/>
<path d="M50 3135 c0 -9 255 -255 265 -255 6 0 28 18 49 39 l39 40 -29 35 c-16 19 -32 35 -36 35 -4 1 -30 26 -59 56 l-52 55 -88 0 c-49 0 -89 -2 -89 -5z"/>
<path d="M376 3121 c-16 -17 -14 -20 25 -56 l42 -38 24 29 c14 16 38 41 54 57 l29 27 -78 0 c-64 0 -82 -3 -96 -19z"/>
<path d="M599 3082 c-81 -64 -110 -98 -157 -182 -51 -94 -51 -97 9 -125 l53 -24 21 53 c28 69 49 98 128 174 84 80 151 112 235 112 60 0 63 1 60 23 -3 21 -7 22 -139 25 l-137 3 -73 -59z"/>
<path d="M1361 2975 c-4 -185 -10 -168 69 -168 64 0 60 -12 60 168 l0 165 -62 0 -63 0 -4 -165z"/>
<path d="M1732 2950 c3 -213 2 -210 74 -210 35 0 43 4 48 23 3 12 6 102 6 200 l0 177 -66 0 -66 0 4 -190z"/>
<path d="M1920 3130 c0 -6 28 -10 65 -10 37 0 65 4 65 10 0 6 -28 10 -65 10 -37 0 -65 -4 -65 -10z"/>
<path d="M2178 3128 c9 -9 15 -9 24 0 9 9 7 12 -12 12 -19 0 -21 -3 -12 -12z"/>
<path d="M2571 3135 c-1 -6 -38 -10 -88 -10 -86 -1 -214 -32 -228 -56 -8 -11 11 -47 42 -80 l24 -26 52 18 c53 19 122 23 167 10 20 -5 26 -15 31 -46 l6 -40 2 37 c1 36 2 36 31 28 28 -8 31 -6 61 46 17 31 28 58 25 61 -3 4 -6 3 -6 0 0 -4 -17 2 -37 13 -21 11 -45 20 -55 20 -9 0 -19 8 -21 18 -3 9 -5 13 -6 7z"/>
<path d="M2782 3113 c14 -16 32 -39 39 -53 l14 -25 49 52 49 53 -88 0 -89 0 26 -27z"/>
<path d="M1012 3071 l3 -49 54 -7 c30 -4 57 -3 63 3 5 5 7 29 3 56 l-7 46 -59 0 -60 0 3 -49z"/>
<path d="M2133 3073 c33 -35 46 -70 32 -85 -3 -3 -29 3 -57 13 -29 9 -55 16 -59 14 -10 -7 -33 -125 -25 -132 3 -3 16 -7 29 -9 24 -2 77 -24 112 -46 11 -7 37 -23 57 -35 l37 -23 30 54 c17 29 31 58 31 63 0 5 -33 28 -74 52 l-74 42 10 36 c11 40 5 48 -57 80 -30 15 -29 15 8 -24z"/>
<path d="M1180 3038 c1 -29 4 -99 7 -155 l6 -103 41 0 c87 0 85 -2 80 119 -3 58 -7 125 -10 149 l-5 42 -60 0 -60 0 1 -52z"/>
<path d="M1550 3081 c0 -5 21 -12 48 -16 26 -4 54 -11 64 -16 11 -6 18 -4 22 7 7 18 -1 20 -76 28 -32 4 -58 2 -58 -3z"/>
<path d="M20 3040 c-14 -10 -22 -21 -19 -24 3 -3 16 5 29 19 28 30 24 32 -10 5z"/>
<path d="M862 3025 c-123 -33 -215 -103 -266 -202 -26 -51 -21 -68 29 -98 25 -14 50 -23 55 -20 5 3 12 21 16 40 15 81 139 175 232 175 l52 0 0 53 c0 52 -7 71 -25 73 -5 1 -47 -8 -93 -21z"/>
<path d="M1947 3026 c-13 -34 -19 -136 -8 -136 6 0 12 -10 12 -22 2 -34 17 70 18 125 1 45 -11 63 -22 33z"/>
<path d="M2831 3003 c-1 -16 -9 -24 -28 -29 -37 -8 -86 -25 -96 -35 -10 -8 4 -39 39 -86 l24 -32 38 16 c46 19 157 12 228 -15 l49 -18 31 60 32 60 -77 23 c-42 13 -111 26 -153 30 -68 5 -77 8 -81 27 -4 20 -4 20 -6 -1z"/>
<path d="M39 2971 c-24 -21 -41 -42 -38 -45 3 -3 25 15 49 39 54 55 48 59 -11 6z"/>
<path d="M1560 3000 c0 -6 29 -10 67 -10 36 0 63 3 59 7 -11 12 -126 14 -126 3z"/>
<path d="M80 2935 l-45 -46 75 -76 c94 -94 115 -114 220 -204 47 -40 143 -128 215 -197 71 -69 131 -120 133 -114 2 6 17 29 33 52 l29 40 -20 22 c-11 12 -30 37 -43 55 -12 18 -26 33 -32 33 -5 0 -30 21 -55 48 -25 26 -90 86 -145 133 -55 48 -148 135 -208 193 -59 58 -109 106 -110 106 -2 0 -23 -20 -47 -45z"/>
<path d="M1010 2955 c0 -19 30 -34 85 -41 47 -7 54 0 39 40 -9 22 -124 23 -124 1z"/>
<path d="M1569 2934 c-11 -13 -14 -56 -14 -180 l0 -163 40 -5 c22 -3 67 -8 100 -11 124 -12 214 -49 335 -138 57 -42 78 -53 86 -44 20 21 66 107 57 107 -5 0 -40 23 -78 51 -39 28 -86 59 -107 70 -21 11 -40 30 -46 46 -7 18 -11 21 -11 11 -1 -22 -3 -22 -65 -3 -27 8 -78 20 -112 26 l-64 11 0 63 c0 34 -3 83 -6 108 -6 42 -10 47 -38 52 -17 4 -38 9 -47 11 -9 2 -22 -3 -30 -12z"/>
<path d="M2415 2908 c-42 -23 -86 -74 -96 -112 -18 -68 9 -164 60 -210 21 -19 22 -19 59 15 20 19 41 37 47 42 6 4 0 24 -14 51 -27 49 -23 91 10 101 15 5 27 0 42 -16 l22 -23 8 34 c4 19 15 48 23 63 21 42 19 44 -36 56 -64 14 -99 13 -125 -1z"/>
<path d="M930 2870 c-53 -10 -94 -35 -138 -85 -45 -52 -62 -107 -62 -207 l0 -60 28 6 c109 27 104 24 97 64 -7 42 13 100 45 130 30 28 84 28 102 0 29 -45 28 -57 -1 -91 -32 -36 -31 -43 16 -102 22 -26 24 -27 48 -11 14 9 37 35 53 58 36 56 38 155 3 211 -41 66 -116 100 -191 87z"/>
<path d="M3179 2818 c-30 -38 -33 -48 -31 -95 2 -29 0 -53 -3 -53 -4 0 -21 11 -39 25 -44 33 -158 75 -206 75 -43 0 -44 -3 -55 -82 -7 -43 -6 -46 13 -42 10 3 54 -7 97 -22 95 -34 165 -94 229 -197 57 -92 65 -113 80 -222 l12 -90 58 -3 58 -3 -4 88 c-8 146 -70 288 -178 406 -44 49 -50 60 -50 99 0 35 8 55 35 94 19 27 35 52 35 56 0 18 -19 5 -51 -34z"/>
<path d="M1946 2800 c-3 -19 -8 -47 -12 -62 -5 -22 -3 -28 10 -28 22 0 87 -33 156 -80 30 -20 69 -44 87 -52 l32 -16 35 46 c20 25 36 49 36 53 0 10 -208 144 -253 163 -60 25 -84 18 -91 -24z"/>
<path d="M2622 2798 c-23 -30 -31 -49 -26 -63 18 -56 16 -85 -9 -127 -29 -49 -127 -184 -154 -211 -16 -17 -14 -20 33 -68 l49 -50 23 28 c68 85 185 258 197 294 18 49 19 97 5 135 -12 30 -68 104 -79 104 -4 0 -21 -19 -39 -42z"/>
<path d="M3245 2754 l-46 -47 58 -61 c32 -33 71 -74 86 -90 27 -29 97 -164 97 -187 0 -8 20 -10 73 -4 39 3 73 8 75 10 7 7 -45 126 -82 189 -41 69 -162 208 -197 227 -16 8 -27 2 -64 -37z"/>
<path d="M1421 2735 c-82 -15 -122 -29 -167 -59 -34 -23 -34 -45 2 -105 l18 -30 50 28 c29 17 82 34 124 42 67 11 73 14 68 33 -3 12 -6 40 -6 64 0 23 -3 42 -7 41 -5 0 -41 -7 -82 -14z"/>
<path d="M65 2710 c-3 -5 -10 -33 -14 -61 l-8 -51 45 -27 c25 -14 60 -39 79 -55 31 -26 35 -27 51 -13 9 9 26 32 36 51 l19 36 -23 25 c-31 33 -177 108 -185 95z"/>
<path d="M2 2675 c0 -16 2 -22 5 -12 2 9 2 23 0 30 -3 6 -5 -1 -5 -18z"/>
<path d="M560 2697 c0 -3 23 -18 50 -33 34 -19 50 -33 50 -47 0 -26 5 -20 14 16 6 25 3 29 -27 42 -42 17 -87 29 -87 22z"/>
<path d="M1180 2593 c1 -10 14 -42 29 -72 39 -75 53 -48 15 30 -28 59 -44 75 -44 42z"/>
<path d="M2786 2491 c-11 -48 -13 -77 -7 -94 12 -31 6 -37 -33 -37 -58 -1 -112 -35 -160 -100 -64 -86 -62 -96 19 -105 61 -6 67 -5 85 17 11 13 19 26 20 29 0 7 46 29 60 29 6 0 10 -62 10 -150 0 -92 -4 -150 -10 -150 -5 0 -27 22 -47 49 -21 28 -45 50 -53 50 -8 1 -39 -10 -68 -24 l-53 -25 18 -30 c10 -17 62 -78 116 -135 l97 -103 0 -90 0 -91 -54 -15 -54 -16 5 -67 c6 -77 13 -96 13 -36 0 47 34 89 50 63 14 -22 12 -31 -9 -37 -18 -5 -19 -12 -14 -92 3 -47 9 -90 14 -96 12 -12 11 -43 -1 -47 -16 -5 -39 -131 -26 -140 5 -4 76 -19 156 -33 198 -36 381 -73 387 -79 5 -5 -29 -185 -48 -249 -9 -35 -13 -38 -42 -35 -31 3 -32 4 -30 51 1 27 8 66 17 88 18 45 21 112 5 107 -14 -5 -59 -137 -48 -144 5 -3 9 -25 9 -50 0 -39 -3 -44 -22 -44 -55 0 -68 10 -68 51 0 21 7 64 15 96 17 63 20 123 6 107 -18 -20 -51 -138 -41 -148 5 -5 10 -28 10 -49 l0 -39 -47 7 c-27 4 -102 23 -168 42 -119 35 -248 52 -299 39 -21 -5 -26 -13 -26 -37 0 -16 6 -45 14 -63 14 -33 15 -33 92 -39 44 -3 124 -19 179 -36 55 -17 147 -40 205 -51 58 -11 115 -23 128 -26 17 -3 22 -11 22 -38 0 -19 -4 -36 -8 -38 -19 -7 5 -154 38 -228 36 -83 110 -194 135 -204 9 -3 47 -6 85 -6 66 0 68 1 78 28 9 26 7 31 -17 45 -97 58 -202 248 -185 335 l7 32 -62 0 -61 0 0 34 0 34 74 -3 c41 -3 80 -6 86 -7 14 -4 36 52 56 142 42 188 84 403 80 407 -5 6 -298 66 -451 94 -220 39 -215 37 -215 66 0 25 1 26 55 19 l55 -6 0 67 c0 38 -3 85 -6 106 -6 35 -8 37 -45 37 -47 0 -51 19 -13 57 24 24 25 28 10 38 -12 10 -16 30 -16 95 0 102 10 98 74 -31 55 -109 69 -174 64 -300 -4 -111 -9 -103 79 -114 l51 -7 7 68 c25 227 -42 425 -197 590 l-78 82 1 83 c0 69 2 81 12 65 40 -62 40 -62 82 -25 46 40 65 83 65 143 0 83 -33 135 -109 167 l-44 19 7 48 c17 132 18 152 8 152 -6 0 -17 -31 -26 -69z m24 -316 c0 -19 -4 -35 -10 -35 -5 0 -10 16 -10 35 0 19 5 35 10 35 6 0 10 -16 10 -35z"/>
<path d="M2884 2484 c-20 -65 -20 -65 -1 -76 39 -21 109 -92 123 -127 22 -51 29 -157 14 -211 -9 -32 -25 -57 -58 -87 l-45 -42 17 -44 c9 -24 23 -52 30 -62 13 -18 15 -18 39 -2 50 32 100 91 126 146 24 51 26 67 26 181 0 122 -1 128 -33 192 -35 71 -128 168 -162 168 -9 0 -23 7 -30 15 -7 8 -15 15 -19 15 -3 0 -15 -30 -27 -66z"/>
<path d="M292 2490 l-32 -50 182 -180 183 -180 49 52 49 52 -29 21 c-15 11 -99 90 -187 175 -87 85 -164 156 -170 158 -7 1 -27 -21 -45 -48z"/>
<path d="M2243 2497 c-23 -23 -54 -68 -69 -101 l-28 -58 41 -39 c23 -21 48 -39 56 -39 7 0 24 23 38 52 13 29 44 79 67 111 l44 60 -25 25 c-41 41 -77 38 -124 -11z"/>
<path d="M0 2452 c0 -62 4 -85 18 -102 l18 -22 37 45 c20 25 37 52 37 59 0 16 -27 42 -77 77 l-33 22 0 -79z"/>
<path d="M1471 2515 c-35 -8 -85 -21 -112 -30 -59 -20 -169 -90 -169 -108 0 -17 59 -107 70 -107 5 0 13 6 17 13 16 27 92 68 164 89 58 16 92 19 161 16 l86 -5 12 46 c6 25 13 53 16 62 3 13 -9 18 -65 28 -85 13 -99 13 -180 -4z"/>
<path d="M3712 2471 c-11 -28 -26 -51 -31 -51 -6 0 -11 -6 -11 -14 0 -8 -31 -108 -69 -222 -82 -248 -85 -260 -68 -267 96 -39 121 -48 115 -41 -4 4 -4 12 1 18 5 6 41 109 81 229 39 119 75 217 80 217 16 0 133 -46 189 -74 50 -26 52 -28 46 -59 -4 -18 -39 -112 -77 -210 -39 -98 -69 -179 -67 -180 2 -2 20 -14 39 -28 51 -38 79 -45 86 -22 3 10 27 67 52 128 38 94 142 385 142 400 0 3 -18 12 -40 21 -22 9 -40 20 -40 25 0 12 -295 144 -391 175 -11 4 -21 -8 -37 -45z"/>
<path d="M780 2479 c-13 -6 -26 -11 -28 -13 -1 -2 6 -37 18 -77 28 -104 27 -156 -7 -206 -43 -62 -70 -93 -81 -93 -5 0 -16 -15 -23 -32 -7 -18 -35 -63 -61 -101 -26 -37 -48 -74 -48 -81 0 -8 -5 -18 -10 -21 -12 -7 55 -65 75 -65 15 0 41 29 100 115 26 39 72 99 100 135 106 131 122 198 84 354 l-23 96 -35 -1 c-20 0 -47 -5 -61 -10z"/>
<path d="M1781 2451 c-32 -44 -53 -99 -41 -106 6 -3 11 -21 11 -38 1 -26 2 -28 6 -7 2 14 15 58 30 98 28 81 26 99 -6 53z"/>
<path d="M1832 2381 c-20 -38 -27 -63 -21 -72 5 -8 9 -11 9 -6 0 13 62 -23 103 -59 20 -19 41 -34 46 -34 5 0 26 23 47 51 l37 51 -33 27 c-49 39 -142 101 -150 101 -4 0 -21 -26 -38 -59z"/>
<path d="M1045 2415 c-5 -2 -22 -6 -37 -9 l-26 -6 15 -57 c12 -47 13 -71 4 -123 -9 -56 -8 -67 5 -77 23 -17 94 -27 106 -15 14 14 22 166 14 236 -7 55 -8 56 -39 55 -18 0 -36 -2 -42 -4z"/>
<path d="M180 2319 c-68 -100 -96 -122 -145 -113 l-35 6 0 -65 c0 -71 5 -77 59 -71 66 8 126 51 188 137 32 44 62 86 66 93 5 9 -5 28 -29 54 -20 22 -39 40 -43 40 -3 0 -31 -37 -61 -81z"/>
<path d="M2380 2328 c0 -7 21 -34 48 -60 l47 -49 6 -87 6 -87 0 107 1 107 -44 41 c-45 41 -64 49 -64 28z"/>
<path d="M3460 2301 c-5 -10 -10 -42 -12 -72 l-3 -53 35 -7 c75 -16 72 -17 91 36 9 28 18 55 18 61 1 6 -26 20 -59 32 -57 19 -61 19 -70 3z"/>
<path d="M1444 2282 c-111 -33 -185 -88 -239 -177 -31 -52 -75 -167 -75 -197 0 -11 51 -33 96 -41 31 -6 32 -5 38 36 14 91 79 193 145 226 99 49 180 51 275 8 48 -22 56 -30 57 -54 1 -27 1 -27 8 -4 6 24 7 23 46 -17 21 -23 42 -42 46 -42 4 0 25 23 48 51 l40 51 -32 35 c-34 38 -115 88 -187 117 -67 26 -191 30 -266 8z"/>
<path d="M2106 2291 c-3 -5 17 -30 45 -56 36 -34 54 -44 61 -37 14 14 3 28 -56 70 -25 18 -47 28 -50 23z"/>
<path d="M2290 2204 c-109 -160 -142 -211 -162 -249 -11 -22 -65 -106 -119 -187 l-98 -146 45 -37 c44 -37 45 -37 66 -19 20 18 75 100 316 471 l103 158 -43 37 c-24 21 -47 37 -53 38 -5 0 -30 -30 -55 -66z"/>
<path d="M3837 2253 c-2 -5 -23 -66 -47 -138 -23 -71 -53 -159 -66 -194 -13 -35 -24 -68 -24 -73 0 -9 101 -58 120 -58 6 0 10 6 10 13 0 8 7 27 14 43 15 29 126 343 126 355 0 7 -101 59 -117 59 -7 0 -14 -3 -16 -7z"/>
<path d="M324 2198 c-17 -18 -42 -47 -55 -64 -13 -17 -61 -75 -107 -129 -91 -108 -92 -112 -28 -160 l28 -20 31 35 c18 20 79 93 137 163 57 70 109 127 114 127 6 0 -8 18 -29 40 -21 22 -44 40 -50 40 -6 0 -25 -15 -41 -32z"/>
<path d="M2043 2208 c-11 -13 -39 -59 -63 -103 -149 -278 -178 -317 -264 -356 -74 -34 -246 -16 -231 24 3 7 -1 27 -10 43 -20 39 -19 73 5 112 16 26 26 32 54 32 33 0 76 -30 76 -51 0 -10 78 17 96 32 7 6 18 8 24 4 16 -10 12 6 -13 49 -22 40 -62 76 -88 79 -8 2 -21 7 -29 12 -41 26 -145 0 -198 -49 -52 -46 -67 -93 -65 -197 2 -109 12 -139 67 -187 42 -37 86 -51 181 -59 86 -7 164 13 245 62 74 45 100 80 205 270 48 88 98 176 110 195 l22 35 -48 38 c-26 20 -49 37 -51 37 -3 0 -14 -10 -25 -22z"/>
<path d="M477 2102 c-8 -9 -76 -109 -151 -220 l-137 -204 36 -39 c21 -23 35 -50 36 -67 1 -21 2 -22 6 -7 6 23 228 358 280 423 19 23 33 49 30 56 -3 7 -23 27 -45 44 -37 30 -40 30 -55 14z"/>
<path d="M956 2101 c-3 -5 9 -22 28 -39 18 -16 36 -35 39 -43 3 -9 6 -10 6 -2 1 18 31 4 32 -16 1 -9 5 0 9 19 5 19 8 35 7 36 -6 5 -107 54 -111 54 -3 0 -7 -4 -10 -9z"/>
<path d="M2581 2080 c-67 -24 -74 -31 -63 -60 7 -18 10 -20 15 -8 3 9 31 27 61 41 31 14 56 31 56 36 0 14 -6 14 -69 -9z"/>
<path d="M3446 2068 c-8 -18 -17 -47 -20 -64 -6 -28 -4 -31 29 -42 36 -10 37 -10 50 21 35 86 29 116 -23 117 -17 0 -27 -9 -36 -32z"/>
<path d="M3250 2050 c0 -12 117 -48 131 -40 7 5 7 10 1 14 -19 12 -132 34 -132 26z"/>
<path d="M888 2013 c-10 -16 -47 -61 -83 -101 l-66 -74 23 -17 c13 -9 37 -27 54 -39 l31 -21 69 82 c92 108 107 132 91 145 -12 9 -93 52 -99 52 -2 0 -11 -12 -20 -27z"/>
<path d="M2472 1981 c-2 -37 -5 -42 -19 -36 -35 14 -46 9 -83 -41 l-38 -51 69 -49 c38 -27 67 -54 64 -61 -2 -7 2 -10 10 -7 12 5 85 -83 145 -175 l15 -23 60 26 c32 15 61 28 63 31 6 6 -66 113 -125 187 -30 37 -77 84 -104 103 -45 34 -48 39 -52 88 -3 50 -3 51 -5 8z"/>
<path d="M3195 1943 c-14 -31 -24 -57 -23 -59 10 -9 260 -118 339 -147 52 -19 134 -54 181 -76 47 -23 90 -41 94 -41 14 0 50 62 57 97 5 27 3 33 -16 39 -12 3 -55 22 -95 40 -74 35 -364 151 -460 185 l-53 18 -24 -56z"/>
<path d="M0 1944 l0 -49 20 25 c24 31 24 33 0 55 -20 18 -20 17 -20 -31z"/>
<path d="M996 1824 c-31 -67 -30 -64 -10 -64 8 0 36 -12 62 -27 113 -64 163 -122 210 -240 25 -66 26 -73 24 -251 -3 -175 -2 -186 21 -235 39 -85 172 -199 193 -165 5 8 10 6 15 -8 5 -13 8 -8 8 21 0 22 2 63 4 90 2 28 7 120 10 205 l5 155 -12 -157 c-6 -87 -15 -160 -18 -163 -11 -11 -45 17 -73 59 -27 41 -27 41 -21 177 8 171 -3 249 -53 354 -44 93 -83 144 -154 202 -50 42 -155 103 -175 103 -6 0 -22 -25 -36 -56z"/>
<path d="M1671 1866 c-54 -14 -72 -43 -20 -32 72 14 109 27 104 36 -8 12 -28 11 -84 -4z"/>
<path d="M18 1835 c-14 -19 -18 -44 -18 -122 l1 -98 22 30 c12 16 42 54 66 84 l44 55 -43 38 c-23 21 -45 38 -49 38 -3 0 -14 -11 -23 -25z"/>
<path d="M3177 1813 c-11 -13 -36 -37 -58 -52 l-38 -28 25 -51 c40 -81 42 -81 123 -11 39 34 76 69 81 79 11 21 5 28 -65 63 l-50 25 -18 -25z"/>
<path d="M456 1766 c-20 -23 -36 -45 -36 -48 0 -2 29 -28 65 -58 36 -30 65 -60 65 -68 0 -7 20 10 45 39 25 30 44 59 43 65 -4 14 -124 114 -137 114 -5 0 -26 -20 -45 -44z"/>
<path d="M2241 1749 c-23 -29 -41 -55 -41 -58 0 -4 22 -24 50 -45 78 -60 152 -146 195 -229 31 -60 45 -77 62 -77 26 0 113 36 113 47 0 18 -83 159 -125 213 -42 55 -192 200 -207 200 -3 0 -25 -23 -47 -51z"/>
<path d="M3305 1647 c-50 -52 -105 -100 -123 -108 -18 -7 -32 -18 -32 -24 0 -13 59 -115 66 -115 53 0 294 228 294 278 0 9 -91 62 -106 62 -5 0 -50 -42 -99 -93z"/>
<path d="M757 1695 c-49 -19 -137 -77 -168 -112 -21 -24 -89 -110 -124 -159 -7 -10 2 -26 36 -60 l46 -45 43 58 c93 126 167 188 239 199 74 12 185 -61 223 -148 14 -30 25 -27 90 24 l38 29 -41 56 c-53 72 -92 106 -157 139 -64 33 -167 42 -225 19z"/>
<path d="M3893 1685 c-6 -16 -18 -47 -28 -69 -10 -25 -12 -37 -4 -34 14 5 50 97 46 118 -1 9 -7 2 -14 -15z"/>
<path d="M3945 1623 c-28 -60 -29 -65 -19 -128 l7 -39 -34 25 c-42 32 -99 62 -106 56 -2 -3 -20 -29 -38 -58 l-34 -54 37 -16 c39 -17 86 -64 118 -118 13 -21 25 -31 39 -29 15 2 20 -3 20 -22 0 -20 -6 -26 -27 -28 -16 -2 -28 -9 -28 -17 0 -8 12 -15 28 -17 21 -2 28 -9 30 -32 4 -28 3 -29 -33 -23 -31 5 -37 3 -44 -16 -16 -43 -96 -105 -157 -123 -54 -15 -143 -15 -185 1 -10 4 -19 -9 -31 -42 -33 -98 -35 -90 29 -103 125 -26 273 4 367 76 25 19 46 31 46 27 0 -9 29 41 61 106 22 46 17 60 -23 61 -14 0 -18 8 -18 36 0 34 2 36 27 31 33 -6 53 1 53 19 0 10 -12 14 -40 14 -38 0 -40 2 -40 30 0 25 5 31 40 41 22 7 40 14 40 16 0 10 -35 71 -58 102 -34 46 -40 118 -14 180 44 105 34 142 -13 44z"/>
<path d="M3595 1650 c4 -6 -38 -55 -93 -108 -106 -103 -141 -153 -119 -170 22 -17 96 -52 112 -52 8 0 15 7 15 16 0 9 39 53 86 98 71 67 124 136 124 160 0 6 -115 66 -125 66 -4 0 -3 -5 0 -10z"/>
<path d="M93 1627 c-11 -12 -28 -34 -38 -49 -17 -28 -17 -28 15 -65 83 -97 205 -214 310 -298 151 -120 164 -128 238 -155 211 -76 438 105 382 305 -31 111 -171 171 -251 106 -20 -16 -21 -21 -10 -52 15 -44 51 -89 58 -71 6 15 55 16 71 0 20 -20 14 -82 -10 -113 -48 -62 -160 -83 -232 -44 -73 39 -281 216 -397 337 l-116 122 -20 -23z"/>
<path d="M2110 1596 c-42 -42 -44 -45 -41 -100 1 -31 0 -56 -3 -56 -3 0 -25 15 -49 33 -91 70 -211 101 -327 86 -78 -10 -167 -41 -194 -68 -19 -20 -19 -20 7 -83 15 -35 27 -72 27 -83 1 -14 7 -9 21 18 57 109 293 106 416 -5 24 -22 35 -19 104 32 35 25 36 28 21 41 -13 11 -17 27 -14 61 3 38 12 55 53 101 42 48 51 67 29 67 -3 0 -26 -20 -50 -44z"/>
<path d="M369 1598 c-54 -57 -54 -62 -1 -107 26 -23 52 -41 58 -41 26 0 97 101 76 108 -6 2 -31 19 -56 38 l-45 34 -32 -32z"/>
<path d="M4058 1544 c-63 -53 -64 -58 -26 -106 18 -23 44 -76 58 -117 l26 -76 44 -8 c25 -4 55 -13 67 -19 13 -6 26 -8 30 -5 9 10 -24 148 -50 206 -17 39 -95 161 -103 161 -1 0 -22 -16 -46 -36z"/>
<path d="M2182 1539 c-23 -17 -42 -34 -42 -37 0 -4 -2 -38 -4 -77 -2 -38 -2 -61 0 -50 3 11 7 31 10 44 3 13 30 49 59 81 51 53 58 70 30 70 -6 0 -30 -14 -53 -31z"/>
<path d="M2250 1477 c-62 -32 -68 -48 -36 -80 15 -15 39 -53 53 -84 23 -51 25 -64 20 -144 l-6 -88 50 -10 c28 -6 56 -11 63 -11 29 0 36 205 9 272 -17 43 -85 152 -102 162 -5 3 -28 -5 -51 -17z"/>
<path d="M17 1442 c-12 -13 -17 -36 -17 -73 l0 -54 87 -82 c49 -46 93 -83 100 -83 11 0 73 77 73 91 0 4 -14 20 -32 36 -17 15 -57 53 -88 83 -112 108 -104 103 -123 82z"/>
<path d="M3167 1366 c-15 -38 -18 -110 -7 -156 l12 -50 61 0 c84 0 91 6 70 59 -13 34 -15 50 -6 82 12 45 11 46 -60 65 -64 17 -64 17 -70 0z"/>
<path d="M1090 1332 c0 -22 -4 -62 -10 -91 -5 -28 -7 -57 -5 -64 6 -13 95 -71 101 -64 10 10 33 130 36 187 l3 65 -62 3 -63 3 0 -39z"/>
<path d="M652 1330 c-13 -36 -2 -44 71 -55 38 -6 47 -4 47 7 0 18 -24 40 -67 62 -41 21 -39 21 -51 -14z"/>
<path d="M1730 1346 c-73 -16 -105 -39 -141 -100 -21 -38 -29 -64 -29 -102 0 -68 12 -77 80 -64 29 5 55 10 57 10 3 0 2 16 -1 35 -6 31 -3 40 23 65 16 17 40 30 54 30 30 0 77 -36 77 -59 0 -18 51 -72 86 -90 34 -17 49 10 49 85 0 53 -4 69 -30 105 -30 42 -92 82 -145 92 -14 3 -50 0 -80 -7z"/>
<path d="M3631 1318 c-11 -24 -23 -55 -26 -70 -6 -24 -4 -28 13 -28 29 0 37 -19 16 -35 -28 -21 -73 -18 -103 8 -22 18 -42 23 -101 25 -74 3 -74 3 -56 -16 9 -11 19 -27 20 -36 4 -26 77 -97 121 -117 69 -32 133 -24 207 27 92 64 89 187 -5 255 -22 16 -46 29 -53 29 -7 0 -21 -19 -33 -42z"/>
<path d="M2131 1332 c-1 -18 -13 -28 -51 -44 -52 -21 -54 -27 -40 -83 7 -29 8 -29 9 -4 1 19 9 30 31 39 16 7 33 12 37 13 11 1 43 43 43 57 0 6 -4 9 -9 5 -5 -3 -12 5 -14 17 l-4 23 -2 -23z"/>
<path d="M3360 1307 c24 -22 129 -57 136 -46 8 13 10 12 -62 37 -72 26 -96 29 -74 9z"/>
<path d="M2552 1296 c-29 -6 -52 -15 -51 -21 5 -30 11 -33 37 -19 15 8 35 14 45 14 24 0 57 18 57 30 0 12 -19 11 -88 -4z"/>
<path d="M2122 1209 c-2 -39 -14 -49 -59 -49 -37 0 -23 -24 18 -30 19 -3 50 0 69 6 42 14 47 40 8 37 -24 -1 -27 2 -31 35 l-4 37 -1 -36z"/>
<path d="M1 1147 c1 -61 3 -74 9 -52 16 61 18 124 4 129 -11 4 -14 -11 -13 -77z"/>
<path d="M2494 1205 c8 -23 -20 -225 -37 -266 l-16 -36 87 -21 c48 -11 128 -28 177 -37 50 -9 121 -23 159 -31 39 -8 73 -11 76 -7 12 14 40 93 40 112 0 20 4 19 -235 63 l-120 23 3 55 c1 30 5 79 8 108 l5 52 -76 0 c-65 0 -76 -2 -71 -15z"/>
<path d="M4107 1141 c-8 -68 -56 -167 -111 -228 l-44 -48 18 -35 c10 -19 29 -45 42 -58 l25 -22 55 57 c30 32 66 78 81 103 33 57 72 162 81 216 7 49 3 51 -84 61 l-57 6 -6 -52z"/>
<path d="M4390 1174 c-89 -38 -134 -123 -120 -225 9 -66 23 -94 105 -214 34 -50 64 -97 66 -104 4 -10 21 -5 67 18 34 17 62 35 62 40 0 5 -19 37 -42 71 -106 153 -117 173 -117 221 -1 34 4 51 19 64 19 17 23 18 48 3 31 -17 159 -32 167 -18 8 13 -13 62 -38 88 -32 34 -111 72 -149 72 -18 -1 -49 -8 -68 -16z"/>
<path d="M292 1130 c-33 -38 -42 -55 -37 -71 5 -15 10 -18 15 -10 5 9 16 5 37 -13 17 -14 35 -26 40 -26 5 0 26 21 47 46 l39 46 -44 39 c-24 21 -46 38 -49 39 -3 0 -24 -23 -48 -50z"/>
<path d="M1006 1080 c-89 -134 -322 -172 -468 -75 -38 25 -41 26 -59 9 -28 -26 -58 -80 -50 -93 16 -24 160 -89 227 -101 126 -22 284 25 391 116 l53 46 0 -56 c0 -31 4 -55 8 -53 5 1 30 -25 57 -57 27 -33 60 -70 74 -83 41 -37 215 -121 266 -128 52 -8 58 -16 91 -120 19 -60 26 -70 47 -73 36 -4 107 16 107 31 0 20 -89 279 -101 293 -7 8 -22 11 -40 7 -26 -5 -29 -3 -29 20 0 36 17 44 97 49 60 3 79 9 115 34 43 30 118 119 118 141 0 6 -23 28 -51 49 -50 36 -52 37 -65 18 -63 -92 -88 -109 -159 -109 -39 0 -40 -1 -52 -45 -6 -25 -12 -71 -12 -102 -1 -55 -2 -58 -26 -58 -14 0 -25 4 -25 10 0 5 -6 7 -14 4 -19 -7 -105 31 -161 71 -25 17 -66 59 -91 93 l-46 62 -43 -30 c-24 -17 -47 -30 -50 -30 -7 0 -1 66 9 110 6 22 0 29 -43 57 l-49 32 -26 -39z"/>
<path d="M66 1036 c-10 -35 -28 -87 -42 -116 -20 -43 -24 -68 -24 -146 0 -53 4 -94 9 -94 13 0 50 49 95 123 35 59 100 243 91 257 -5 8 -91 40 -105 40 -4 0 -15 -29 -24 -64z"/>
<path d="M2032 1039 c-3 -95 -169 -286 -266 -304 -29 -6 -36 -11 -31 -24 4 -9 15 -50 26 -91 28 -117 131 -397 201 -553 l31 -67 73 0 c41 0 74 4 74 9 0 6 -9 25 -19 43 -42 71 -221 540 -221 578 0 9 13 23 29 33 15 9 56 46 89 81 64 69 134 196 151 274 8 39 7 42 -13 43 -11 0 -44 2 -72 3 -49 3 -51 2 -52 -25z"/>
<path d="M1645 1032 c-41 -14 -45 -18 -25 -20 14 -2 46 6 70 17 56 24 25 26 -45 3z"/>
<path d="M2298 994 c34 -19 62 -40 62 -46 0 -6 -21 -8 -57 -3 -70 8 -83 -1 -108 -70 -10 -27 -26 -64 -37 -82 l-19 -31 63 -45 c60 -44 63 -45 69 -24 3 12 15 40 26 62 11 22 32 78 48 125 15 47 32 93 37 104 15 29 -5 40 -80 43 l-67 4 63 -37z"/>
<path d="M245 985 c-4 -11 -11 -29 -16 -40 -5 -11 -18 -49 -30 -84 l-21 -64 40 -36 c21 -20 46 -35 55 -33 14 3 77 165 77 200 0 7 -20 22 -44 33 -25 10 -46 25 -49 32 -3 7 -7 4 -12 -8z"/>
<path d="M4506 952 c-16 -35 -16 -42 -3 -73 8 -19 26 -45 41 -58 l26 -24 21 24 c30 34 61 99 55 114 -2 7 -24 19 -48 28 -24 8 -50 18 -59 21 -11 5 -20 -4 -33 -32z"/>
<path d="M3932 889 c-3 -65 -30 -88 -123 -101 -243 -34 -297 -50 -358 -110 l-32 -31 31 -32 c17 -18 42 -38 56 -45 21 -12 27 -11 47 8 32 30 63 39 194 57 65 9 126 21 136 27 10 5 25 7 33 4 8 -3 14 1 14 9 0 8 7 18 16 23 13 7 15 16 9 33 -4 13 -11 65 -15 114 -4 53 -7 71 -8 44z"/>
<path d="M387 808 c-26 -59 -27 -62 -10 -81 19 -20 65 -47 81 -47 14 0 74 118 67 130 -5 9 -99 61 -107 60 -2 -1 -15 -28 -31 -62z"/>
<path d="M987 823 c-32 -22 -37 -31 -32 -51 10 -42 75 -134 139 -198 52 -52 155 -124 178 -124 9 0 83 109 77 113 -2 1 -30 15 -61 31 -77 38 -132 88 -198 180 -30 42 -57 76 -60 75 -3 0 -22 -12 -43 -26z"/>
<path d="M4188 815 c-64 -47 -66 -54 -32 -84 18 -15 50 -70 79 -133 l50 -108 50 0 c66 0 79 9 70 49 -16 72 -143 311 -165 311 -3 0 -26 -16 -52 -35z"/>
<path d="M564 733 c-16 -38 -39 -83 -51 -102 -13 -19 -23 -37 -23 -40 0 -4 14 -29 31 -55 l30 -49 30 29 c33 31 117 194 122 233 2 20 -5 25 -48 37 -27 7 -53 13 -56 14 -4 0 -20 -30 -35 -67z"/>
<path d="M819 766 c-47 -19 -54 -25 -51 -46 2 -14 10 -29 18 -33 8 -5 12 -12 9 -18 -18 -28 137 -250 213 -306 l29 -22 -14 -53 c-19 -70 -27 -184 -19 -242 l7 -46 70 0 69 0 -7 27 c-18 63 -7 175 26 270 17 50 31 94 31 97 0 3 -19 15 -42 27 -24 12 -75 55 -115 95 -55 57 -84 97 -122 173 l-49 99 -53 -22z"/>
<path d="M93 681 c-26 -30 -29 -40 -21 -56 15 -29 60 -75 72 -75 11 0 76 73 76 84 0 7 -79 80 -89 83 -3 0 -20 -15 -38 -36z"/>
<path d="M2364 695 c4 -14 21 -48 38 -76 25 -42 33 -48 40 -35 7 12 -1 33 -27 76 -38 63 -62 79 -51 35z"/>
<path d="M2025 654 c-22 -8 -43 -18 -48 -23 -11 -11 202 -482 225 -497 8 -5 118 62 118 71 0 3 -7 17 -17 31 -9 14 -37 73 -63 132 -25 59 -66 151 -91 204 -48 107 -51 109 -124 82z"/>
<path d="M4061 659 c-14 -5 -40 -19 -57 -30 l-33 -20 29 -62 c38 -81 70 -204 70 -266 0 -73 -34 -172 -80 -230 l-40 -51 89 0 89 0 21 36 c33 55 61 171 61 249 0 82 -37 230 -80 323 -31 66 -31 66 -69 51z"/>
<path d="M273 633 c-11 -16 -24 -40 -31 -55 -10 -24 -9 -28 3 -28 22 0 100 -74 132 -126 16 -24 35 -44 44 -44 9 0 33 15 54 33 l38 33 -33 50 c-52 74 -143 164 -167 164 -12 0 -30 -12 -40 -27z"/>
<path d="M2263 603 c-12 -19 -17 -47 -17 -97 0 -60 4 -79 27 -118 41 -71 82 -98 147 -98 75 0 135 31 171 88 42 66 36 152 -10 167 -27 8 -84 -35 -105 -79 -34 -71 -92 -42 -90 45 2 46 0 50 -41 84 -24 19 -48 35 -54 35 -6 0 -18 -12 -28 -27z"/>
<path d="M4513 612 c-64 -26 -71 -38 -29 -46 39 -8 48 -30 20 -51 -15 -11 -15 -19 -4 -77 11 -53 11 -81 1 -138 -6 -40 -10 -74 -9 -75 10 -9 110 -65 117 -65 24 0 40 202 24 328 l-6 53 -48 -6 c-45 -6 -49 -5 -49 14 0 12 6 21 13 21 19 1 59 38 52 50 -9 14 -33 12 -82 -8z"/>
<path d="M750 606 c0 -13 -74 -84 -121 -117 -23 -16 -23 -16 -5 -62 26 -69 39 -75 83 -42 51 38 103 86 114 108 8 13 2 31 -23 72 -32 54 -48 68 -48 41z"/>
<path d="M3819 597 c-67 -41 -69 -45 -47 -70 32 -36 60 -116 67 -191 l6 -69 52 -20 c75 -28 83 -22 83 66 0 85 -20 169 -58 247 -32 64 -50 70 -103 37z"/>
<path d="M3920 606 c0 -8 4 -17 9 -20 5 -4 7 3 4 14 -6 23 -13 26 -13 6z"/>
<path d="M1501 563 c-1 -26 -7 -36 -33 -49 -58 -28 -128 -79 -128 -92 0 -7 19 -33 42 -58 41 -44 41 -44 62 -26 32 28 91 62 110 62 20 0 14 31 -17 100 -12 25 -24 56 -28 70 -6 23 -7 23 -8 -7z"/>
<path d="M3370 572 c0 -17 123 -83 134 -72 12 12 13 12 -61 49 -68 34 -73 35 -73 23z"/>
<path d="M2684 492 c-1 -93 -100 -232 -198 -279 -20 -9 -36 -22 -36 -28 0 -12 30 -118 35 -123 7 -8 136 63 176 98 86 73 156 201 161 296 l3 47 -65 18 c-36 11 -67 19 -70 19 -3 0 -5 -21 -6 -48z"/>
<path d="M0 436 l0 -65 58 -11 c101 -20 133 -33 158 -63 24 -28 28 -29 81 -24 30 3 57 8 60 10 9 9 -35 82 -69 113 -55 53 -118 77 -250 99 l-38 6 0 -65z"/>
<path d="M2895 436 c-32 -116 -99 -238 -168 -309 -36 -36 -84 -78 -108 -94 l-43 -28 115 -3 114 -3 53 58 c89 98 208 371 176 403 -5 4 -34 15 -66 23 l-56 15 -17 -62z"/>
<path d="M3610 463 c-18 -23 -50 -86 -50 -99 0 -1 12 -4 28 -6 23 -3 27 -8 27 -33 0 -23 -7 -33 -30 -45 -32 -15 -109 -125 -100 -141 4 -5 31 -9 62 -9 140 0 243 115 213 239 -13 53 -23 68 -67 99 -41 29 -57 28 -83 -5z"/>
<path d="M3322 402 c4 -55 13 -84 39 -133 19 -34 44 -68 56 -76 19 -13 23 -10 57 41 l36 55 -25 37 c-21 31 -25 45 -19 80 l6 41 -59 7 c-32 4 -67 10 -77 13 -18 5 -19 0 -14 -65z"/>
<path d="M839 404 c-40 -42 -134 -99 -191 -117 -38 -12 -39 -13 -33 -47 3 -19 11 -50 18 -68 13 -38 17 -38 134 19 76 37 193 128 193 151 0 12 -70 98 -79 98 -4 0 -23 -16 -42 -36z"/>
<path d="M4347 429 c-32 -3 -61 -9 -64 -13 -10 -9 120 -7 135 3 22 14 -6 18 -71 10z"/>
<path d="M1290 357 c0 -7 19 -32 43 -55 32 -32 46 -39 57 -31 12 8 6 18 -35 54 -52 47 -65 54 -65 32z"/>
<path d="M1564 328 c-61 -35 -67 -40 -98 -86 -39 -56 -47 -144 -21 -203 l18 -39 94 0 c51 0 93 2 93 4 0 1 -5 16 -10 32 -8 21 -17 29 -36 31 -54 3 -59 56 -10 107 18 20 43 36 54 36 34 0 70 -41 91 -105 11 -33 24 -61 29 -63 5 -1 31 12 58 30 56 38 58 50 18 135 -58 121 -182 175 -280 121z"/>
<path d="M472 323 l-43 -15 8 -42 c9 -48 10 -187 0 -233 l-6 -33 63 0 c49 0 65 4 70 16 8 21 7 229 -2 279 -8 47 -24 52 -90 28z"/>
<path d="M4290 298 c0 -70 -26 -221 -44 -255 -9 -18 -16 -34 -16 -38 0 -3 36 -5 79 -5 l79 0 11 47 c10 44 31 230 31 274 0 17 -8 19 -70 19 l-70 0 0 -42z"/>
<path d="M1240 282 c0 -12 79 -82 92 -82 5 0 8 -10 6 -22 -3 -20 -8 -21 -72 -19 l-68 2 6 -40 c3 -23 9 -59 12 -81 l6 -40 70 0 c63 0 69 2 63 18 -15 33 -17 78 -6 137 9 46 8 62 -1 71 -25 23 -108 66 -108 56z"/>
<path d="M37 248 l-37 -10 0 -119 c0 -65 3 -119 8 -119 4 0 7 18 7 41 0 31 6 46 24 60 31 25 49 24 63 -5 l11 -25 48 25 c53 26 57 36 35 88 -28 67 -76 86 -159 64z"/>
<path d="M3011 201 c-35 -31 -50 -50 -43 -55 7 -4 12 -35 12 -77 l0 -69 95 0 c52 0 95 2 95 4 0 2 -20 36 -43 75 l-44 70 -34 -29 c-19 -16 -37 -29 -41 -30 -20 -1 -5 53 25 92 65 85 58 91 -22 19z"/>
<path d="M3810 221 c0 -14 88 -91 105 -91 27 0 16 17 -36 59 -51 41 -69 49 -69 32z"/>
<path d="M852 193 l-43 -15 3 -86 3 -87 63 -3 c62 -3 64 -3 56 20 -4 13 -7 60 -7 106 0 92 0 92 -75 65z"/>
<path d="M243 146 c0 -31 -9 -69 -22 -94 -12 -23 -21 -44 -21 -47 0 -3 31 -5 69 -5 l69 0 11 33 c15 49 24 123 16 146 -5 18 -14 21 -63 21 l-57 0 -2 -54z"/>
<path d="M3763 148 c-17 -37 -120 -88 -186 -91 -52 -2 -56 -4 -59 -29 l-5 -28 146 0 c144 0 145 0 173 27 15 15 28 32 28 37 -1 6 -20 33 -43 59 -43 49 -43 49 -54 25z"/>
<path d="M4468 142 c-10 -16 -20 -46 -23 -68 -6 -37 -5 -40 27 -53 18 -8 36 -16 40 -18 6 -4 78 100 78 112 0 8 -57 44 -81 50 -19 5 -27 0 -41 -23z"/>
<path d="M4639 133 c-5 -15 -26 -49 -45 -75 -18 -26 -34 -50 -34 -53 0 -3 36 -5 80 -5 l80 0 0 74 c0 58 -3 75 -16 80 -33 13 -55 6 -65 -21z"/>
<path d="M2280 99 c-47 -30 -60 -43 -51 -52 6 -6 11 -19 11 -29 0 -10 4 -18 9 -18 14 0 111 108 111 124 0 23 -10 20 -80 -25z"/>
<path d="M673 103 l-43 -4 0 -50 0 -49 66 0 c56 0 65 2 60 16 -3 9 -6 33 -6 55 0 31 -4 39 -17 37 -10 -1 -37 -3 -60 -5z"/>
<path d="M1863 30 c-18 -11 -33 -22 -33 -25 0 -3 20 -5 45 -5 47 0 53 6 33 33 -12 16 -15 16 -45 -3z"/>
<path d="M2350 25 l-34 -25 48 0 c40 0 47 3 42 16 -3 9 -6 20 -6 25 0 15 -14 10 -50 -16z"/>
</g>
</svg>