<svg xmlns="http://www.w3.org/2000/svg" version="1.1" xmlns:xlink="http://www.w3.org/1999/xlink"
  xmlns:svgjs="http://svgjs.com/svgjs" viewBox="0 0 64 64" style="enable-background:new 0 0 512 512"
  xml:space="preserve" class="">
  <g>
    <path xmlns="http://www.w3.org/2000/svg"
      d="m23 46a1 1 0 0 0 -1 1v5a5 5 0 0 0 5 5h.1a5 5 0 0 0 9.8 0h.1a5 5 0 0 0 5-5v-5a1 1 0 0 0 -1-1z"></path>
    <path xmlns="http://www.w3.org/2000/svg"
      d="m43.51 43.72a22 22 0 0 0 -12.74-40.72 22.06 22.06 0 0 0 -20.77 21.66 21.8 21.8 0 0 0 10.49 19.06 3.37 3.37 0 0 1 .85.79c1.31-.88 2.12-.36 9.66-.51v-16.54a3.65 3.65 0 0 0 -1.2-2 57.43 57.43 0 0 0 -8.51-5.34 61 61 0 0 0 7.12 7 2.15 2.15 0 0 1 .48 1.75 10.4 10.4 0 0 1 -12.89-11.07 1 1 0 0 1 .42-.72 10.35 10.35 0 0 1 15.58 4.25 10.35 10.35 0 0 1 15.54-4.25 1 1 0 0 1 .42.72 10.4 10.4 0 0 1 -12.85 11.05 2.18 2.18 0 0 1 .48-1.75 60.24 60.24 0 0 0 7.12-7 49.72 49.72 0 0 0 -6.85 4.15c-1.46 1-2.49 1.55-2.86 3.16v16.59c7.56.15 8.35-.37 9.66.51a3.37 3.37 0 0 1 .85-.79z">
    </path>
  </g>
</svg>
