<svg id="fi_17191424" viewBox="0 0 16 16"
    xmlns="http://www.w3.org/2000/svg">
    <g >
        <path d="m15 8.5c-.276 0-.5-.224-.5-.5v-3.5h-3.5c-.276 0-.5-.224-.5-.5s.224-.5.5-.5h4c.276 0 .5.224.5.5v4c0 .276-.224.5-.5.5z"></path>
        <path d="m1 12.5c-.128 0-.256-.049-.354-.146-.195-.195-.195-.512 0-.707l5-5c.195-.195.512-.195.707 0l2.646 2.646 5.646-5.646c.195-.195.512-.195.707 0s.195.512 0 .707l-6 6c-.195.195-.512.195-.707 0l-2.646-2.646-4.645 4.646c-.098.098-.226.146-.354.146z"></path>
    </g>
</svg>