<svg xmlns="http://www.w3.org/2000/svg" version="1.0" viewBox="0 0 359.000000 360.000000" preserveAspectRatio="xMidYMid meet">

    <g transform="translate(0.000000,360.000000) scale(0.100000,-0.100000)">
        <path d="M515 3593 c-229 -31 -421 -198 -492 -428 -17 -57 -18 -126 -18 -1365 0 -1239 1 -1308 18 -1365 63 -205 207 -349 412 -412 57 -17 126 -18 1360 -18 l1300 0 88 29 c158 52 272 152 344 301 66 140 64 80 61 1498 -3 1435 3 1310 -76 1462 -67 127 -193 228 -352 281 -52 18 -121 19 -1335 20 -704 1 -1293 -1 -1310 -3z m1605 -523 c270 -24 670 -95 753 -135 18 -8 38 -25 46 -37 43 -69 115 -449 141 -753 34 -385 -4 -925 -92 -1285 -34 -143 -49 -174 -94 -195 -43 -20 -213 -60 -359 -85 -297 -49 -367 -54 -720 -54 -300 -1 -359 2 -500 22 -216 30 -371 58 -484 87 -134 34 -144 45 -187 221 -77 312 -109 639 -101 1034 7 352 39 615 108 880 37 143 52 161 158 189 164 43 438 88 666 110 129 12 530 13 665 1z"/>
        <path d="M1465 2829 c-166 -15 -585 -86 -600 -101 -11 -10 -75 -398 -90 -543 -22 -206 -22 -576 0 -775 16 -156 22 -192 61 -402 l26 -138 37 -10 c41 -11 292 -55 396 -69 156 -22 310 -32 501 -32 264 0 449 18 749 72 176 32 182 34 189 72 127 626 134 1076 26 1661 -16 88 -35 163 -42 167 -29 18 -418 81 -608 98 -132 13 -513 12 -645 0z m869 -594 c39 -19 66 -62 66 -107 0 -41 -70 -173 -160 -301 -85 -121 -300 -336 -411 -411 -112 -75 -144 -80 -220 -33 -132 80 -282 209 -375 322 -51 63 -58 126 -19 173 31 36 77 52 119 41 17 -5 68 -49 125 -107 53 -55 127 -122 165 -150 l68 -51 57 43 c76 60 226 216 288 301 27 39 76 114 107 167 73 125 113 149 190 113z"/>
    </g>
</svg>