<svg xmlns="http://www.w3.org/2000/svg" version="1.0" viewBox="0 0 289.000000 314.000000" preserveAspectRatio="xMidYMid meet">

  <g transform="translate(0.000000,314.000000) scale(0.100000,-0.100000)">
    <path d="M1055 3084 c-232 -15 -450 -40 -516 -59 -79 -23 -157 -66 -220 -123 -139 -126 -177 -251 -211 -687 -16 -211 -16 -793 0 -975 20 -218 43 -381 63 -439 44 -126 153 -249 274 -306 77 -36 154 -51 395 -76 173 -19 269 -22 618 -23 l412 -1 0 -133 c0 -173 13 -202 91 -202 21 0 71 27 162 87 73 47 197 129 277 181 269 177 330 261 370 512 48 295 55 402 55 900 0 393 -3 502 -18 630 -37 320 -65 400 -181 516 -140 140 -233 166 -741 199 -271 18 -553 17 -830 -1z m1104 -1433 c11 -7 12 -23 7 -71 -44 -386 -398 -665 -786 -618 -326 39 -567 273 -620 600 -17 108 -90 98 698 98 378 0 693 -4 701 -9z"/>
  </g>
</svg>