<svg xmlns="http://www.w3.org/2000/svg" version="1.1"
    xmlns:xlink="http://www.w3.org/1999/xlink" viewBox="0 0 100 101" style="enable-background:new 0 0 512 512" xml:space="preserve">
    <g transform="matrix(1.460000000000002,0,0,1.460000000000002,-23.0000000000001,-23.285201263427815)">
        <path fill-rule="evenodd" d="M50 16.763c-6.49 0-11.752 5.262-11.752 11.752v20.924c0 6.49 5.261 11.751 11.752 11.751 6.49 0 11.751-5.261 11.751-11.751V28.515c0-6.49-5.261-11.752-11.751-11.752zm8.751 32.675V28.516a8.752 8.752 0 1 0-17.503 0v20.924a8.752 8.752 0 0 0 17.503 0z"></path>
        <path d="M29.306 47.709a1.5 1.5 0 0 1 1.5 1.5 19.194 19.194 0 1 0 38.388 0 1.5 1.5 0 1 1 3 0A22.193 22.193 0 0 1 51.5 71.352v11.625a1.5 1.5 0 0 1-3 0V71.352A22.194 22.194 0 0 1 27.806 49.21a1.5 1.5 0 0 1 1.5-1.5z"></path>
    </g>
</svg>