<svg xmlns="http://www.w3.org/2000/svg" version="1.1"
    xmlns:xlink="http://www.w3.org/1999/xlink" viewBox="0 0 512 512" style="enable-background:new 0 0 512 512" xml:space="preserve">
    <g>
        <path d="M406 31H286c-57.891 0-105 47.109-105 105 0 52.808 39.185 96.636 90 103.931V286a14.983 14.983 0 0 0 9.258 13.857c5.533 2.309 12.023 1.071 16.348-3.252L352.211 241H406c57.891 0 106-47.109 106-105S463.891 31 406 31zM286 150.998c-8.286 0-15-6.716-15-15s6.714-15 15-15c8.284 0 15 6.716 15 15s-6.716 15-15 15zm60 0c-8.286 0-15-6.716-15-15s6.714-15 15-15c8.284 0 15 6.716 15 15s-6.716 15-15 15zm60 0c-8.286 0-15-6.716-15-15s6.714-15 15-15c8.284 0 15 6.716 15 15s-6.716 15-15 15z"></path>
        <path d="M337 481c24.814 0 45-20.186 45-45v-60c0-6.46-4.131-12.188-10.254-14.224l-89.789-30c-4.395-1.479-9.199-.806-13.066 1.743l-38.174 25.444c-40.43-19.277-88.403-67.251-107.681-107.681l25.444-38.174a15.013 15.013 0 0 0 1.743-13.066l-30-89.789A14.982 14.982 0 0 0 106 100H45c-24.814 0-45 19.975-45 44.789C0 317.611 164.178 481 337 481z"></path>
    </g>
</svg>