<svg xmlns="http://www.w3.org/2000/svg" version="1.1"
    xmlns:xlink="http://www.w3.org/1999/xlink" viewBox="0 0 511.999 511.999" style="enable-background:new 0 0 512 512" xml:space="preserve">
    <g>
        <path d="M278.665 0C124.656 0 0 124.635 0 278.665c0 8.292 6.722 15.014 15.014 15.014h263.651c8.292 0 15.014-6.722 15.014-15.014V15.014C293.679 6.722 286.957 0 278.665 0zM171.846 337.086a15.012 15.012 0 0 0-13.167-7.8H69.885a15.015 15.015 0 0 0-14.324 19.511c28.279 90.069 109.845 157.033 208.09 163.202v-112.54a121.785 121.785 0 0 1-91.805-62.373zM348.797 55.562a15.012 15.012 0 0 0-19.511 14.325v88.793a15.015 15.015 0 0 0 7.8 13.166 121.794 121.794 0 0 1 62.372 91.805h112.541c-6.184-98.458-73.346-179.876-163.202-208.089zM399.477 293.678c-6.811 55.148-50.65 98.987-105.798 105.798v112.512c117.153-7.374 210.925-100.997 218.309-218.31H399.477z"></path>
    </g>
</svg>