<svg enable-background="new 0 0 512 512" viewBox="0 0 512 512"
    xmlns="http://www.w3.org/2000/svg">
    <g>
        <path d="m472.572 183.712 14.923-14.922c7.811-7.811 7.811-20.474 0-28.284s-20.474-7.811-28.284 0l-14.923 14.922c-25.898-20.729-57.622-34.46-92.288-38.311v-41.117h20c11.046 0 20-8.954 20-20s-8.954-20-20-20h-80c-11.046 0-20 8.954-20 20s8.954 20 20 20h20v41.117c-34.666 3.85-66.39 17.581-92.288 38.311l-14.923-14.922c-7.811-7.811-20.474-7.811-28.284 0s-7.811 20.474 0 28.284l14.923 14.922c-24.658 30.806-39.428 69.851-39.428 112.288 0 99.252 80.748 180 180 180s180-80.748 180-180c0-42.437-14.77-81.482-39.428-112.288zm-140.572 252.288c-77.196 0-140-62.804-140-140 0-38.54 15.655-73.491 40.937-98.832.039-.038.082-.07.121-.109s.071-.082.11-.121c25.341-25.283 60.292-40.938 98.832-40.938s73.491 15.655 98.832 40.938c.039.039.071.082.11.121s.082.071.121.109c25.282 25.341 40.937 60.292 40.937 98.832 0 77.196-62.804 140-140 140z"></path>
        <path d="m412 276h-60v-60c0-11.046-8.954-20-20-20s-20 8.954-20 20v80c0 11.046 8.954 20 20 20h80c11.046 0 20-8.954 20-20s-8.954-20-20-20z"></path>
        <path d="m120 296c0-11.046-8.954-20-20-20h-80c-11.046 0-20 8.954-20 20s8.954 20 20 20h80c11.046 0 20-8.954 20-20z"></path>
        <path d="m113.707 196h-53.707c-11.046 0-20 8.954-20 20s8.954 20 20 20h53.707c11.046 0 20-8.954 20-20s-8.955-20-20-20z"></path>
        <path d="m113.707 356h-53.707c-11.046 0-20 8.954-20 20s8.954 20 20 20h53.707c11.046 0 20-8.954 20-20s-8.955-20-20-20z"></path>
    </g>
</svg>