<svg viewBox="0 0 32 32" fill="none" class="icon_icon__ECGRl icon_appearance-default___4uy_"
    xmlns="http://www.w3.org/2000/svg">
    <path fill-rule="evenodd" clip-rule="evenodd" d="M21.8102 2.26519C20.8463 1.43955 19.6115 0.988348 18.3345 1.00023H12.1886C11.7537 1.00023 11.4011 1.34299 11.4011 1.7658C11.4011 2.18861 11.7537 2.53137 12.1886 2.53137H13.7307V7.03271H12.5874C12.1525 7.03271 11.7999 7.37547 11.7999 7.79829V11.3731C8.17699 12.2796 5.5 15.4769 5.5 19.2819V27.9584C5.5 29.0859 6.4402 29.9999 7.6 29.9999H24.4C25.5598 29.9999 26.5 29.0859 26.5 27.9584V19.2819C26.5 15.5407 23.9121 12.3871 20.3816 11.4206V7.79829C20.3816 7.37547 20.029 7.03271 19.5941 7.03271H18.269V2.53137H18.3384V2.53141L18.3466 2.53133C19.2312 2.52239 20.0922 2.83428 20.769 3.41402C21.4463 3.99421 21.8933 4.80384 22.0213 5.69436C22.0814 6.11311 22.4794 6.40517 22.9101 6.3467C23.3408 6.28822 23.6413 5.90136 23.5811 5.48261C23.402 4.23535 22.7746 3.09129 21.8102 2.26519ZM15.3057 2.71034V7.03263H16.694V2.71034H15.3057ZM12.6346 12.7608H19.3654C22.5302 13.3376 24.925 16.0379 24.925 19.2819V27.9584C24.925 28.2403 24.6899 28.4688 24.4 28.4688H7.6C7.31005 28.4688 7.075 28.2403 7.075 27.9584V19.2819C7.075 16.0379 9.46985 13.3376 12.6346 12.7608ZM18.8066 11.1443V8.56386H13.3749V11.1315C13.5486 11.1211 13.7237 11.1158 13.9 11.1158H18.1C18.338 11.1158 18.5736 11.1254 18.8066 11.1443ZM9.05367 18.9824C9.05367 18.5596 9.40624 18.2168 9.84117 18.2168H22.1496C22.5845 18.2168 22.9371 18.5596 22.9371 18.9824V25.0594C22.9371 25.4823 22.5845 25.825 22.1496 25.825H9.84117C9.40624 25.825 9.05367 25.4823 9.05367 25.0594V18.9824ZM10.6287 19.7479V24.2939H21.3621V19.7479H10.6287Z"></path>
</svg>