<svg viewBox="0 0 32 32" fill="none" class="icon_icon__ECGRl icon_appearance-default___4uy_"
    xmlns="http://www.w3.org/2000/svg">
    <path fill-rule="evenodd" clip-rule="evenodd" d="M27.9635 2.18141C27.4942 1.99433 26.98 1.95075 26.4859 2.05622C25.9918 2.16169 25.5401 2.41146 25.1882 2.77385C24.8362 3.13623 24.5997 3.59494 24.5087 4.09187C24.4309 4.5165 24.4623 4.95268 24.5983 5.35988L21.5821 8.07379C21.3436 7.84487 21.0629 7.66441 20.7556 7.54252C20.2866 7.35653 19.773 7.31373 19.2797 7.41955C18.7865 7.52535 18.3356 7.775 17.9841 8.137C17.8698 8.25473 17.7677 8.38262 17.6788 8.51869L14.2979 7.43774C14.3033 7.36388 14.3055 7.28969 14.3045 7.21539C14.2998 6.88009 14.229 6.54894 14.0962 6.24094C13.9634 5.93297 13.7712 5.65419 13.5305 5.42057C13.2899 5.18694 13.0056 5.00307 12.6938 4.87943C12.2248 4.69344 11.7112 4.65065 11.218 4.75646C10.7247 4.86227 10.2738 5.11193 9.92238 5.47391C9.57095 5.83589 9.33471 6.29393 9.24352 6.79013C9.18255 7.12192 9.18825 7.46082 9.25846 7.78749L5.07826 11.9601C4.73074 11.8873 4.37021 11.8875 4.01991 11.9626C3.52664 12.0684 3.07576 12.3181 2.72431 12.6801C2.37287 13.0421 2.13663 13.5001 2.04545 13.9963C1.95426 14.4925 2.0122 15.0046 2.21199 15.4679C2.41177 15.9312 2.74443 16.3248 3.16786 16.5991C3.5913 16.8734 4.08653 17.016 4.591 17.0089C5.09544 17.0018 5.58649 16.8453 6.00205 16.5592C6.4176 16.2731 6.73901 15.8702 6.92566 15.4015C7.04973 15.0899 7.11117 14.7569 7.10645 14.4216C7.10172 14.0862 7.03092 13.7551 6.89812 13.4471C6.7841 13.1827 6.6263 12.9398 6.43165 12.7286L10.0318 9.13492C10.1354 9.22958 10.2471 9.31595 10.3659 9.39291C10.7894 9.6672 11.2846 9.80979 11.7891 9.80268C12.2935 9.79558 12.7845 9.6391 13.2001 9.353C13.4096 9.20878 13.5951 9.03489 13.7515 8.83785L17.2637 9.96076C17.2697 10.291 17.3398 10.6186 17.4718 10.9248C17.6716 11.3881 18.0042 11.7817 18.4277 12.056C18.8511 12.3303 19.3464 12.4729 19.8508 12.4658C20.3553 12.4587 20.8463 12.3022 21.2619 12.0161C21.6774 11.73 21.9988 11.3271 22.1855 10.8584C22.3096 10.5468 22.371 10.2138 22.3663 9.87848C22.3639 9.70834 22.3445 9.53929 22.3086 9.3738C22.3902 9.34184 22.4675 9.29494 22.5365 9.23288L25.4783 6.58591C25.5293 6.62454 25.5819 6.66133 25.6359 6.69617C26.0605 6.9699 26.5568 7.11148 27.062 7.10288C27.5671 7.09429 28.0583 6.93591 28.4733 6.64791C28.8884 6.35988 29.2086 5.95512 29.3934 5.48495C29.6401 4.85713 29.6282 4.15714 29.3603 3.53806C29.0923 2.91898 28.5901 2.43121 27.9635 2.18141ZM26.799 3.52317C27.0026 3.47971 27.2146 3.49766 27.408 3.57477C27.6663 3.67773 27.8732 3.87877 27.9837 4.1339C28.0941 4.38903 28.099 4.67751 27.9973 4.93627C27.9211 5.13006 27.7892 5.29687 27.6181 5.41557C27.447 5.5343 27.2446 5.59956 27.0365 5.6031C26.8283 5.60664 26.6237 5.5483 26.4487 5.43546C26.2737 5.32263 26.1361 5.16041 26.0534 4.96935C25.9707 4.77826 25.9466 4.56694 25.9841 4.36215C26.0216 4.15735 26.1191 3.96831 26.2642 3.81895C26.4092 3.66958 26.5954 3.56663 26.799 3.52317ZM12.1408 6.27378C11.9476 6.19713 11.7359 6.17949 11.5326 6.2231C11.3292 6.26671 11.1434 6.36961 10.9986 6.51878C10.8538 6.66797 10.7564 6.85674 10.7188 7.06124C10.6812 7.26576 10.7051 7.47681 10.7874 7.66773C10.8698 7.85867 11.0069 8.02091 11.1814 8.13395C11.3559 8.24699 11.56 8.30576 11.7679 8.30283C11.9759 8.2999 12.1782 8.23541 12.3495 8.1175C12.5207 7.99959 12.6532 7.83355 12.7301 7.64037C12.7813 7.51194 12.8066 7.37471 12.8046 7.23652C12.8027 7.09827 12.7735 6.9618 12.7188 6.83491C12.6641 6.70799 12.5848 6.59308 12.4857 6.4968C12.3865 6.40052 12.2693 6.32474 12.1408 6.27378ZM20.2026 8.93687C20.0093 8.86021 19.7976 8.84257 19.5943 8.88618C19.391 8.9298 19.2052 9.03271 19.0604 9.18187C18.9155 9.33105 18.8182 9.51983 18.7806 9.72433C18.743 9.92881 18.7669 10.1399 18.8492 10.3308C18.9316 10.5218 19.0687 10.684 19.2432 10.797C19.4177 10.9101 19.6218 10.9688 19.8297 10.9659C20.0376 10.963 20.24 10.8985 20.4113 10.7806C20.5825 10.6627 20.715 10.4966 20.7919 10.3035C20.8431 10.175 20.8684 10.0378 20.8664 9.89961C20.8645 9.76141 20.8353 9.62493 20.7806 9.498C20.7258 9.37106 20.6466 9.25618 20.5475 9.15991C20.4483 9.06362 20.3311 8.98782 20.2026 8.93687ZM4.33451 13.4293C4.53782 13.3857 4.74947 13.4033 4.94276 13.48C5.07124 13.5309 5.18844 13.6067 5.28762 13.703C5.38679 13.7993 5.46599 13.9141 5.52073 14.0411C5.57547 14.168 5.60465 14.3045 5.6066 14.4427C5.60854 14.5809 5.58322 14.7181 5.53208 14.8465C5.45516 15.0397 5.32269 15.2058 5.15143 15.3237C4.98018 15.4416 4.7778 15.5061 4.56987 15.509C4.36196 15.5119 4.15786 15.4532 3.98334 15.3401C3.8088 15.2271 3.6717 15.0648 3.58937 14.8739C3.50704 14.683 3.48316 14.4719 3.52074 14.2674C3.55832 14.0629 3.65569 13.8741 3.80052 13.725C3.94534 13.5758 4.13117 13.4729 4.33451 13.4293Z"></path>
    <path fill-rule="evenodd" clip-rule="evenodd" d="M14.5052 12.4106C14.1279 12.4106 13.7972 12.5889 13.5753 12.8514C13.3566 13.11 13.25 13.4376 13.25 13.7581V28.4995H10.1241V24.1694C10.1241 24.1554 10.1237 24.1414 10.123 24.1274C10.104 23.7892 9.96212 23.4689 9.72282 23.2278C9.48344 22.9866 9.16324 22.8417 8.82295 22.8223C8.80876 22.8215 8.79456 22.8211 8.78035 22.8211H5.27242C4.90449 22.8211 4.5528 22.9685 4.29441 23.2288C4.03617 23.489 3.89209 23.8406 3.89209 24.2062V28.4995H2.75C2.33579 28.4995 2 28.8353 2 29.2495C2 29.6638 2.33579 29.9995 2.75 29.9995H29.2494C29.6636 29.9995 29.9994 29.6638 29.9994 29.2495C29.9994 28.8353 29.6636 28.4995 29.2494 28.4995H28.1069V18.5256C28.1069 18.1593 27.9618 17.8077 27.7029 17.5482C27.4439 17.2887 27.0923 17.1426 26.7254 17.1426H23.2564C22.8895 17.1426 22.5379 17.2887 22.2789 17.5482C22.0201 17.8077 21.8749 18.1593 21.8749 18.5256V28.4995H19.1429V13.7581C19.1429 13.4376 19.0364 13.11 18.8176 12.8514C18.5957 12.5889 18.265 12.4106 17.8877 12.4106H14.5052ZM14.75 28.4994V13.9106H17.6429V28.4994H14.75ZM5.39209 24.3211V28.4995H8.62413V24.3211H5.39209ZM26.6069 18.6426V28.4994H23.3749V18.6426H26.6069Z"></path>
</svg>