<svg viewBox="0 0 32 32" fill="none" class="icon_icon__ECGRl icon_appearance-default___4uy_"
    xmlns="http://www.w3.org/2000/svg">
    <path fill-rule="evenodd" clip-rule="evenodd" d="M13.6434 3.82876C14.2111 3.66825 14.8062 3.62343 15.3921 3.69691L15.3969 3.69751C18.5443 4.1131 21.4343 5.62527 23.5293 7.95915C25.6247 10.2935 26.7821 13.2915 26.7818 16.398V19.0927H29.5724C29.9866 19.0927 30.3224 19.4285 30.3224 19.8427C30.3224 20.257 29.9866 20.5927 29.5724 20.5927H25.6016V21.8428C25.6016 22.6556 25.2703 23.431 24.6873 24.0003C24.1049 24.569 23.3188 24.8864 22.5024 24.8893L22.4997 24.8893H10.099C9.82187 24.8893 9.56008 24.9966 9.37022 25.1813C9.18107 25.3653 9.07872 25.6105 9.07872 25.8617C9.07872 26.5241 8.80804 27.1552 8.33321 27.6171C7.85908 28.0784 7.22029 28.3341 6.5584 28.3341C5.89651 28.3341 5.25773 28.0784 4.7836 27.6171C4.30877 27.1552 4.03809 26.5241 4.03809 25.8617V20.5927H3.60782C3.10242 20.5927 2.61374 20.3976 2.25029 20.044C1.88614 19.6897 1.67761 19.2047 1.67761 18.6945V17.5462C1.67761 17.036 1.88614 16.551 2.25029 16.1967C2.52836 15.9262 2.87972 15.7484 3.25579 15.6798C3.32699 13.6174 4.05127 11.6274 5.32858 9.99805C6.43329 8.58885 7.89962 7.51574 9.56176 6.8859L12.0628 4.65518C12.0717 4.64721 12.0809 4.63945 12.0902 4.63192C12.5468 4.26231 13.0757 3.98928 13.6434 3.82876ZM5.53809 20.5927V25.8617C5.53809 26.1128 5.64044 26.358 5.82961 26.542C6.01947 26.7268 6.28126 26.8341 6.5584 26.8341C6.83554 26.8341 7.09734 26.7268 7.2872 26.542C7.47637 26.358 7.57872 26.1128 7.57872 25.8617C7.57872 25.1992 7.84936 24.5682 8.32421 24.1062C8.79834 23.6449 9.43712 23.3893 10.099 23.3893H22.4983C22.9305 23.3874 23.3404 23.219 23.6393 22.9271C23.9379 22.6356 24.1016 22.2453 24.1016 21.8428V20.5927H5.53809ZM25.2818 16.398V19.0927H3.60782C3.48721 19.0927 3.37552 19.0459 3.2963 18.9689C3.21779 18.8925 3.17761 18.7933 3.17761 18.6945V17.5462C3.17761 17.4474 3.21779 17.3482 3.2963 17.2718C3.37552 17.1948 3.48721 17.1479 3.60782 17.1479H15.4099C15.8241 17.1479 16.1599 16.8122 16.1599 16.3979C16.1599 15.9837 15.8241 15.6479 15.4099 15.6479H4.75821C4.83485 13.9328 5.44521 12.2806 6.50908 10.9235C7.64587 9.47336 9.23547 8.44319 11.026 7.99669C12.8165 7.55018 14.7051 7.713 16.3923 8.45923C18.0795 9.20544 19.4684 10.4922 20.3391 12.1152C20.5349 12.4802 20.9896 12.6174 21.3546 12.4216C21.7196 12.2258 21.8567 11.7711 21.6609 11.4061C20.6321 9.48835 18.9913 7.96856 16.9991 7.08742C15.5815 6.46042 14.0435 6.18227 12.5126 6.26391L13.047 5.78728C13.3413 5.552 13.683 5.37639 14.0515 5.27217C14.4249 5.1666 14.817 5.13684 15.2031 5.18495C18.0007 5.55496 20.5615 6.89845 22.4131 8.96115C24.2647 11.0239 25.2821 13.6664 25.2818 16.398Z"></path>
</svg>