<svg viewBox="0 0 32 32" fill="none" class="icon_icon__ECGRl icon_appearance-default___4uy_"
    xmlns="http://www.w3.org/2000/svg">
    <path fill-rule="evenodd" clip-rule="evenodd" d="M22.9259 12.0406L20.9934 12.9159V16.984C20.9934 17.1986 20.9051 17.4033 20.7501 17.5482C19.4505 18.7635 17.7612 19.4533 15.9989 19.4881C15.9883 19.4883 15.9776 19.4883 15.967 19.488C14.208 19.4463 12.5228 18.7582 11.2209 17.5503C11.0646 17.4052 10.9755 17.1996 10.9755 16.984V12.9368L7.94545 11.563C7.67469 11.4402 7.50014 11.1663 7.5 10.8639C7.49986 10.5616 7.67417 10.2875 7.94482 10.1645L15.6535 6.66055C15.8477 6.5723 16.0694 6.57225 16.2636 6.66042L23.9471 10.1491C24.225 10.2591 24.4227 10.5332 24.4259 10.8549C24.4259 10.8579 24.4259 10.8609 24.4259 10.8639L24.4259 10.8671V13.4799C24.4259 13.9026 24.0901 14.2452 23.6759 14.2452C23.2617 14.2452 22.9259 13.9026 22.9259 13.4799V12.0406ZM12.1721 11.8045C12.085 11.7384 11.9833 11.6913 11.8729 11.6688L10.0951 10.8627L15.9589 8.19736L21.8291 10.8627L15.9589 13.5214L12.1721 11.8045ZM12.4755 13.6169V16.6331C13.4682 17.4559 14.7019 17.9233 15.9859 17.9574C17.2697 17.9284 18.5039 17.461 19.4934 16.6348V13.5952L16.263 15.0583C16.0691 15.1461 15.8479 15.1461 15.6541 15.0582L12.4755 13.6169Z"></path>
    <path fill-rule="evenodd" clip-rule="evenodd" d="M2.5 4.04082C2.5 2.9137 3.39543 2 4.5 2H27.5C28.6046 2 29.5 2.9137 29.5 4.04082V22.4082C29.5 23.5353 28.6046 24.449 27.5 24.449H20.803L21.4551 28.4693H22.9638C23.378 28.4693 23.7138 28.812 23.7138 29.2346C23.7138 29.6573 23.378 29.9999 22.9638 29.9999H20.828L20.819 30H12.25L12.241 29.9999H9.25C8.83579 29.9999 8.5 29.6573 8.5 29.2346C8.5 28.812 8.83579 28.4693 9.25 28.4693H11.615L12.2736 24.449H4.5C3.39543 24.449 2.5 23.5353 2.5 22.4082V4.04082ZM4.5 3.53061H27.5C27.7761 3.53061 28 3.75904 28 4.04082V22.4082C28 22.6899 27.7761 22.9184 27.5 22.9184H4.5C4.22386 22.9184 4 22.6899 4 22.4082V4.04082C4 3.75904 4.22386 3.53061 4.5 3.53061ZM19.3311 24.7484L19.9347 28.4693H13.1358L13.7453 24.7484H19.3311Z"></path>
</svg>