<svg viewBox="0 0 32 32" fill="none" class="icon_icon__ECGRl icon_appearance-default___4uy_"
    xmlns="http://www.w3.org/2000/svg">
    <path fill-rule="evenodd" clip-rule="evenodd" d="M6.64942 6.5C6.5183 6.5 6.46436 6.59458 6.46436 6.64796V17.4235C6.46436 17.4769 6.5183 17.5714 6.64942 17.5714H25.3507C25.4818 17.5714 25.5358 17.4769 25.5358 17.4235V6.64796C25.5358 6.59458 25.4818 6.5 25.3507 6.5H6.64942ZM4.96436 6.64796C4.96436 5.70948 5.7477 5 6.64942 5H25.3507C26.2524 5 27.0358 5.70948 27.0358 6.64796V17.4235C27.0358 18.3619 26.2524 19.0714 25.3507 19.0714H6.64942C5.7477 19.0714 4.96436 18.3619 4.96436 17.4235V6.64796Z"></path>
    <path fill-rule="evenodd" clip-rule="evenodd" d="M25.5252 17.6259C25.9094 17.471 26.3464 17.6568 26.5013 18.0409L29.267 24.8981C29.3602 25.1292 29.3325 25.3916 29.1931 25.5982C29.0537 25.8048 28.8207 25.9286 28.5714 25.9286H3.42859C3.17918 25.9286 2.94609 25.8046 2.80668 25.5978C2.66728 25.391 2.6398 25.1284 2.73338 24.8972L5.50876 18.0401C5.66416 17.6561 6.1014 17.4709 6.48536 17.6263C6.86931 17.7817 7.05459 18.2189 6.89919 18.6029L4.54125 24.4286H27.4602L25.1102 18.602C24.9553 18.2179 25.1411 17.7809 25.5252 17.6259Z"></path>
    <path fill-rule="evenodd" clip-rule="evenodd" d="M8.39282 21.75C8.39282 21.3358 8.72861 21 9.14282 21H22.8571C23.2713 21 23.6071 21.3358 23.6071 21.75C23.6071 22.1642 23.2713 22.5 22.8571 22.5H9.14282C8.72861 22.5 8.39282 22.1642 8.39282 21.75Z"></path>
</svg>