<svg viewBox="0 0 32 32" fill="none" class="icon_icon__ECGRl icon_appearance-default___4uy_"
    xmlns="http://www.w3.org/2000/svg">
    <path fill-rule="evenodd" clip-rule="evenodd" d="M23.2348 11.8999V14.8383L23.2348 14.8438L23.2348 14.8492V15.2661C23.2682 16.2143 23.1062 17.159 22.7588 18.0442C22.4097 18.9338 21.8807 19.7444 21.2044 20.4281C20.5282 21.1117 19.7187 21.6543 18.8247 22.0246C17.9308 22.3949 16.9702 22.5855 16 22.5855C15.0299 22.5855 14.0692 22.3949 13.1753 22.0246C12.2813 21.6543 11.4718 21.1117 10.7956 20.4281C10.1194 19.7444 9.59038 18.9338 9.24123 18.0442C8.89381 17.159 8.73185 16.2143 8.76528 15.2661V14.85L8.76526 14.8438L8.76528 14.8375V11.9008L8.76526 11.8945L8.76528 11.8883V8.96777C8.73185 8.01964 8.89381 7.07491 9.24123 6.18971C9.59038 5.30008 10.1194 4.48949 10.7956 3.80586C11.4718 3.12227 12.2813 2.57959 13.1753 2.2093C14.0692 1.83902 15.0299 1.64844 16 1.64844C16.9702 1.64844 17.9308 1.83902 18.8247 2.2093C19.7187 2.57959 20.5282 3.12227 21.2044 3.80586C21.8807 4.48949 22.4097 5.30008 22.7588 6.18971C23.1062 7.07491 23.2682 8.01964 23.2348 8.96777V11.8891L23.2348 11.8945L23.2348 11.8999ZM13.7493 3.59512C14.4606 3.30052 15.2261 3.14844 16 3.14844C16.774 3.14844 17.5395 3.30052 18.2507 3.59512C18.9619 3.8897 19.6036 4.32048 20.138 4.86073C20.6724 5.40093 21.0885 6.03948 21.3625 6.73772C21.5479 7.21002 21.6658 7.70337 21.7141 8.2041H18.1616C17.7474 8.2041 17.4116 8.53989 17.4116 8.9541C17.4116 9.36832 17.7474 9.7041 18.1616 9.7041H21.7348V11.1445H18.1616C17.7474 11.1445 17.4116 11.4803 17.4116 11.8945C17.4116 12.3087 17.7474 12.6445 18.1616 12.6445H21.7348V14.0938H18.1616C17.7474 14.0938 17.4116 14.4295 17.4116 14.8438C17.4116 15.258 17.7474 15.5938 18.1616 15.5938H21.7384C21.7284 16.2433 21.6015 16.8873 21.3625 17.4962C21.0885 18.1944 20.6724 18.833 20.138 19.3732C19.6036 19.9134 18.9619 20.3442 18.2507 20.6388C17.5395 20.9334 16.774 21.0855 16 21.0855C15.2261 21.0855 14.4606 20.9334 13.7493 20.6388C13.0381 20.3442 12.3964 19.9134 11.8621 19.3732C11.3277 18.833 10.9116 18.1944 10.6375 17.4962C10.3986 16.8873 10.2717 16.2433 10.2616 15.5938H13.8384C14.2526 15.5938 14.5884 15.258 14.5884 14.8438C14.5884 14.4295 14.2526 14.0938 13.8384 14.0938H10.2653V12.6445H13.8384C14.2526 12.6445 14.5884 12.3087 14.5884 11.8945C14.5884 11.4803 14.2526 11.1445 13.8384 11.1445H10.2653V9.7041H13.8384C14.2526 9.7041 14.5884 9.36832 14.5884 8.9541C14.5884 8.53989 14.2526 8.2041 13.8384 8.2041H10.286C10.3343 7.70337 10.4522 7.21002 10.6375 6.73772C10.9116 6.03948 11.3277 5.40093 11.8621 4.86073C12.3965 4.32048 13.0381 3.8897 13.7493 3.59512Z"></path>
    <path d="M7.39456 13.3022C7.39456 12.888 7.05877 12.5522 6.64456 12.5522C6.23034 12.5522 5.89456 12.888 5.89456 13.3022V15.5697C5.85514 16.8897 6.08722 18.2036 6.57668 19.4339C7.0676 20.6678 7.80717 21.7918 8.75053 22.7397C9.69385 23.6875 10.8217 24.4401 12.0668 24.9536C13.0821 25.3724 14.1589 25.6254 15.2543 25.7046V28.6216H11.1826C10.7684 28.6216 10.4326 28.9574 10.4326 29.3716C10.4326 29.7858 10.7684 30.1216 11.1826 30.1216H20.8259C21.2401 30.1216 21.5759 29.7858 21.5759 29.3716C21.5759 28.9574 21.2401 28.6216 20.8259 28.6216H16.7543V25.7039C17.8466 25.6241 18.9204 25.3713 19.9331 24.9536C21.1782 24.4401 22.306 23.6875 23.2494 22.7397C24.1927 21.7918 24.9323 20.6678 25.4232 19.4339C25.9127 18.2036 26.1448 16.8897 26.1053 15.5697V13.3022C26.1053 12.888 25.7695 12.5522 25.3553 12.5522C24.9411 12.5522 24.6053 12.888 24.6053 13.3022V15.5811C24.6053 15.5889 24.6055 15.5967 24.6057 15.6044C24.6405 16.7222 24.4447 17.8358 24.0295 18.8794C23.6142 19.9231 22.9878 20.8761 22.1862 21.6816C21.3845 22.4871 20.424 23.1285 19.3612 23.5669C18.2983 24.0053 17.1552 24.2315 16 24.2315C14.8447 24.2315 13.7016 24.0053 12.6387 23.5669C11.5758 23.1285 10.6154 22.4871 9.81373 21.6816C9.01213 20.8761 8.38565 19.9231 7.97043 18.8794C7.55523 17.8358 7.35943 16.7222 7.39419 15.6044C7.39444 15.5967 7.39456 15.5889 7.39456 15.5811V13.3022Z"></path>
</svg>