<svg viewBox="0 0 32 32" fill="none" class="icon_icon__ECGRl icon_appearance-default___4uy_"
    xmlns="http://www.w3.org/2000/svg">
    <path fill-rule="evenodd" clip-rule="evenodd" d="M29.3355 2.82934C29.7059 3.01459 29.8561 3.46509 29.6709 3.83557L28.2136 6.75H29C29.4142 6.75 29.75 7.08579 29.75 7.5V10.5C29.75 10.9142 29.4142 11.25 29 11.25H28.7146L27.903 28.0362C27.8836 28.4359 27.554 28.75 27.1538 28.75H17.8462C17.446 28.75 17.1164 28.4359 17.097 28.0362L16.2854 11.25H16C15.5858 11.25 15.25 10.9142 15.25 10.5V7.5C15.25 7.08579 15.5858 6.75 16 6.75H26.5366L28.3292 3.16475C28.5145 2.79427 28.965 2.6441 29.3355 2.82934ZM27.0216 8.25C27.0069 8.25044 26.9921 8.25044 26.9773 8.25H16.75V9.75H28.25V8.25H27.0216ZM27.2129 11.25H17.7871L18.5608 27.25H26.4392L26.5845 24.2462C26.5574 24.2489 26.53 24.2502 26.5022 24.25C25.9199 24.245 25.3465 24.1124 24.8165 23.8623C24.2866 23.6124 23.8127 23.2511 23.4204 22.8037C23.0282 22.3563 22.725 21.8313 22.5256 21.2609C22.3274 20.6942 22.2348 20.0919 22.252 19.4884C22.2588 16.8506 24.5859 14.75 27 14.75C27.0146 14.75 27.0292 14.7504 27.0436 14.7512L27.2129 11.25ZM26.9711 16.2502C25.3485 16.2675 23.752 17.7383 23.752 19.5C23.752 19.5077 23.7519 19.5154 23.7517 19.5231C23.7385 19.9484 23.8035 20.3711 23.9415 20.7658C24.0795 21.1604 24.2868 21.5166 24.5483 21.8148C24.8097 22.113 25.1192 22.3466 25.4564 22.5057C25.7934 22.6646 26.1532 22.7469 26.5151 22.75C26.5633 22.7504 26.6105 22.7554 26.6561 22.7645L26.9711 16.2502Z"></path>
    <path fill-rule="evenodd" clip-rule="evenodd" d="M3.88172 6.13574C3.88172 5.72153 3.54594 5.38574 3.13172 5.38574C2.71751 5.38574 2.38172 5.72153 2.38172 6.13574L2.38159 13.2035L2.38185 13.2175C2.39819 14.0934 2.70422 14.9394 3.25235 15.6217C3.67288 16.1452 4.21763 16.5495 4.83265 16.7999V26.5C4.83265 27.1542 5.00044 27.7753 5.41063 28.2426C5.83276 28.7236 6.42684 28.9449 7.07341 28.9449C7.70939 28.9449 8.30865 28.7371 8.7422 28.2643C9.1679 27.7999 9.34786 27.1738 9.34786 26.5V16.7788C9.94319 16.5123 10.466 16.1001 10.8664 15.5765C11.3857 14.8974 11.6713 14.0676 11.6809 13.2119V6.13574C11.6809 5.72153 11.3451 5.38574 10.9309 5.38574C10.5167 5.38574 10.1809 5.72153 10.1809 6.13574V11.3179H7.78125V6.13574C7.78125 5.72153 7.44546 5.38574 7.03125 5.38574C6.61704 5.38574 6.28125 5.72153 6.28125 6.13574V11.3179H3.88172V6.13574ZM3.88172 12.8179V13.1961C3.89328 13.7385 4.08347 14.2612 4.42174 14.6823C4.76128 15.105 5.23046 15.4009 5.75461 15.5244C6.09331 15.6041 6.33265 15.9064 6.33265 16.2544V26.5C6.33265 26.9136 6.43859 27.1399 6.53794 27.2531C6.62537 27.3527 6.77667 27.4449 7.07341 27.4449C7.38073 27.4449 7.54371 27.3518 7.63656 27.2506C7.73725 27.1407 7.84786 26.9194 7.84786 26.5V16.2544C7.84786 15.9178 8.07213 15.6224 8.39636 15.532C8.90379 15.3904 9.35265 15.0866 9.67483 14.6653C9.99629 14.2449 10.1741 13.7305 10.1809 13.1991V12.8179H7.04192L7.03125 12.8179L7.02058 12.8179H3.88172Z"></path>
</svg>