<svg viewBox="0 0 32 32" fill="none" class="icon_icon__ECGRl icon_appearance-default___4uy_"
    xmlns="http://www.w3.org/2000/svg">
    <path fill-rule="evenodd" clip-rule="evenodd" d="M13.5 13C13.5 12.5858 13.8358 12.25 14.25 12.25H17.75C18.1642 12.25 18.5 12.5858 18.5 13V15.85H21.25C21.6642 15.85 22 16.1858 22 16.6V20.2C22 20.6142 21.6642 20.95 21.25 20.95H18.5V23.8C18.5 24.2142 18.1642 24.55 17.75 24.55H14.25C13.8358 24.55 13.5 24.2142 13.5 23.8V20.95H10.75C10.3358 20.95 10 20.6142 10 20.2V16.6C10 16.1858 10.3358 15.85 10.75 15.85H13.5V13ZM15 13.75V16.6C15 17.0142 14.6642 17.35 14.25 17.35H11.5V19.45H14.25C14.6642 19.45 15 19.7858 15 20.2V23.05H17V20.2C17 19.7858 17.3358 19.45 17.75 19.45H20.5V17.35H17.75C17.3358 17.35 17 17.0142 17 16.6V13.75H15Z"></path>
    <path fill-rule="evenodd" clip-rule="evenodd" d="M18.3384 3.8501H13.6666L13.6615 3.85011C12.9943 3.85465 12.3601 4.1295 11.8949 4.608C11.4303 5.08581 11.1709 5.72826 11.1666 6.39528V7.4502H4.91671C4.09199 7.4502 3.30556 7.78742 2.72908 8.38036C2.1533 8.9726 1.83337 9.77144 1.83337 10.6002V25.0002C1.83337 25.829 2.1533 26.6278 2.72908 27.22C3.30556 27.813 4.09199 28.1502 4.91671 28.1502H27.0834C27.9081 28.1502 28.6945 27.813 29.271 27.22C29.8468 26.6278 30.1667 25.829 30.1667 25.0002V10.6002C30.1667 9.77144 29.8468 8.9726 29.271 8.38036C28.6945 7.78742 27.9081 7.4502 27.0834 7.4502H20.8333L20.8333 6.4001L20.8333 6.39528C20.829 5.72826 20.5696 5.08581 20.1051 4.608C19.6399 4.1295 19.0056 3.85463 18.3384 3.8501ZM19.3333 7.4502V6.40283C19.3309 6.1178 19.2196 5.84911 19.0296 5.65362C18.8403 5.4589 18.5887 5.35244 18.3304 5.3501H13.6695C13.4112 5.35244 13.1597 5.4589 12.9703 5.65362C12.7803 5.8491 12.669 6.11778 12.6666 6.40281V7.4502H19.3333ZM4.91671 8.9502C4.50375 8.9502 4.10327 9.11875 3.80457 9.42598C3.50518 9.73393 3.33337 10.1559 3.33337 10.6002V15.25H7.56499C7.9792 15.25 8.31499 15.5858 8.31499 16C8.31499 16.4142 7.9792 16.75 7.56499 16.75H3.33337V25.0002C3.33337 25.4445 3.50518 25.8665 3.80457 26.1744C4.10327 26.4816 4.50375 26.6502 4.91671 26.6502H27.0834C27.4963 26.6502 27.8968 26.4816 28.1955 26.1744C28.4949 25.8665 28.6667 25.4445 28.6667 25.0002V16.75H24.505C24.0908 16.75 23.755 16.4142 23.755 16C23.755 15.5858 24.0908 15.25 24.505 15.25H28.6667V10.6002C28.6667 10.1559 28.4949 9.73393 28.1955 9.42598C27.8968 9.11875 27.4963 8.9502 27.0834 8.9502H4.91671Z"></path>
</svg>