<svg viewBox="0 0 32 32" fill="none" class="icon_icon__ECGRl icon_appearance-default___4uy_"
    xmlns="http://www.w3.org/2000/svg">
    <path fill-rule="evenodd" clip-rule="evenodd" d="M11.5711 3C11.5711 2.58579 11.9069 2.25 12.3211 2.25H17.2049C17.6191 2.25 17.9549 2.58579 17.9549 3V5.58362L17.9551 5.6001L17.9549 5.61657V8.58362L17.9551 8.6001L17.9549 8.61657V11.5836C17.955 11.5891 17.9551 11.5946 17.9551 11.6001C17.9551 11.6056 17.955 11.6111 17.9549 11.6166V13.5508H17.9799L20.4377 8.9706C20.3327 8.82864 20.243 8.67566 20.1706 8.51368C20.0228 8.18335 19.9516 7.82521 19.9635 7.46366C19.9751 7.10972 20.0661 6.76416 20.2282 6.44928C20.3882 6.10462 20.6537 5.7929 20.8525 5.55985L20.9031 5.50058C21.111 5.25719 21.2844 5.0542 21.419 4.83777C21.5576 4.61488 21.6198 4.4301 21.6222 4.25526C21.6246 4.08804 21.5736 3.8449 21.3304 3.50057C21.1687 3.27169 21.1481 2.97176 21.277 2.72293C21.4059 2.4741 21.6627 2.31787 21.943 2.31787H21.9795C22.036 2.31787 22.0923 2.32425 22.1473 2.3369C24.8435 2.95601 25.9204 5.21039 25.7668 7.09818C25.691 8.03077 25.3095 8.95257 24.5903 9.54058C24.2935 9.78317 23.9563 9.9549 23.5891 10.048L22.0226 13.5508H22.1162C22.5304 13.5508 22.8662 13.8866 22.8662 14.3008V15.8159H23.3485C24.498 15.8159 25.611 16.2382 26.4401 17.0059C27.2711 17.7753 27.75 18.8319 27.75 19.9469C27.75 21.062 27.2711 22.1185 26.4401 22.888C25.611 23.6556 24.498 24.0779 23.3485 24.0779H22.8662V26.7344C22.8662 26.8158 22.8532 26.8941 22.8293 26.9675C22.7694 27.6991 22.4291 28.3797 21.8818 28.8865C21.2787 29.445 20.4723 29.7497 19.6423 29.7497H8.68795C7.85803 29.7497 7.05158 29.445 6.44847 28.8865C5.84342 28.3263 5.49148 27.5535 5.49148 26.7344V14.3008C5.49148 13.9064 5.79595 13.583 6.18267 13.5531L4.95134 11.2671C4.91385 11.1975 4.8876 11.1224 4.87356 11.0446L4.26195 7.65516C4.21046 7.36982 4.32805 7.08036 4.56396 6.91177C4.79986 6.74319 5.11181 6.72568 5.36509 6.86682L8.41406 8.56577C8.52839 8.62948 8.62405 8.72199 8.69155 8.83411L11.531 13.5508H11.5711V3ZM16.4549 10.8501H14.7677C14.3535 10.8501 14.0177 11.1859 14.0177 11.6001C14.0177 12.0143 14.3535 12.3501 14.7677 12.3501H16.4549V13.5508H13.0711V3.75H16.4549V4.8501H14.7677C14.3535 4.8501 14.0177 5.18588 14.0177 5.6001C14.0177 6.01431 14.3535 6.3501 14.7677 6.3501H16.4549V7.8501H14.7677C14.3535 7.8501 14.0177 8.18588 14.0177 8.6001C14.0177 9.01431 14.3535 9.3501 14.7677 9.3501H16.4549V10.8501ZM12.3211 15.051L12.3027 15.0508H11.1195L11.1071 15.0509H7.43738L7.42492 15.0508H6.99148V26.7344C6.99148 27.1169 7.15503 27.4965 7.46758 27.7859C7.78209 28.0771 8.22018 28.2497 8.68795 28.2497H19.6423C20.1101 28.2497 20.5482 28.0771 20.8627 27.7859C21.1753 27.4965 21.3388 27.1169 21.3388 26.7344C21.3388 26.6646 21.3483 26.597 21.3662 26.5329V16.7676C21.3483 16.7034 21.3388 16.6358 21.3388 16.5659C21.3388 16.4961 21.3483 16.4284 21.3662 16.3643V15.0508H20.8778C20.8694 15.0509 20.861 15.0509 20.8526 15.0508H18.4612C18.4389 15.0518 18.4164 15.0518 18.394 15.0508H17.2233L17.2049 15.051H12.3211ZM8.22322 10.9645L9.78013 13.5508H7.88522L6.96205 11.8369L8.22322 10.9645ZM6.29492 10.4745L7.39376 9.71439L6.01958 8.94867L6.29492 10.4745ZM21.9764 9.98006C21.8943 9.95485 21.8117 9.92636 21.7286 9.89456C21.7047 9.8867 21.681 9.87852 21.6573 9.87002L19.6822 13.5508H20.3794L21.9764 9.98006ZM24.2718 6.97657C24.3451 6.07505 24.0073 5.04963 23.118 4.38479C23.0877 4.87612 22.9029 5.29205 22.6928 5.62989C22.4947 5.94844 22.2472 6.23735 22.0524 6.46465L21.9937 6.53335C21.7645 6.80199 21.6422 6.96165 21.5864 7.08585C21.5801 7.10008 21.5732 7.1141 21.566 7.1279C21.5013 7.25074 21.467 7.38187 21.4627 7.51306C21.4583 7.6442 21.484 7.77628 21.5399 7.90137C21.5959 8.02671 21.6821 8.14419 21.7965 8.2439C21.9111 8.34375 22.0507 8.42292 22.2077 8.47303C22.2224 8.47774 22.237 8.48289 22.2514 8.4885C22.9157 8.74691 23.352 8.61541 23.6409 8.37927C23.9668 8.11278 24.2198 7.61509 24.2718 6.97657ZM23.3485 17.3159H22.8662V22.5779H23.3485C24.1359 22.5779 24.8805 22.2878 25.4209 21.7873C25.9595 21.2887 26.25 20.6253 26.25 19.9469C26.25 19.2686 25.9595 18.6052 25.4209 18.1065C24.8805 17.6061 24.1359 17.3159 23.3485 17.3159Z"></path>
</svg>