<svg viewBox="0 0 32 32" fill="none" class="icon_icon__ECGRl icon_appearance-default___4uy_"
    xmlns="http://www.w3.org/2000/svg">
    <path fill-rule="evenodd" clip-rule="evenodd" d="M16.4757 4.77622C16.1992 4.54927 15.8009 4.54919 15.5243 4.77604L2.61145 15.3662C2.29118 15.6289 2.24447 16.1015 2.50714 16.4217C2.76981 16.742 3.24238 16.7887 3.56266 16.5261L5.11218 15.2553V26.693C5.11218 27.1072 5.44797 27.443 5.86218 27.443H26.118C26.5322 27.443 26.868 27.1072 26.868 26.693V15.2464L28.427 16.5259C28.7471 16.7887 29.2197 16.7421 29.4825 16.422C29.7453 16.1018 29.6988 15.6292 29.3786 15.3664L26.868 13.3058V7.9248C26.868 7.51059 26.5322 7.1748 26.118 7.1748H22.712C22.2978 7.1748 21.962 7.51059 21.962 7.9248V9.27911L16.4757 4.77622ZM23.4619 10.5102L25.368 12.0747V8.6748H23.462V10.5037C23.462 10.5059 23.462 10.5081 23.4619 10.5102ZM25.368 14.0152L15.9997 6.32608L6.61218 14.0251V25.943H12.0942V17.7305C12.0942 17.3163 12.43 16.9805 12.8442 16.9805H19.1454C19.5596 16.9805 19.8954 17.3163 19.8954 17.7305V25.943H25.368V14.0152ZM18.3954 25.943H13.5942V18.4805H18.3954V25.943Z"></path>
</svg>