<svg viewBox="0 0 32 32" fill="none" class="icon_icon__ECGRl icon_appearance-default___4uy_"
    xmlns="http://www.w3.org/2000/svg">
    <path fill-rule="evenodd" clip-rule="evenodd" d="M7.97012 5.87891C6.94386 5.87891 5.9568 6.27882 5.22687 6.99511C4.49645 7.71188 4.0835 8.68707 4.0835 9.70693V11.5178C3.55484 11.6974 3.06408 11.9833 2.64481 12.3634C1.88697 13.0505 1.41819 13.9954 1.33619 15.0108L1.33337 15.0457L1.33381 15.0806C1.3406 15.6203 1.46831 16.1514 1.70731 16.6361C1.94426 17.1167 2.28461 17.5394 2.70347 17.8756V25.1466C2.70347 25.4173 2.81282 25.6751 3.00462 25.8633C3.19562 26.0507 3.45155 26.1531 3.71486 26.1531H8.49293C8.75662 26.1531 9.01231 26.0505 9.20304 25.8633C9.39416 25.6758 9.50431 25.4183 9.50431 25.1466V24.9516H22.25V25.0992C22.25 25.3709 22.3601 25.6284 22.5512 25.8159C22.742 26.0031 22.9977 26.1057 23.2613 26.1057H28.0394C28.3027 26.1057 28.5586 26.0034 28.7497 25.8159C28.9414 25.6277 29.0508 25.37 29.0508 25.0992V17.8283C29.4697 17.492 29.81 17.0693 30.047 16.5888C30.286 16.104 30.4137 15.5729 30.4205 15.0333L30.4209 14.9983L30.4181 14.9635C30.3361 13.948 29.8673 13.0031 29.1095 12.316C28.7587 11.998 28.3579 11.7459 27.9267 11.5669V9.70693C27.9267 8.68707 27.5138 7.71188 26.7833 6.99511C26.0534 6.27882 25.0664 5.87891 24.0401 5.87891H7.97012ZM26.4267 11.251V9.70693C26.4267 9.09409 26.1788 8.50344 25.7327 8.06573C25.2862 7.62754 24.6776 7.37891 24.0401 7.37891H7.97012C7.33262 7.37891 6.72401 7.62754 6.27748 8.06573C5.83143 8.50344 5.5835 9.09409 5.5835 9.70693V11.3006C6.55051 11.3388 7.47636 11.7134 8.19326 12.3634C8.9511 13.0505 9.41988 13.9954 9.50188 15.0108L9.50431 15.041V17.0391H22.25V14.9936L22.2524 14.9635C22.3344 13.948 22.8032 13.0031 23.561 12.316C24.3184 11.6293 25.3091 11.25 26.3352 11.25C26.3657 11.25 26.3962 11.2503 26.4267 11.251ZM28.1019 13.4273C27.6231 12.9932 26.9923 12.75 26.3352 12.75C25.678 12.75 25.0474 12.9931 24.5685 13.4273C24.0972 13.8546 23.8072 14.4356 23.75 15.0561L23.75 24.6057H27.5508V17.1239L28.0994 16.6684L28.1054 16.6636C28.3579 16.4625 28.5612 16.2102 28.7016 15.9254C28.8369 15.651 28.9111 15.3523 28.9199 15.049C28.8611 14.4312 28.5715 13.853 28.1019 13.4273ZM9.69238 18.5391H22.25V23.4516H9.69238V18.5391ZM3.65232 13.4747C4.13118 13.0405 4.76192 12.7974 5.4191 12.7974C6.07624 12.7974 6.70687 13.0405 7.18575 13.4747C7.65709 13.902 7.94707 14.4829 8.00431 15.1034V24.6531H4.20347V17.1713L3.65486 16.7158L3.64889 16.711C3.39635 16.5099 3.1931 16.2576 3.05265 15.9728C2.91736 15.6984 2.84321 15.3997 2.83441 15.0964C2.8932 14.4785 3.18276 13.9004 3.65232 13.4747Z"></path>
</svg>