<svg viewBox="0 0 32 32" fill="none" class="icon_icon__ECGRl icon_appearance-default___4uy_"
    xmlns="http://www.w3.org/2000/svg">
    <path fill-rule="evenodd" clip-rule="evenodd" d="M16.0229 4.41016C15.5088 4.41016 15.0015 4.52806 14.5405 4.75491L2.70384 10.6036C2.39141 10.758 2.22648 11.1073 2.30574 11.4466C2.38501 11.786 2.68759 12.026 3.03608 12.026H5.43909V13.2101C5.43909 13.6244 5.77488 13.9601 6.18909 13.9601H7.08496V21.5244H6.08726C5.67305 21.5244 5.33726 21.8602 5.33726 22.2744V23.3577H4.03455C3.62033 23.3577 3.28455 23.6935 3.28455 24.1077V26.8576C3.28455 27.2719 3.62033 27.6076 4.03455 27.6076H28.011C28.4252 27.6076 28.761 27.2719 28.761 26.8576V24.1077C28.761 23.6935 28.4252 23.3577 28.011 23.3577H26.6563L26.6341 22.2593C26.6259 21.851 26.2926 21.5244 25.8843 21.5244H24.8779V13.9601H25.8197C26.2339 13.9601 26.5697 13.6244 26.5697 13.2101V12.026H28.9635C29.3117 12.026 29.6142 11.7863 29.6937 11.4472C29.7731 11.1081 29.6087 10.7589 29.2967 10.6041L17.5073 4.75596L17.5052 4.75491C17.0442 4.52806 16.5369 4.41016 16.0229 4.41016ZM23.3779 13.9601H22.0024V21.5244H23.3779V13.9601ZM20.5024 13.9601H18.1743V21.5244H20.5024V13.9601ZM16.6743 13.9601H15.2979V21.5244H16.6743V13.9601ZM13.7979 13.9601H11.4609V21.5244H13.7979V13.9601ZM9.96094 13.9601H8.58496V21.5244H9.96094V13.9601ZM6.2431 10.5279L15.2028 6.10077C15.4572 5.97565 15.7382 5.91016 16.0229 5.91016C16.3073 5.91016 16.5876 5.97533 16.8419 6.1003L16.8429 6.10077L25.7674 10.5278C25.3776 10.5547 25.0697 10.8794 25.0697 11.276V12.4601H6.93909V11.276C6.93909 10.88 6.6321 10.5556 6.2431 10.5279ZM6.83726 23.0244V24.1077C6.83726 24.5219 6.50148 24.8577 6.08726 24.8577H4.78455V26.1076H27.261V24.8577H25.9213C25.513 24.8577 25.1797 24.5311 25.1714 24.1228L25.1492 23.0244H6.83726Z"></path>
</svg>