<svg viewBox="0 0 32 32" fill="none" class="icon_icon__ECGRl icon_appearance-default___4uy_"
    xmlns="http://www.w3.org/2000/svg">
    <path fill-rule="evenodd" clip-rule="evenodd" d="M5.5 4.25C5.03595 4.25 4.59082 4.43427 4.26258 4.76252C3.93438 5.09071 3.75 5.53588 3.75 6V10C3.75 10.4142 4.08579 10.75 4.5 10.75H27.5C27.9142 10.75 28.25 10.4142 28.25 10V6C28.25 5.53588 28.0656 5.09071 27.7374 4.76252C27.4092 4.43427 26.9641 4.25 26.5 4.25H5.5ZM5.32324 5.82318C5.37007 5.77635 5.43362 5.75 5.5 5.75H7.18945L5.25 7.68945V6C5.25 5.93369 5.27636 5.87005 5.32324 5.82318ZM5.81077 9.25L9.31077 5.75H10.6895L7.18945 9.25H5.81077ZM9.31077 9.25H11.1895L14.6895 5.75H12.8108L9.31077 9.25ZM15.1895 9.25H13.3108L16.8108 5.75H18.6895L15.1895 9.25ZM17.3108 9.25H19.1893L22.6893 5.75H20.8108L17.3108 9.25ZM23.1895 9.25H21.3107L24.8107 5.75H26.5C26.5519 5.75 26.6021 5.76612 26.6439 5.79554L23.1895 9.25ZM25.3108 9.25H26.75V7.81077L25.3108 9.25Z"></path>
    <path fill-rule="evenodd" clip-rule="evenodd" d="M12.1057 15.362C12.3268 15.2254 12.6029 15.2129 12.8354 15.3292L20.8354 19.3292C21.0895 19.4562 21.25 19.7159 21.25 20C21.25 20.2841 21.0895 20.5438 20.8354 20.6708L12.8354 24.6708C12.6029 24.7871 12.3268 24.7746 12.1057 24.638C11.8846 24.5013 11.75 24.2599 11.75 24V16C11.75 15.7401 11.8846 15.4987 12.1057 15.362ZM13.25 17.2135V22.7865L18.8229 20L13.25 17.2135Z"></path>
    <path fill-rule="evenodd" clip-rule="evenodd" d="M3.75002 13C3.75002 12.5858 4.0858 12.25 4.50002 12.25H27.5C27.9142 12.25 28.25 12.5858 28.25 13V25.6105C28.246 25.8955 28.1858 26.1769 28.0731 26.4386C27.9604 26.7002 27.7973 26.9372 27.5928 27.136C27.3884 27.3348 27.1469 27.4911 26.8822 27.5964C26.6193 27.701 26.3384 27.7533 26.0553 27.75H5.94718C5.66398 27.7549 5.38249 27.704 5.1188 27.6002C4.85247 27.4954 4.60958 27.3387 4.40427 27.1391C4.19895 26.9394 4.03547 26.7011 3.92319 26.4378C3.81088 26.1745 3.752 25.8914 3.75004 25.6051L3.75 25.6L3.75002 13ZM5.25002 13.75V25.5969C5.25089 25.6837 5.26887 25.7695 5.30292 25.8493C5.33728 25.9298 5.38724 26.0027 5.44989 26.0636C5.51257 26.1245 5.58677 26.1724 5.66822 26.2045C5.74958 26.2365 5.83655 26.252 5.92405 26.2502L5.94002 26.25H26.0707C26.1585 26.2512 26.2459 26.2352 26.3278 26.2026C26.4097 26.1701 26.4842 26.1218 26.5472 26.0605C26.6102 25.9993 26.6606 25.9261 26.6955 25.8451C26.7298 25.7656 26.7483 25.6802 26.75 25.5937V13.75H5.25002Z"></path>
</svg>