<svg viewBox="0 0 32 32" fill="none" class="icon_icon__ECGRl icon_appearance-default___4uy_"
    xmlns="http://www.w3.org/2000/svg">
    <path d="M22.7083 6.23291C22.7083 5.8187 22.3725 5.48291 21.9583 5.48291C21.544 5.48291 21.2083 5.8187 21.2083 6.23291V8.41918C21.2083 8.83339 21.544 9.16918 21.9583 9.16918C22.3725 9.16918 22.7083 8.83339 22.7083 8.41918V6.23291Z"></path>
    <path fill-rule="evenodd" clip-rule="evenodd" d="M19.0841 4.47895C19.8337 3.72254 20.8519 3.29639 21.9149 3.29639C22.7076 3.29639 23.4818 3.53363 24.1398 3.97723C24.7976 4.42076 25.3094 5.05042 25.6114 5.78598C25.9133 6.52143 25.9922 7.33039 25.8383 8.11069C25.6845 8.89105 25.3046 9.6087 24.7457 10.1726C24.1868 10.7367 23.4738 11.1216 22.6965 11.2775C21.9192 11.4336 21.1136 11.3533 20.3819 11.0475C19.6503 10.7417 19.0261 10.2244 18.5873 9.56186C18.1487 8.89942 17.9149 8.12125 17.9149 7.32579C17.9149 6.25931 18.3347 5.23513 19.0841 4.47895ZM21.9149 4.79639C21.2541 4.79639 20.6189 5.06121 20.1495 5.53482C19.6799 6.00866 19.4149 6.65277 19.4149 7.32579C19.4149 7.82755 19.5624 8.31754 19.838 8.73369C20.1135 9.14973 20.5043 9.47292 20.9604 9.66354C21.4164 9.85415 21.9178 9.90394 22.4014 9.80688C22.885 9.7098 23.3302 9.47001 23.6803 9.11676C24.0305 8.76343 24.2697 8.3125 24.3667 7.82058C24.4636 7.32859 24.4138 6.81862 24.2237 6.35561C24.0337 5.8927 23.7123 5.49812 23.3012 5.22095C22.8902 4.94386 22.4078 4.79639 21.9149 4.79639Z"></path>
    <path fill-rule="evenodd" clip-rule="evenodd" d="M2.79163 18.2573C2.79163 17.8431 3.12741 17.5073 3.54163 17.5073H7.87496C8.28917 17.5073 8.62496 17.8431 8.62496 18.2573V18.6001H11.0817C11.0907 18.6001 11.0998 18.6003 11.1088 18.6006C13.0396 18.6706 14.8729 19.451 16.2667 20.7864H19.2067C19.6952 20.7864 20.1622 20.9824 20.5054 21.3287C20.7322 21.5575 20.8927 21.8396 20.9755 22.1451L24.9273 20.825C24.9354 20.8222 24.9436 20.8197 24.9518 20.8172C25.6874 20.5992 26.4717 20.6136 27.1989 20.8581C27.926 21.1027 28.5604 21.5654 29.0178 22.1832C29.1493 22.3609 29.1957 22.5876 29.1447 22.8027C29.0936 23.0178 28.9502 23.1995 28.7528 23.2991C26.3424 24.5152 24.5246 25.5058 23.0723 26.2972C22.573 26.5693 22.1166 26.818 21.6944 27.0441C20.0708 27.9137 18.8934 28.4846 17.733 28.6968C16.5349 28.9158 15.4241 28.743 13.9481 28.3072C13.0791 28.0506 12.0336 27.6863 10.7295 27.2318C10.0929 27.01 9.39435 26.7665 8.62496 26.5038V27.0461C8.62496 27.4603 8.28917 27.7961 7.87496 27.7961H3.54163C3.12741 27.7961 2.79163 27.4603 2.79163 27.0461V18.2573ZM20.5702 23.8617C20.5492 23.8851 20.5276 23.908 20.5054 23.9305C20.1621 24.2769 19.695 24.4726 19.2067 24.4726H13.2483C12.8341 24.4726 12.4983 24.1369 12.4983 23.7226C12.4983 23.3084 12.8341 22.9726 13.2483 22.9726H19.2067C19.293 22.9726 19.377 22.9381 19.44 22.8746C19.5032 22.8107 19.54 22.7227 19.54 22.6295C19.54 22.5364 19.5033 22.4485 19.44 22.3846C19.3768 22.3208 19.2927 22.2864 19.2067 22.2864H15.9567C15.7526 22.2864 15.5574 22.2033 15.416 22.0562C14.2686 20.8628 12.711 20.1631 11.0677 20.1001H8.62496V24.9194C9.63309 25.2607 10.508 25.5658 11.2794 25.8348C12.5453 26.2762 13.5329 26.6206 14.3729 26.8686C15.7599 27.2781 16.6044 27.3783 17.4632 27.2212C18.3596 27.0574 19.3407 26.6032 20.9863 25.7218C21.3967 25.502 21.8451 25.2576 22.3391 24.9884C23.5943 24.3044 25.1432 23.4603 27.1082 22.4527C26.9852 22.3832 26.8555 22.3252 26.7207 22.2799C26.2897 22.1349 25.8257 22.1253 25.3895 22.252L20.5926 23.8545C20.5851 23.857 20.5776 23.8594 20.5702 23.8617ZM4.29163 19.0073V26.2961H7.12496V19.0073H4.29163Z"></path>
    <path d="M16.5416 13.1348C16.9558 13.1348 17.2916 13.4706 17.2916 13.8848V16.071C17.2916 16.4853 16.9558 16.821 16.5416 16.821C16.1274 16.821 15.7916 16.4853 15.7916 16.071V13.8848C15.7916 13.4706 16.1274 13.1348 16.5416 13.1348Z"></path>
    <path fill-rule="evenodd" clip-rule="evenodd" d="M16.4983 10.9482C15.4352 10.9482 14.4171 11.3744 13.6675 12.1308C12.9181 12.887 12.4983 13.9112 12.4983 14.9776C12.4983 15.7731 12.7321 16.5513 13.1707 17.2137C13.6094 17.8763 14.2337 18.3936 14.9653 18.6994C15.697 19.0052 16.5026 19.0854 17.2799 18.9294C18.0571 18.7734 18.7702 18.3885 19.3291 17.8245C19.888 17.2606 20.2679 16.5429 20.4217 15.7625C20.5755 14.9823 20.4966 14.1733 20.1947 13.4378C19.8928 12.7023 19.381 12.0726 18.7231 11.6291C18.0652 11.1855 17.291 10.9482 16.4983 10.9482ZM14.7329 13.1867C15.2022 12.7131 15.8374 12.4482 16.4983 12.4482C16.9912 12.4482 17.4736 12.5957 17.8846 12.8728C18.2957 13.15 18.6171 13.5446 18.8071 14.0075C18.9972 14.4705 19.047 14.9804 18.95 15.4724C18.8531 15.9644 18.6139 16.4153 18.2637 16.7686C17.9136 17.1219 17.4684 17.3617 16.9847 17.4587C16.5012 17.5558 15.9998 17.506 15.5438 17.3154C15.0877 17.1248 14.6969 16.8016 14.4214 16.3855C14.1458 15.9694 13.9983 15.4794 13.9983 14.9776C13.9983 14.3046 14.2633 13.6605 14.7329 13.1867Z"></path>
</svg>