<svg viewBox="0 0 32 32" fill="none" class="icon_icon__ECGRl icon_appearance-default___4uy_"
    xmlns="http://www.w3.org/2000/svg">
    <path fill-rule="evenodd" clip-rule="evenodd" d="M9.01756 2.77734L9.01493 2.77735C8.02315 2.78083 7.07352 3.17799 6.37313 3.88128C5.67286 4.58445 5.27848 5.53649 5.27503 6.52958L5.27502 6.53219C5.27502 6.5979 5.27674 6.66343 5.28015 6.72873C5.27677 6.75764 5.27502 6.78706 5.27502 6.81688V26.3222C5.27502 27.0794 5.5746 27.8061 6.10871 28.3424C6.64292 28.8788 7.36812 29.1808 8.12502 29.1808H25.975C26.3892 29.1808 26.725 28.845 26.725 28.4308V10.2646C26.725 9.87377 26.5705 9.49827 26.2943 9.22093C26.0181 8.9436 25.6427 8.78703 25.2505 8.78703H9.01756C8.42379 8.78703 7.85374 8.55023 7.43296 8.12772C7.01236 7.70538 6.77537 7.13202 6.77502 6.53349C6.77745 5.93489 7.01535 5.36211 7.43598 4.93975C7.85651 4.51748 8.42558 4.27975 9.01898 4.27735H25.975C26.3892 4.27735 26.725 3.94156 26.725 3.52735C26.725 3.11313 26.3892 2.77735 25.975 2.77735L9.01756 2.77734ZM6.77502 26.3222V9.53833C7.41825 10.0213 8.20407 10.287 9.01756 10.287H25.225V27.6808H8.12502C7.76802 27.6808 7.425 27.5384 7.17155 27.2839C6.91801 27.0294 6.77502 26.6835 6.77502 26.3222ZM13.613 18.0598C13.2143 18.249 12.8209 18.4934 12.4533 18.8017C11.3069 19.7634 10.4725 21.2977 10.4725 23.5383C10.4725 23.9525 10.8083 24.2883 11.2225 24.2883H20.6725C21.0867 24.2883 21.4225 23.9525 21.4225 23.5383C21.4225 21.2987 20.5915 19.7642 19.446 18.802C19.099 18.5105 18.7287 18.2761 18.3525 18.0915C19.0574 17.4512 19.5 16.5273 19.5 15.5C19.5 13.567 17.933 12 16 12C14.067 12 12.5 13.567 12.5 15.5C12.5 16.5105 12.9282 17.4209 13.613 18.0598ZM19.8827 22.7883H12.0126C12.1669 21.3993 12.7479 20.5125 13.4173 19.9509C14.2276 19.2712 15.2305 19.0166 15.9475 19.0166C16.6703 19.0166 17.6728 19.2715 18.4813 19.9506C19.1494 20.5118 19.7289 21.3986 19.8827 22.7883ZM7.98401 6.66895C7.98401 6.25473 8.3198 5.91895 8.73401 5.91895H25.534C25.9482 5.91895 26.284 6.25473 26.284 6.66895C26.284 7.08316 25.9482 7.41895 25.534 7.41895H8.73401C8.3198 7.41895 7.98401 7.08316 7.98401 6.66895ZM18 15.5C18 16.6046 17.1046 17.5 16 17.5C14.8954 17.5 14 16.6046 14 15.5C14 14.3954 14.8954 13.5 16 13.5C17.1046 13.5 18 14.3954 18 15.5Z"></path>
</svg>