<svg viewBox="0 0 32 32" fill="none" class="icon_icon__ECGRl icon_appearance-default___4uy_"
    xmlns="http://www.w3.org/2000/svg">
    <path fill-rule="evenodd" clip-rule="evenodd" d="M6.24999 3C6.24999 2.58579 5.91421 2.25 5.49999 2.25C5.08578 2.25 4.74999 2.58579 4.74999 3L4.74988 11.3304L4.75011 11.3436C4.76756 12.3356 5.09413 13.2985 5.6859 14.0799C6.15523 14.6995 6.77183 15.1785 7.47354 15.4671V27.0023C7.47354 27.7421 7.65156 28.4324 8.08093 28.9513C8.52653 29.4897 9.16591 29.75 9.88011 29.75C10.5829 29.75 11.2289 29.5055 11.6876 28.9748C12.1336 28.4589 12.3241 27.7633 12.3241 27.0023V15.4451C13.0033 15.1367 13.5947 14.6484 14.0413 14.0289C14.6016 13.2518 14.9064 12.3075 14.9167 11.3384V10.7066L14.9167 10.7036L14.9167 10.7007V3C14.9167 2.58579 14.5809 2.25 14.1667 2.25C13.7524 2.25 13.4167 2.58579 13.4167 3V9.95361H10.5834V3C10.5834 2.58579 10.2476 2.25 9.83337 2.25C9.41916 2.25 9.08337 2.58579 9.08337 3V9.95361H6.24999V3ZM6.25512 11.4536C6.29271 12.0865 6.51328 12.6879 6.88164 13.1742C7.27578 13.6946 7.81394 14.0509 8.40533 14.1987C8.73926 14.2821 8.97354 14.5821 8.97354 14.9263V27.0023C8.97354 27.5211 9.09968 27.8296 9.23654 27.9949C9.35717 28.1407 9.54608 28.25 9.88011 28.25C10.2255 28.25 10.4265 28.14 10.5528 27.9939C10.6918 27.8331 10.8241 27.5298 10.8241 27.0023V14.9263C10.8241 14.594 11.0428 14.3014 11.3614 14.2071C11.9346 14.0375 12.4502 13.6709 12.8246 13.1517C13.1748 12.6659 13.3813 12.0737 13.4127 11.4536H9.84515L9.83337 11.4537L9.8216 11.4536H6.25512Z"></path>
    <path fill-rule="evenodd" clip-rule="evenodd" d="M26.5086 2.25037C24.4788 2.22709 22.7671 3.31611 21.5918 4.96181C20.4204 6.60206 19.75 8.827 19.75 11.2274V18.2973C19.75 18.7466 19.8842 19.2059 20.1609 19.5697C20.4409 19.9378 20.8714 20.2046 21.3803 20.2046L21.3979 20.2044L22.601 20.1762V26.8031C22.5911 27.4883 22.7787 28.1757 23.1566 28.7239C23.5372 29.276 24.1087 29.6758 24.7846 29.7441C24.795 29.7452 24.8054 29.746 24.8159 29.7466C25.163 29.7671 25.5032 29.694 25.8126 29.5416C26.1205 29.3899 26.3859 29.166 26.6003 28.8971C26.8145 28.6285 26.9769 28.3163 27.0856 27.9835C27.1944 27.6504 27.2494 27.2966 27.25 26.9423V3.00032C27.25 2.58946 26.9194 2.25508 26.5086 2.25037ZM21.25 11.2274C21.25 9.09103 21.8491 7.18257 22.8125 5.83355C23.6031 4.72648 24.617 4.01825 25.75 3.8124V26.9403C25.7496 27.1426 25.718 27.3395 25.6597 27.5178C25.6013 27.6966 25.5197 27.8463 25.4275 27.962C25.3354 28.0775 25.2385 28.1523 25.1498 28.196C25.0685 28.236 24.9914 28.2516 24.9198 28.2499C24.7645 28.229 24.5664 28.1261 24.3916 27.8725C24.2094 27.6082 24.0943 27.2323 24.101 26.821V19.4084C24.101 19.2064 24.0195 19.013 23.875 18.8719C23.7306 18.7307 23.5353 18.6539 23.3334 18.6586L21.3962 18.7041C21.3881 18.6983 21.3732 18.6858 21.3548 18.6616C21.3013 18.5913 21.25 18.4618 21.25 18.2973V11.2274Z"></path>
</svg>