<svg viewBox="0 0 32 32" fill="none" class="icon_icon__ECGRl icon_appearance-default___4uy_"
    xmlns="http://www.w3.org/2000/svg">
    <path fill-rule="evenodd" clip-rule="evenodd" d="M20.1082 3.8836C20.2398 3.94141 20.3537 4.03657 20.4342 4.1597L21.7533 6.17578H23.2115C23.4076 6.17578 23.5959 6.25256 23.736 6.38968L30.6077 13.1125C30.8894 13.3881 30.9098 13.8346 30.6544 14.1347L26.7928 18.672C26.6564 18.8322 26.459 18.9278 26.2487 18.9354C26.0384 18.943 25.8346 18.8618 25.687 18.7118L23.9615 16.9579V27.7849C23.9615 28.1991 23.6257 28.5349 23.2115 28.5349H8.78869C8.37448 28.5349 8.03869 28.1991 8.03869 27.7849V16.9579L6.31322 18.7118C6.16564 18.8618 5.96183 18.943 5.75153 18.9354C5.54124 18.9278 5.3438 18.8322 5.20741 18.672L1.34585 14.1347C1.09045 13.8346 1.11083 13.3881 1.39251 13.1125L8.2642 6.38968C8.40435 6.25256 8.59263 6.17578 8.78869 6.17578H10.246L11.5626 4.16015C11.6441 4.03538 11.7598 3.93928 11.8936 3.8816C12.0013 3.72097 12.1845 3.61523 12.3924 3.61523H19.6081C19.8168 3.61523 20.0007 3.72185 20.1082 3.8836ZM13.4704 4.81523L15.9999 7.43219L18.5274 4.81523H13.4704ZM14.7232 11.8376L15.2545 11.0243V16.8796C15.2545 17.2938 15.5903 17.6296 16.0045 17.6296C16.4187 17.6296 16.7545 17.2938 16.7545 16.8796V11.0445L17.2703 11.8367C17.3949 12.028 17.5997 12.1521 17.8269 12.174C18.0541 12.1959 18.2789 12.1131 18.4377 11.9491L22.2533 8.00792C22.3457 7.91248 22.4083 7.79761 22.4401 7.67578H22.9057L29.0586 13.6954L26.1816 17.0757L23.7462 14.6001C23.5327 14.383 23.2091 14.3166 22.9273 14.432C22.6456 14.5473 22.4615 14.8216 22.4615 15.1261V27.0349H9.53869V15.1261C9.53869 14.8216 9.35463 14.5473 9.07287 14.432C8.79111 14.3166 8.46756 14.383 8.25404 14.6001L5.8186 17.0757L2.94166 13.6954L9.09455 7.67578H9.56009C9.59181 7.79743 9.65434 7.91214 9.74651 8.00749L13.556 11.9487C13.7146 12.1128 13.9392 12.1957 14.1664 12.1741C14.3935 12.1525 14.5984 12.0286 14.7232 11.8376ZM16.9546 8.60288L18.0142 10.2301L20.7586 7.39525L19.6934 5.76714L16.9546 8.60288ZM11.241 7.39534L12.3045 5.76732L15.0448 8.60244L13.9814 10.2305L11.241 7.39534Z"></path>
</svg>