<svg viewBox="0 0 32 32" fill="none" class="icon_icon__ECGRl icon_appearance-default___4uy_"
    xmlns="http://www.w3.org/2000/svg">
    <path fill-rule="evenodd" clip-rule="evenodd" d="M15.9286 8.73855C15.3962 8.80112 15.0101 9.13284 14.729 9.53191C14.5895 9.72998 14.4896 9.92695 14.4248 10.0751C14.3927 10.1483 14.3703 10.2073 14.3565 10.2456C14.3497 10.2647 14.3451 10.2785 14.3427 10.286L14.3409 10.2914L14.337 10.3042C14.334 10.3141 14.33 10.3266 14.3251 10.3415C14.3152 10.3713 14.3014 10.4109 14.2831 10.459C14.2465 10.5551 14.1917 10.6857 14.1143 10.8398C13.9598 11.1473 13.7122 11.5538 13.334 11.9667C12.5649 12.8066 11.2896 13.6335 9.2814 13.7484C7.43387 13.8585 6.03089 13.0062 5.06574 12.0981C4.26039 11.3403 3.70313 10.4836 3.43476 10.071C3.38634 9.99661 3.34733 9.93664 3.31796 9.89431C3.31552 9.89078 3.31317 9.88764 3.31094 9.88484C3.21924 9.963 2.95285 10.3012 2.8833 11.325V12.8013C2.97242 12.8284 3.06933 12.8596 3.17277 12.8953C3.69459 13.0758 4.395 13.3767 5.10162 13.8599C6.42208 14.7629 7.75366 16.3023 7.97509 18.7968H19.2164C19.735 18.7214 20.5954 18.4874 21.3121 18.0998C22.0938 17.6771 22.417 17.2378 22.417 16.8612V16.8601C22.4182 15.9393 22.7242 15.045 23.2869 14.3149C23.4528 14.0996 23.6383 13.9021 23.8402 13.7245L22.8201 13.0584C22.3201 13.368 21.9304 13.8292 21.7116 14.377C21.558 14.7617 21.1216 14.9489 20.7369 14.7953C20.3523 14.6416 20.165 14.2052 20.3186 13.8206C20.5724 13.1852 20.974 12.6264 21.4832 12.1855L20.7269 11.6917C20.4511 11.8207 20.1999 11.9967 19.985 12.2122C19.7196 12.4782 19.5158 12.7979 19.3873 13.149C19.245 13.538 18.8143 13.738 18.4253 13.5957C18.0363 13.4533 17.8363 13.0226 17.9787 12.6336C18.1821 12.0776 18.5044 11.5724 18.9231 11.1528C19.0543 11.0212 19.1941 10.899 19.3412 10.7869L18.4708 10.2186C18.2155 10.3464 17.9821 10.5143 17.7799 10.7161C17.5109 10.9844 17.3033 11.3066 17.1706 11.6607C17.0253 12.0486 16.593 12.2453 16.2051 12.0999C15.8172 11.9546 15.6206 11.5224 15.7659 11.1345C15.9742 10.5787 16.2997 10.074 16.7204 9.65424C16.8393 9.5356 16.965 9.42452 17.0968 9.32149L17.0695 9.30364L17.0639 9.29982L17.0563 9.29477L17.0269 9.27527C17.0002 9.25783 16.9605 9.23219 16.9108 9.20122C16.8105 9.13878 16.6736 9.05726 16.5243 8.97844C16.3724 8.89823 16.2226 8.82878 16.094 8.78367C15.9804 8.7438 15.9301 8.73982 15.9286 8.73855ZM17.9022 8.05599L24.6155 12.4393C24.8862 12.5751 25.1779 12.6653 25.4786 12.7062C25.8631 12.712 27.0231 12.7833 28.1664 13.1841C29.3429 13.5965 30.7651 14.4633 30.9459 16.2234L30.948 16.2441L30.949 16.2649C30.9872 17.0805 30.8593 17.8953 30.5731 18.6604C30.287 19.4255 29.8484 20.125 29.284 20.7171L29.2726 20.7062C28.7183 21.426 28.0256 22.0331 27.232 22.4906C26.1638 23.1065 24.9505 23.4296 23.7161 23.4273C23.7158 23.4273 23.7164 23.4273 23.7161 23.4273H5.28482C4.25169 23.4273 3.25987 23.0196 2.52781 22.2925C1.79558 21.5652 1.3833 20.5776 1.3833 19.5468V11.2762L1.38485 11.2521C1.46582 9.99364 1.83014 9.05787 2.5092 8.61496C3.28406 8.10958 4.13346 8.43834 4.55037 9.03922C4.5984 9.10844 4.65316 9.19199 4.71535 9.28686C4.99898 9.71954 5.43697 10.3877 6.09367 11.0057C6.87968 11.7453 7.89852 12.3284 9.19297 12.251L9.19495 12.2509C10.7879 12.1599 11.7049 11.5246 12.2278 10.9537C12.4957 10.6611 12.6691 10.375 12.774 10.1662C12.8263 10.0622 12.8609 9.97879 12.8812 9.92537C12.8913 9.89871 12.8979 9.87972 12.9012 9.86959L12.9036 9.86233C12.9039 9.86133 12.904 9.86106 12.9039 9.86128L13.6224 10.0748C12.904 9.86092 12.9038 9.86157 12.9039 9.86128L12.9044 9.85973L12.9048 9.85836L12.9058 9.85509L12.9084 9.84645L12.9165 9.82102C12.9232 9.80058 12.9324 9.77321 12.9444 9.73986C12.9682 9.67326 13.0032 9.58208 13.0505 9.47391C13.1444 9.25924 13.2909 8.96876 13.5026 8.6682C13.9211 8.074 14.6511 7.36637 15.7853 7.24524L15.7895 7.24479C16.0901 7.21443 16.385 7.29614 16.5906 7.36826C16.8157 7.44724 17.0378 7.55331 17.2247 7.65198C17.4142 7.75205 17.5829 7.85276 17.7035 7.92783C17.7642 7.96562 17.8137 7.99755 17.8488 8.0205L17.8903 8.04794L17.9022 8.05599ZM28.8578 18.7968C28.9787 18.5852 29.0825 18.3639 29.1682 18.1348C29.3808 17.5666 29.477 16.9622 29.4516 16.357C29.3539 15.4988 28.6674 14.9492 27.6702 14.5996C27.0652 14.3875 26.4407 14.2873 25.9971 14.2416C25.9721 14.2513 25.9463 14.2598 25.9198 14.267C25.3439 14.4225 24.8365 14.7614 24.475 15.2305C24.1136 15.6995 23.9178 16.2728 23.917 16.8622C23.9166 17.688 23.4812 18.3243 22.939 18.7968H28.8578ZM27.6423 20.2968H3.00561C3.12197 20.6442 3.31878 20.9639 3.5849 21.2283C4.03489 21.6752 4.64627 21.9273 5.28482 21.9273H23.7167L23.7182 21.9273C24.6894 21.9292 25.6434 21.6751 26.4828 21.1912C26.9099 20.9449 27.2996 20.6436 27.6423 20.2968ZM2.8833 18.7968H6.46758C6.25881 16.9101 5.25761 15.7838 4.25491 15.0981C3.77059 14.7669 3.2838 14.5386 2.8833 14.386V18.7968Z"></path>
</svg>