<svg viewBox="0 0 32 32" fill="none" class="icon_icon__ECGRl icon_appearance-default___4uy_"
    xmlns="http://www.w3.org/2000/svg">
    <path fill-rule="evenodd" clip-rule="evenodd" d="M14.2568 3.71191C13.837 3.71191 13.4366 3.87618 13.1433 4.16484C12.8504 4.45312 12.6881 4.84153 12.6881 5.24394V7.11404H19.3123V5.24539C19.3104 4.84218 19.1466 4.45362 18.8525 4.1653C18.5578 3.87628 18.1561 3.71191 17.735 3.71191H14.2568ZM20.8123 7.11404L20.8123 5.24394L20.8123 5.24113C20.8093 4.4328 20.4808 3.66108 19.9027 3.09427C19.325 2.52784 18.5453 2.21191 17.735 2.21191H14.2568C13.4468 2.21191 12.6676 2.52849 12.0912 3.09576C11.5144 3.66341 11.1881 4.43588 11.1881 5.24394V7.11404H4.52645C2.63426 7.11404 1.07983 8.62679 1.07983 10.518V23.5171C1.07983 25.4083 2.63426 26.9211 4.52645 26.9211H7.47771V27.8952C7.47771 28.3095 7.8135 28.6452 8.22771 28.6452C8.64193 28.6452 8.97771 28.3095 8.97771 27.8952V26.9211H23.0224V27.8952C23.0224 28.3095 23.3581 28.6452 23.7724 28.6452C24.1866 28.6452 24.5224 28.3095 24.5224 27.8952V26.9211H27.4734C29.3656 26.9211 30.92 25.4083 30.92 23.5171V10.518C30.92 8.62679 29.3656 7.11404 27.4734 7.11404H20.8123ZM4.52645 8.61404C3.44004 8.61404 2.57983 9.47769 2.57983 10.518V20.3139C3.71727 20.4814 4.77729 21.0103 5.59209 21.8321C6.54449 22.7926 7.08631 24.0776 7.10535 25.4211H24.5854C24.6044 24.0776 25.1463 22.7926 26.0987 21.8321C26.9869 20.9362 28.1664 20.3885 29.42 20.2775V10.518C29.42 9.47769 28.5598 8.61404 27.4734 8.61404H25.0118V11.3761L26.2669 12.0128C26.5188 12.1406 26.6776 12.3992 26.6776 12.6817V18.1839C26.6776 18.5981 26.3418 18.9339 25.9276 18.9339H22.5955C22.1812 18.9339 21.8455 18.5981 21.8455 18.1839V12.6817C21.8455 12.3992 22.0042 12.1406 22.2561 12.0128L23.5118 11.3758V8.61404H4.52645ZM24.2615 12.6775L23.3455 13.1422V17.4339H25.1776V13.1422L24.2615 12.6775ZM29.42 21.7856C28.5652 21.891 27.7686 22.2782 27.1639 22.8882C26.4879 23.57 26.1045 24.4763 26.0856 25.4211H27.4734C28.5598 25.4211 29.42 24.5574 29.42 23.5171V21.7856ZM5.60514 25.4211C5.58624 24.4763 5.2029 23.57 4.52691 22.8882C3.99572 22.3524 3.31649 21.9885 2.57983 21.8365V23.5171C2.57983 24.5574 3.44004 25.4211 4.52645 25.4211H5.60514ZM15.1928 11.2612C15.5785 11.119 16.0069 11.3138 16.1532 11.698L17.9641 16.4548C18.0353 16.642 18.0288 16.8498 17.9459 17.0322C17.8629 17.2145 17.7106 17.356 17.5227 17.4253L8.85336 20.6221C8.46761 20.7644 8.03924 20.5695 7.89296 20.1853L6.08204 15.4285C6.01078 15.2414 6.01734 15.0335 6.10026 14.8512C6.18318 14.6689 6.33557 14.5273 6.52348 14.458L15.1928 11.2612ZM7.75354 15.6032L9.03074 18.958L16.2926 16.2802L15.0154 12.9254L7.75354 15.6032Z"></path>
</svg>