<svg viewBox="0 0 32 32" fill="none" class="icon_icon__ECGRl icon_appearance-default___4uy_"
    xmlns="http://www.w3.org/2000/svg">
    <path d="M16.5303 9.185C16.2374 8.89211 15.7626 8.89211 15.4697 9.185C15.1768 9.4779 15.1768 9.95277 15.4697 10.2457L19.4697 14.2457C19.7626 14.5386 20.2374 14.5386 20.5303 14.2457C20.8232 13.9528 20.8232 13.4779 20.5303 13.185L16.5303 9.185Z"></path>
    <path fill-rule="evenodd" clip-rule="evenodd" d="M22.2101 3.95721C22.5014 3.66277 22.4989 3.18791 22.2045 2.89656C21.91 2.60522 21.4352 2.60773 21.1438 2.90217L18.6239 5.44891L16.8744 3.67629C16.7992 3.60009 16.7117 3.54339 16.6182 3.5062C16.4365 3.43392 16.2325 3.43551 16.0519 3.51067C15.9626 3.54787 15.879 3.60309 15.8067 3.67629L11.6116 7.927C9.53012 10.036 9.24738 13.2719 10.5842 15.9154L8.56458 17.9684C8.27748 18.2603 8.27746 18.7284 8.56453 19.0203L9.1865 19.6527L4.76044 24.1373C4.4754 24.402 4.24592 24.7212 4.08507 25.076C3.92142 25.437 3.8321 25.8275 3.82221 26.2239C3.81233 26.6203 3.88206 27.0148 4.02745 27.3836C4.17285 27.7524 4.39099 28.088 4.66913 28.3698C4.9473 28.6516 5.27971 28.8738 5.64644 29.0223C6.01319 29.1707 6.40623 29.2422 6.80158 29.232C7.19694 29.2219 7.58584 29.1304 7.94457 28.9635C8.29713 28.7994 8.61304 28.5659 8.87408 28.2773L12.279 24.8273C12.4437 24.6807 12.6551 24.6035 12.8709 24.6087C13.0918 24.614 13.3041 24.7052 13.4632 24.8665C13.6226 25.028 13.7162 25.2475 13.7217 25.4799C13.727 25.7072 13.6475 25.9264 13.5019 26.0943L11.706 27.914C11.415 28.2088 11.4182 28.6837 11.713 28.9747C12.0078 29.2656 12.4826 29.2625 12.7736 28.9677L14.5839 27.1334C14.5922 27.125 14.6004 27.1163 14.6083 27.1075C15.017 26.6521 15.2356 26.0566 15.2213 25.4448C15.2069 24.833 14.9607 24.2484 14.5308 23.8128C14.1006 23.3769 13.5193 23.1239 12.907 23.1091C12.2946 23.0944 11.7019 23.3193 11.2515 23.7343C11.2427 23.7423 11.2342 23.7506 11.2259 23.759L7.79415 27.2361C7.78529 27.2451 7.77665 27.2543 7.76825 27.2637C7.6398 27.4077 7.48434 27.5232 7.31164 27.6036C7.13898 27.6839 6.95241 27.7277 6.76319 27.7325C6.57396 27.7374 6.38554 27.7032 6.20924 27.6319C6.03294 27.5605 5.87207 27.4533 5.73674 27.3161C5.60139 27.179 5.49445 27.0149 5.4229 26.8334C5.35136 26.6519 5.31686 26.4573 5.32174 26.2613C5.32663 26.0654 5.37079 25.8728 5.45123 25.6954C5.53167 25.518 5.64655 25.3597 5.78841 25.2298C5.79774 25.2212 5.80684 25.2125 5.81572 25.2035L10.2384 20.7222L10.8471 21.341C10.9879 21.4842 11.1803 21.565 11.3812 21.5651C11.582 21.5653 11.7745 21.4849 11.9156 21.342L13.9354 19.2954C16.5489 20.641 19.741 20.3594 21.8252 18.2477L26.0159 14.0015C26.274 13.7444 26.306 13.3455 26.1103 13.0533C26.0856 13.0165 26.0573 12.9814 26.0254 12.9484L26.0204 12.9433L24.2571 11.1566L26.7845 8.58913C27.0751 8.29395 27.0714 7.81909 26.7762 7.52851C26.481 7.23792 26.0061 7.24166 25.7155 7.53684L23.2033 10.0889L19.6776 6.51659L22.2101 3.95721ZM10.8103 19.1645L11.3827 19.7465L12.6512 18.4612C12.4222 18.2776 12.2014 18.079 11.9902 17.8657C11.7834 17.6569 11.5908 17.4387 11.4123 17.2125L10.1513 18.4944L10.7381 19.0911C10.748 19.0999 10.7578 19.1091 10.7674 19.1185C10.7825 19.1334 10.7967 19.1487 10.8103 19.1645ZM12.0973 15.5645C12.1417 15.6189 12.1773 15.6782 12.2042 15.7403C12.4422 16.1175 12.7261 16.477 13.0561 16.8103C13.3923 17.1499 13.7546 17.4411 14.1343 17.6842C14.1801 17.7065 14.2242 17.7338 14.2656 17.766C16.4287 19.0753 19.1134 18.8599 20.7576 17.194L24.4328 13.4701L18.1005 7.05402L18.0955 7.04915C18.0896 7.04325 18.0837 7.03727 18.078 7.03122L16.3406 5.27081L12.6792 8.98067C11.0332 10.6484 10.8148 13.3743 12.0973 15.5645Z"></path>
</svg>