<svg viewBox="0 0 32 32" fill="none" class="icon_icon__ECGRl icon_appearance-default___4uy_"
    xmlns="http://www.w3.org/2000/svg">
    <path fill-rule="evenodd" clip-rule="evenodd" d="M11.436 5.5083H20.4552L20.4637 5.50849C21.8663 5.5404 23.2124 6.06722 24.257 6.99571C25.299 7.92191 25.972 9.18686 26.1517 10.5626C26.2017 10.874 26.3173 11.1722 26.4916 11.438C26.5352 11.5046 26.5823 11.5687 26.6326 11.6302C26.7204 11.5941 26.8166 11.5742 26.9175 11.5742H28.9025C29.3167 11.5742 29.6525 11.91 29.6525 12.3242C29.6525 12.7384 29.3167 13.0742 28.9025 13.0742H28.2907C28.5605 13.3803 28.7953 13.717 28.9897 14.0785C29.4168 14.8726 29.6349 15.7605 29.6231 16.6604V19.7836C29.6313 20.0816 29.5787 20.378 29.4688 20.655C29.3572 20.9364 29.1889 21.1917 28.9746 21.4057C28.7603 21.6196 28.5047 21.7875 28.2238 21.8999C28.1139 21.9439 28.0011 21.979 27.8863 22.0051V24.0876C27.8863 24.726 27.6298 25.3362 27.1765 25.7856C26.7235 26.2347 26.1109 26.4868 25.4732 26.4906L25.4688 25.7406V26.4906C24.8285 26.4906 24.2124 26.24 23.7564 25.7906C23.3 25.3409 23.0415 24.7285 23.0415 24.0876V22.0611H22.5744L22.5818 22.0917H9.80786L9.81521 22.0611H8.91947V24.0876C8.91947 24.7285 8.66102 25.3409 8.20461 25.7906C7.74856 26.2401 7.13228 26.4906 6.49206 26.4906H6.48769C5.84987 26.4868 5.23739 26.2346 4.78447 25.7856C4.33116 25.3362 4.0747 24.726 4.07471 24.0876V22.0211C3.61383 21.9315 3.18895 21.6996 2.86434 21.3529C2.46677 20.9282 2.2516 20.365 2.26809 19.7833V16.6605C2.25628 15.7605 2.47435 14.8726 2.90143 14.0785C3.09586 13.717 3.3307 13.3803 3.60047 13.0742H3.13672C2.72251 13.0742 2.38672 12.7384 2.38672 12.3242C2.38672 11.91 2.72251 11.5742 3.13672 11.5742H5.12174C5.17907 11.5742 5.23489 11.5806 5.28853 11.5928C5.32767 11.5428 5.36473 11.4912 5.39959 11.438C5.57392 11.1722 5.68951 10.874 5.73953 10.5626C5.9192 9.1868 6.59238 7.92187 7.63431 6.99571C8.67884 6.06723 10.0248 5.5404 11.4275 5.50849L11.436 5.5083ZM24.5415 22.0611V24.0876C24.5415 24.3235 24.6365 24.552 24.8092 24.7222C24.9818 24.8923 25.218 24.99 25.4666 24.9906C25.7143 24.9886 25.9491 24.8902 26.1205 24.7204C26.292 24.5503 26.3863 24.3226 26.3863 24.0876V22.0611H24.5415ZM5.57471 22.0611H7.41947V24.0876C7.41947 24.3235 7.32447 24.552 7.15175 24.7222C6.97919 24.8923 6.74295 24.99 6.49426 24.9906C6.2466 24.9886 6.01191 24.8903 5.8405 24.7204C5.66897 24.5503 5.5747 24.3226 5.57471 24.0876V22.0611ZM27.3621 20.5611H22.2091L21.6414 18.2299C21.4931 17.6246 21.1387 17.0893 20.6406 16.7138C20.1457 16.3407 19.538 16.1464 18.9181 16.1609H13.4585C12.8386 16.1464 12.2309 16.3407 11.736 16.7138C11.2379 17.0893 10.8837 17.6237 10.7355 18.229L10.1754 20.5611H4.45737C4.26511 20.5487 4.08705 20.4641 3.95936 20.3278C3.82884 20.1883 3.76118 20.0062 3.76764 19.8212L3.76809 19.8081L3.76817 16.6554L3.76802 16.6447C3.75887 15.999 3.91496 15.3608 4.2225 14.789C4.52976 14.2177 4.97859 13.7305 5.52872 13.3733C5.97816 13.0851 6.3618 12.7061 6.65395 12.2606C6.94656 11.8144 7.1406 11.3117 7.22294 10.7854L7.22452 10.7753L7.22583 10.7651C7.35671 9.74724 7.85424 8.80714 8.63086 8.11682C9.40569 7.42808 10.4067 7.03404 11.4534 7.0083H20.4378C21.4845 7.03404 22.4856 7.42809 23.2604 8.11682C24.037 8.80711 24.5345 9.74719 24.6654 10.7651L25.4092 10.6695L24.6682 10.7854C24.7506 11.3117 24.9446 11.8144 25.2372 12.2606C25.5294 12.7061 25.913 13.0851 26.3625 13.3733C26.9126 13.7305 27.3614 14.2177 27.6687 14.789C27.9762 15.3608 28.1322 15.999 28.1231 16.6447V19.795H28.8731L28.1235 19.8205C28.1268 19.9162 28.1102 20.0119 28.0745 20.1019C28.0388 20.1918 27.9847 20.2744 27.9148 20.3441C27.8448 20.414 27.7605 20.4697 27.6666 20.5073C27.5727 20.5448 27.4716 20.5633 27.3697 20.5612L27.3621 20.5611ZM11.7181 20.5611H20.6652L20.1842 18.5858C20.1189 18.3197 19.9621 18.0807 19.7376 17.9115C19.5128 17.742 19.2341 17.6528 18.9483 17.6606L18.938 17.6609H13.4386L13.4283 17.6606C13.1425 17.6528 12.8638 17.742 12.639 17.9115C12.4147 18.0806 12.2582 18.3186 12.1928 18.5844L11.7181 20.5611ZM23.8511 14.9956C23.4369 14.9956 23.1011 15.3314 23.1011 15.7456C23.1011 16.1598 23.4369 16.4956 23.8511 16.4956H25.588C26.0022 16.4956 26.338 16.1598 26.338 15.7456C26.338 15.3314 26.0022 14.9956 25.588 14.9956H23.8511ZM5.70203 15.7456C5.70203 15.3314 6.03781 14.9956 6.45203 14.9956H8.18892C8.60314 14.9956 8.93892 15.3314 8.93892 15.7456C8.93892 16.1598 8.60314 16.4956 8.18892 16.4956H6.45203C6.03781 16.4956 5.70203 16.1598 5.70203 15.7456ZM9.4436 12.606C9.4436 12.1917 9.77939 11.856 10.1936 11.856H22.1038C22.518 11.856 22.8538 12.1917 22.8538 12.606C22.8538 13.0202 22.518 13.356 22.1038 13.356H10.1936C9.77939 13.356 9.4436 13.0202 9.4436 12.606Z"></path>
</svg>